<svg id="底層" xmlns="http://www.w3.org/2000/svg" viewBox="0 0 332.9 327.23"><defs><style>.cls-1{fill:#c9caca;stroke:#c9caca;stroke-miterlimit:10;}</style></defs><title>icon</title><circle class="cls-1" cx="263.02" cy="162.17" r="10.6"/><circle class="cls-1" cx="194.6" cy="185.79" r="10.6"/><circle class="cls-1" cx="212.57" cy="111.1" r="10.6"/><path class="cls-1" d="M172.75,265.85l37.52-155.31,4.59,1.11L179.72,257.08c13.44-7.69,53.51-34.17,75.37-86.91l4.36,1.81c-27.14,65.45-81.71,91.54-82.26,91.79Z"/><circle class="cls-1" cx="75.95" cy="165.74" r="10.6"/><circle class="cls-1" cx="145.49" cy="185.78" r="10.6"/><circle class="cls-1" cx="123.69" cy="112.12" r="10.6"/><path class="cls-1" d="M151.88,254.8A188.92,188.92,0,0,1,80,175.34l4.26-2c24.6,51.61,65.95,75.93,79.77,82.89L121.43,112.79l4.52-1.34L171.46,264.6l-4.54-1.84A121.11,121.11,0,0,1,151.88,254.8Z"/><rect class="cls-1" x="165.93" y="78.33" width="13" height="198.79"/><path class="cls-1" d="M155.58,67.71a17,17,0,1,1,17,17A17,17,0,0,1,155.58,67.71Z"/></svg>