<svg id="底層" xmlns="http://www.w3.org/2000/svg" viewBox="0 0 332.9 327.23"><defs><style>.cls-1{fill:#c9caca;stroke:#c9caca;stroke-miterlimit:10;}</style></defs><title>icon</title><path class="cls-1" d="M176.07,279.15c-18.38-5-29.79-13.92-35.87-28-11.33-26.21,2.19-52,3.77-54.88,4.37-7.88,9.72-15.66,14.43-22.53,5.26-7.66,10.23-14.9,12.73-20.62,2.71-6.18,14.46-38.58-19.86-69.73l5-5.48c29.48,26.77,30.53,57.94,21.67,78.18-2.79,6.36-8,13.88-13.42,21.84-4.85,7.06-9.86,14.36-14.06,21.92-1.4,2.53-13.38,25.39-3.46,48.36,5.2,12,14.77,19.36,31,23.8Z"/><path class="cls-1" d="M173.81,280.06c-15.56-11-23.23-23.26-24.13-38.58C148,212.92,169.53,193.33,172,191.2c6.8-5.91,14.48-11.39,21.27-16.23,7.56-5.41,14.7-10.51,19-15,4.66-4.89,26.76-31.35,5.18-72.32L224,84.17c18.55,35.22,8.95,64.8-6.37,80.88-4.8,5-12.22,10.33-20.07,15.94-7,5-14.18,10.12-20.71,15.8-2.18,1.88-21.27,19.23-19.79,44.25.78,13.08,7.26,23.25,21,33Z"/><path class="cls-1" d="M179,280.14c-19,1.57-32.75-2.89-43.29-14C116,245.3,120,216.46,120.47,213.24c1.42-8.89,3.78-18,5.86-26.09,2.32-9,4.51-17.51,4.91-23.74.43-6.74.38-41.2-42.52-58.74l2.8-6.85c36.86,15.06,48.5,44,47.1,66.05-.44,6.94-2.71,15.78-5.13,25.13-2.14,8.28-4.35,16.86-5.7,25.4-.46,2.85-3.94,28.4,13.28,46.61,9,9.53,20.5,13.14,37.3,11.76Z"/><path class="cls-1" d="M177.53,279.55c-18.09,6-32.51,4.87-45.37-3.49-24-15.59-26.94-44.56-27.2-47.81-.72-9-.57-18.41-.44-26.73.15-9.3.28-18.08-.8-24.24-1.16-6.64-9.29-40.14-55.12-47.12l1.12-7.31c39.38,6,57.48,31.39,61.29,53.15,1.19,6.85,1.06,16,.91,25.64-.14,8.56-.27,17.4.41,26,.24,2.88,2.86,28.53,23.86,42.19,11,7.14,23,8,39,2.68Z"/><path class="cls-1" d="M273.11,176.74A59.42,59.42,0,0,1,255.21,191c-6.18,3.18-14.93,5.75-24.19,8.47-8.22,2.42-16.71,4.91-24.74,8.13-2.69,1.08-26.42,11.17-33.21,35.31-3.13,11.08-.77,19.09,10.11,34.29l-6,4.3c-12.16-17-15-27.24-11.21-40.6,7.78-27.52,34.54-39,37.57-40.17,8.36-3.35,17.42-6,25.41-8.36,8.92-2.62,17.34-5.1,22.9-8,6-3.08,35.58-20.79,28.63-66.62l7.32-1.1C291.82,143.45,284.43,163.48,273.11,176.74Z"/><ellipse class="cls-1" cx="287.32" cy="122.15" rx="7.24" ry="18.36" transform="translate(-19.88 177.83) rotate(-33.31)"/><ellipse class="cls-1" cx="221.73" cy="87.42" rx="7.24" ry="18.36" transform="translate(-11.58 136.12) rotate(-33.31)"/><ellipse class="cls-1" cx="159.65" cy="84.27" rx="7.24" ry="18.36" transform="translate(-20.05 101.51) rotate(-33.31)"/><ellipse class="cls-1" cx="92.92" cy="102.71" rx="7.24" ry="18.36" transform="translate(-41.14 67.89) rotate(-33.31)"/><ellipse class="cls-1" cx="50.21" cy="130.77" rx="7.24" ry="18.36" transform="translate(-63.56 49.05) rotate(-33.31)"/></svg>