<svg id="底層" xmlns="http://www.w3.org/2000/svg" viewBox="0 0 332.9 327.23"><defs><style>.cls-1{fill:#c9caca;stroke:#c9caca;stroke-miterlimit:10;}</style></defs><title>icon</title><path class="cls-1" d="M194.14,143.62a25.5,25.5,0,0,1-15.24-4.75c-7.58-5.51-11.4-15-10.74-26.7.62-10.93,5.12-22.66,12.66-33l7.87,5.72c-6.46,8.89-10.31,18.79-10.83,27.87-.47,8.3,1.94,14.79,6.76,18.3,10.45,7.6,30-.69,42.66-18.12l7.87,5.72C223.57,134.51,207.78,143.62,194.14,143.62Z"/><path class="cls-1" d="M140.11,140.22c-6,0-12.32-2.08-18.54-6.14-9.16-6-17.06-15.76-22.29-27.49l8.88-4c4.47,10,11.12,18.32,18.74,23.3,6.95,4.58,13.75,5.74,19.22,3.31,11.81-5.25,14.4-26.33,5.64-46l8.88-3.94c11.26,25.34,6.62,51.18-10.57,58.84A24.44,24.44,0,0,1,140.11,140.22Z"/><path class="cls-1" d="M239.15,199.2A58.51,58.51,0,0,1,216.61,195c-10.81-4.54-17.67-12.12-19.3-21.35s2.2-18.72,10.8-26.69c8-7.44,19.41-12.75,32-15l1.69,9.57c-10.83,1.91-20.47,6.37-27.13,12.55-6.1,5.65-8.89,12-7.85,17.86s5.83,10.87,13.49,14.08c8.4,3.52,19,4.38,29.81,2.49l1.69,9.57A72.87,72.87,0,0,1,239.15,199.2Z"/><path class="cls-1" d="M152.89,252.58,145,246.86c6.46-8.9,10.31-18.79,10.83-27.87.47-8.3-1.94-14.79-6.76-18.3-10.45-7.6-30,.68-42.66,18.12l-7.87-5.72c16.32-22.42,41-31.35,56.25-20.27,7.58,5.52,11.4,15,10.74,26.71C164.93,230.46,160.43,242.19,152.89,252.58Z"/><path class="cls-1" d="M174.18,252.75c-11.26-25.34-6.62-51.17,10.58-58.84,8.56-3.78,18.68-2.35,28.49,4.05,9.16,6,17.06,15.76,22.29,27.49l-8.88,4c-4.47-10.05-11.12-18.32-18.74-23.31-6.94-4.55-13.75-5.73-19.22-3.3-11.8,5.26-14.39,26.33-5.64,46Z"/><path class="cls-1" d="M92.54,198.05l-1.7-9.57c21.22-3.76,37.24-17.68,35-30.41-1-5.87-5.83-10.88-13.49-14.1-8.41-3.5-19-4.4-29.8-2.48l-1.69-9.56c12.66-2.24,25.17-1.15,35.24,3.09,10.82,4.53,17.68,12.12,19.31,21.35C138.67,174.92,119.84,193.21,92.54,198.05Z"/><circle class="cls-1" cx="118.82" cy="79.01" r="10.57"/><circle class="cls-1" cx="140.62" cy="69.74" r="10.57"/><circle class="cls-1" cx="201.7" cy="267.15" r="10.57"/><circle class="cls-1" cx="222.77" cy="256.32" r="10.57"/><circle class="cls-1" cx="266.92" cy="173.13" r="10.57"/><circle class="cls-1" cx="264.74" cy="148.77" r="10.57"/><circle class="cls-1" cx="68.54" cy="181.82" r="10.57"/><circle class="cls-1" cx="65.98" cy="157.84" r="10.57"/><circle class="cls-1" cx="233.4" cy="87.69" r="10.57"/><circle class="cls-1" cx="213.64" cy="73.28" r="10.57"/><circle class="cls-1" cx="120.73" cy="260.5" r="10.57"/><circle class="cls-1" cx="100.97" cy="246.08" r="10.57"/></svg>