<svg id="底層" xmlns="http://www.w3.org/2000/svg" viewBox="0 0 332.9 327.23"><defs><style>.cls-1{fill:#c9caca;stroke:#c9caca;stroke-miterlimit:10;}</style></defs><title>icon</title><ellipse class="cls-1" cx="166.45" cy="163.62" rx="11.14" ry="111.43" transform="translate(-36.62 48.55) rotate(-14.97)"/><ellipse class="cls-1" cx="166.45" cy="163.62" rx="11.14" ry="111.43" transform="translate(-63.72 124.94) rotate(-34.97)"/><ellipse class="cls-1" cx="166.45" cy="163.62" rx="11.14" ry="111.43" transform="translate(-63.07 206) rotate(-54.97)"/><ellipse class="cls-1" cx="166.45" cy="163.62" rx="11.14" ry="111.43" transform="translate(-34.73 281.94) rotate(-74.97)"/><ellipse class="cls-1" cx="166.45" cy="163.62" rx="111.43" ry="11.14" transform="translate(-13.55 15.04) rotate(-4.97)"/><ellipse class="cls-1" cx="166.45" cy="163.62" rx="111.43" ry="11.14" transform="translate(-53.51 85.56) rotate(-24.97)"/><ellipse class="cls-1" cx="166.45" cy="163.62" rx="111.43" ry="11.14" transform="translate(-66.94 165.5) rotate(-44.97)"/><ellipse class="cls-1" cx="166.45" cy="163.62" rx="111.43" ry="11.14" transform="translate(-52.22 245.21) rotate(-64.97)"/><ellipse class="cls-1" cx="166.45" cy="163.62" rx="111.43" ry="11.14" transform="translate(-11.13 315.08) rotate(-84.97)"/></svg>