<svg id="底層" xmlns="http://www.w3.org/2000/svg" viewBox="0 0 332.9 327.23"><defs><style>.cls-1{fill:#c9caca;stroke:#c9caca;stroke-miterlimit:10;}</style></defs><title>icon</title><circle class="cls-1" cx="268.64" cy="149.81" r="8.88"/><circle class="cls-1" cx="268.64" cy="190.66" r="8.88"/><rect class="cls-1" x="176.35" y="168.16" width="131.21" height="4.15"/><circle class="cls-1" cx="185.44" cy="76.14" r="8.88"/><circle class="cls-1" cx="224.3" cy="88.77" r="8.88"/><polygon class="cls-1" points="178.32 170.88 174.38 169.59 214.92 44.8 218.86 46.09 178.32 170.88"/><circle class="cls-1" cx="113.68" cy="241.01" r="8.88"/><circle class="cls-1" cx="89.67" cy="207.96" r="8.88"/><rect class="cls-1" x="57.66" y="206.72" width="131.22" height="4.15" transform="translate(-99.19 112.35) rotate(-36.01)"/><circle class="cls-1" cx="224.3" cy="251.56" r="8.88"/><circle class="cls-1" cx="185.44" cy="264.19" r="8.88"/><polygon class="cls-1" points="214.92 295.52 174.38 170.74 178.32 169.45 218.86 294.24 214.92 295.52"/><circle class="cls-1" cx="113.68" cy="98.92" r="8.88"/><circle class="cls-1" cx="89.67" cy="131.98" r="8.88"/><rect class="cls-1" x="121.19" y="65.53" width="4.15" height="131.22" transform="translate(-55.28 153.79) rotate(-54)"/><path class="cls-1" d="M184.55,150c0,19.79-3.21,23.28-10.91,23.27s-10.9-3.48-10.9-23.27,7.32-43,10.9-43S184.55,130.16,184.55,150Z"/></svg>