<svg id="底層" xmlns="http://www.w3.org/2000/svg" viewBox="0 0 332.9 327.23"><defs><style>.cls-1{fill:#c9caca;stroke:#c9caca;stroke-miterlimit:10;}</style></defs><title>icon</title><path class="cls-1" d="M167,154.31a7,7,0,0,1,11.54,3.57l26,109.63a7.21,7.21,0,0,1,.18,2.26,36.2,36.2,0,0,1-72.28-4.06,7.77,7.77,0,0,1,.31-1.87v0L165,157.47A7,7,0,0,1,167,154.31Zm21.65,134.57a29.55,29.55,0,0,0,9.56-19.59L172.11,159.4l-.84,0L139.05,265.7a.78.78,0,0,0,0,.25,29.57,29.57,0,0,0,49.6,22.93Z"/><path class="cls-1" d="M201.84,154.89a7,7,0,0,1,11.55,3.58l26,109.62a7.55,7.55,0,0,1,.19,2.26,36.2,36.2,0,0,1-72.28-4.05,7,7,0,0,1,.33-1.91l32.22-106.33A7.07,7.07,0,0,1,201.84,154.89Zm21.65,134.58a29.52,29.52,0,0,0,9.55-19.6L207,160l-4-1,3.14,1L173.92,266.35a.65.65,0,0,0,0,.19,29.58,29.58,0,0,0,49.61,22.93Z"/><path class="cls-1" d="M135.46,153.16A7,7,0,0,1,147,156.74l26,109.62a7.33,7.33,0,0,1,.19,2.23,36.2,36.2,0,0,1-72.28-4,8.12,8.12,0,0,1,.32-1.9l32.23-106.34A7,7,0,0,1,135.46,153.16Zm21.65,134.57a29.55,29.55,0,0,0,9.56-19.6L140.61,158.26l-4-1,3.14,1L107.55,264.6a.61.61,0,0,0,0,.24,29.57,29.57,0,0,0,49.6,22.89Z"/><path class="cls-1" d="M150,139.89a7,7,0,0,1,11.54,3.57l6.21,26.19-6.4,1.52L155.1,145l-4-1,3.14.95-5.89,19.46-6.29-1.91,5.9-19.45A6.82,6.82,0,0,1,150,139.89Z"/><path class="cls-1" d="M183.11,141.34a7,7,0,0,1,11.54,3.57l7.11,27.93-6.38,1.62-7.11-28-.85-.06-6.83,22.21-6.28-1.93,6.83-22.2A7,7,0,0,1,183.11,141.34Z"/><rect class="cls-1" x="169.55" y="49.27" width="6.57" height="105.94"/><path class="cls-1" d="M163,49.76a9.89,9.89,0,1,1,9.88,9.89A9.88,9.88,0,0,1,163,49.76Z"/></svg>