<svg xmlns="http://www.w3.org/2000/svg" xmlns:xlink="http://www.w3.org/1999/xlink" viewBox="0 0 411.02 368.5"><defs><style>.cls-1{fill:none;}.cls-2{clip-path:url(#clip-path);}.cls-3{fill:#374a24;}.cls-4{fill:#969491;}.cls-5{fill:#9999a2;}.cls-6{fill:#c2c2ca;}.cls-7{fill:#808282;}.cls-8{fill:#5d5544;}.cls-9{fill:#24221b;}.cls-10{fill:#303524;}.cls-11{fill:#5a6f3d;}.cls-12{fill:#2a3021;}.cls-13{fill:#485e2b;}.cls-14{fill:#242c1c;}.cls-15{fill:#b1b0ab;}.cls-16{fill:#bcb7a5;}.cls-17{fill:#5d6845;}.cls-18{fill:#2f401f;}.cls-19{fill:#656a4a;}.cls-20{fill:#43552e;}.cls-21{fill:#53603c;}.cls-22{fill:#596b41;}.cls-23{fill:#414f2d;}.cls-24{fill:#2d3224;}.cls-25{fill:#a7a8b1;}.cls-26{fill:#9e9c97;}.cls-27{fill:#a4a2a6;}.cls-28{fill:#7e7d6a;}.cls-29{fill:#b4b3bd;}.cls-30{fill:#babbcb;}.cls-31{fill:#878273;}.cls-32{fill:#aaa694;}.cls-33{fill:#acaaaa;}.cls-34{fill:#928f60;}.cls-35{fill:#2e3525;}.cls-36{fill:#9c8c75;}.cls-37{fill:#a7a978;}.cls-38{fill:#b1b882;}.cls-39{fill:#99a066;}.cls-40{fill:#918e5a;}.cls-41{fill:#958d70;}.cls-42{fill:#83875e;}.cls-43{fill:#c3c3ca;}.cls-44{fill:#b7b5bd;}.cls-45{fill:#c6c3b1;}.cls-46{fill:#d9d8cc;}.cls-47{fill:#d7d5d2;}.cls-48{fill:#a3988a;}.cls-49{fill:#938c5d;}.cls-50{fill:#626e3d;}.cls-51{fill:#4e5b42;}.cls-52{fill:#272e1f;}.cls-53{fill:#958a71;}.cls-54{fill:#626b42;}.cls-55{fill:#2a381c;}.cls-56{fill:#abacac;}.cls-57{fill:#afadab;}.cls-58{fill:#83843a;}.cls-59{fill:#838049;}.cls-60{fill:#686d56;}.cls-61{fill:#43180f;}.cls-62{fill:#723113;}.cls-63{fill:#766c59;}.cls-64{fill:#90481e;}.cls-65{fill:#461a0c;}.cls-66{fill:#6e3b1e;}.cls-67{fill:#33110e;}.cls-68{fill:#b6b6b9;}.cls-69{fill:#bebaac;}.cls-70{fill:#8d491d;}.cls-71{fill:#a9b282;}.cls-72{fill:#c6c89c;}.cls-73{fill:#74792d;}.cls-74{fill:#d4cfcd;}.cls-75{fill:#e1e1f1;}.cls-76{fill:#e4e2e1;}.cls-77{fill:#6c7c63;}.cls-78{fill:#6e6a36;}.cls-79{fill:#38110d;}.cls-80{fill:#7c3e17;}.cls-81{fill:#491b11;}.cls-82{fill:#8d9788;}.cls-83{fill:#753e13;}.cls-84{fill:#3b150b;}.cls-85{fill:#b4bc8b;}.cls-86{fill:#968a6d;}.cls-87{fill:#b6be8f;}.cls-88{fill:#8a9988;}.cls-89{fill:#fff;}.cls-90{clip-path:url(#clip-path-2);}.cls-91{opacity:0.75;}.cls-92{fill:#a47b55;}.cls-93{fill:#935c42;}</style><clipPath id="clip-path"><rect class="cls-1" x="-0.28" width="411.59" height="368.5"/></clipPath><clipPath id="clip-path-2"><rect class="cls-1" x="447.02" y="1.12" width="411.59" height="368.5"/></clipPath></defs><title>flower sketch demo</title><g id="光箱"><g class="cls-2"><path class="cls-3" d="M306.4,41.19c1.69,1,3,.87,4.8-.38,2.51-1.72,5.58-2.64,8.38-4a46.22,46.22,0,0,0,12.92-9.11c7.29-7.15,12.47-16,19.54-23.39a5.19,5.19,0,0,0,1.74-3.16L354,.83c.63-.36,1.26-.9,1.88,0,.27,1.24-.46,2.12-1.09,3.05a207.55,207.55,0,0,1-14.75,19.77c-1.12,1.29-1.91,2.52.33,3.47A3.25,3.25,0,0,1,339,30.06c-4.46,4.07-9.12,7.91-13.87,11.63-1.69,1.33-4.47,3-3.77,4.66s4,1.17,6.16,1.32a4.44,4.44,0,0,0,2.61-.82c4.93-3.11,10.28-5.47,15.26-8.53s10.7-4,16.16-5.65c5.14-1.61,10.08-3.86,15.32-5.23a8.17,8.17,0,0,0,2.65-1.54c2.35-1.73,2.4-2.67.52-5-6.05-7.49-5.38-11-1.81-18.55,1.36-2.86,3.15-5.51,4.76-8.24C389-16,395.54-18,406.16-13a31.13,31.13,0,0,1,6.73,7.34c.09.19.09.43.2.58,5,6.54-.17,11.65-2.56,17.05a11.63,11.63,0,0,1-5,5.28,11.45,11.45,0,0,0-4,4.15A32.28,32.28,0,0,1,387,34.64c-3.27,1.47-3.21,1.71-1.22,4.72L387,40.59a1.12,1.12,0,0,1,.24,1.18,1.31,1.31,0,0,1-.73.39C385,42.08,384.24,40.63,383,40a5,5,0,0,1-.69-.52,4.93,4.93,0,0,1-1-1.39c-1.08-2.35-.13-4,2-5,3-1.41,5.47-3.58,8.49-4.91,2.43-1.07,3.83-3.28,5.34-5.37,3.56-5,6-10.46,8.25-16.06,1.18-2.94,2.94-5.64,3.71-8.75.18-.75,1-2-.8-1.91-2.15.08-2.33-1.19-2.05-2.81.16-.88.4-1.74-1-1.37a6,6,0,0,1-4.13-.76,13,13,0,0,0-4.65-1.45c-4.1-.28-7.44.66-9.29,4.84-.83,1.86-2,3.58-2.8,5.45-2.56,5.65-1.56,9.59,3.47,13.23,1.33,1,2.82,1.71,3.34,3.44-.39,5.58-4,8.92-8.38,11.49a21.75,21.75,0,0,1-10.61,3.43,4.49,4.49,0,0,0-2.53.94c-.16.12-.34.23-.49.36-.67.59-1.87.88-1.78,1.93s1.34,1.06,2.16,1.41c3.24,1.37,6.07,3.07,7.92,6.38,2.86,5.1,1.88,9.82-.57,14.59a3.89,3.89,0,0,1-1.82,1.6c-4,2-6,5.66-7.87,9.42-.66,1-1.17,2.18-2.36,2.75a.94.94,0,0,1-.8-.33c.5-5.11,3.53-8.88,7-12.1a9.66,9.66,0,0,0,3.06-10.21c-.83-3.35-4.6-6.53-8.41-5.95-4.67.71-9.87,1.15-13.21,5.41a11.9,11.9,0,0,1-5.34,3.92c-2.45.94-2.67,1.72-1.16,3.85,1.76,2.48,4.11,4.58,4.81,7.73a26.74,26.74,0,0,1,0,5.06c-.13,1.46-.7,2.53-2.49,2a5.05,5.05,0,0,1-2.9-4.87c2.28-1.51,1.74-3.31.57-5.23a13.41,13.41,0,0,0-5.12-4.66c-.7-.39-1.61-.79-2.28-.13-.84.82,0,1.46.52,2.06s1.07,1.26.6,2.17c-1.86.63-2.84-.8-3.9-1.8-1.31-1.25-2.57-1.55-4.07-.45-2,1.46-4.46,2-6.59,3.26-1.3.76-1.52,1.45-.15,2.48s3.31,2,2.17,3.74c-.87,1.33-2.79.3-4.2-.25a4.37,4.37,0,0,0-2.45-2.55c-3.67-1.12-7.12-2.85-11.3-4.35.85,2,2.24,2.53,3.42,3.32.84.56,2.19.83,1.54,2.37-3.26.1-6.61.52-9-2.5-.77-1-2.1-.71-3.08-1.25-.56-1.35.6-1.79,1.31-2.43a13.71,13.71,0,0,0,3.05-16.09C306.17,42.5,305.76,41.87,306.4,41.19Z"/><path class="cls-4" d="M155.63,227.69c-.21-6.11-.22-6.13-6.09-4.08a11.76,11.76,0,0,1-5.64,1c-.05-1.46,1.2-1.47,2.08-1.71A85.52,85.52,0,0,0,157.42,219c3.09-.89,5.65-2.85,8.51-4.19.81-.38,1.77-1,1.6-2.05-.2-1.25-1.4-1.42-2.42-1.45-2.45-.07-4.92-.55-7.36-.11-6,1.09-10.27-1.64-13.82-6-5.11-6.27-10.11-12.61-13.31-20.16-1.1-2.6-1.26-5.61-3.47-7.74-.51-.49-.24-1.38-.06-2.08a2.85,2.85,0,0,0-.87-3.08c-2.8-2.36-3.36-5.56-3.24-8.9.08-2.21-.92-3.08-2.87-3-3.4.11-6.73-.52-10.1-.7-1.49-.08-3-.25-3.5-1.93a3.81,3.81,0,0,1,1.36-4.13,19.69,19.69,0,0,0,2.93-2.69c.47-.65,1.19-1.34.66-2.19s-1.29-.33-2-.25c-1.08.11-2.17.81-3.22-.09,1.3-1.74,3.27-2.57,5.06-3.63,2.2-2.66,5.61-3.17,8.43-4.7a67.07,67.07,0,0,1,10.12-4.43c-1-1.1-2.88-1.61-2.88-3.56,0-2.84-.46-5.7.43-8.52a3.78,3.78,0,0,0-1-3.42,25.88,25.88,0,0,1-2.89-4.71c-1.17-2.57-.36-3.78,2.44-4.13,4.66-.57,9,.93,13.21,2.35,8.7,3,17.46,4.28,26.57,2.82a5,5,0,0,1,2.72.33,4.26,4.26,0,0,1,.88.44c.53.52,1.55.82.88,1.89-9,1.24-17.61,4.65-26.82,4.54-.31,0-.7-.1-.91.07-2.82,2.3-5.58,4.67-8.19,7.21a1.21,1.21,0,0,0,.2,1.68,1.87,1.87,0,0,0,2.29.22,49.16,49.16,0,0,1,6.62-2.45,4.72,4.72,0,0,1,2.09-.4c1.65.2,2.19,1.05,1.3,2.52a9.27,9.27,0,0,1-2.91,2.7c-6,4-12.55,6.89-18.81,10.36-.54.3-1.16.43-1.68.77-.88.59-1.68,1.32-1.53,2.47a2.13,2.13,0,0,0,2.23,1.77c3.9.14,6.43,3,9.52,4.69a2.78,2.78,0,0,1,1.14,3.76,3.65,3.65,0,0,1-.85,1.62c-5.48,4.31-2.3,9.45-.41,13.54a27.92,27.92,0,0,1,3,11,11,11,0,0,0,4.39,8.71c3.86,3.19,8.33,5.59,11.93,9.15a2.45,2.45,0,0,0,1.95.8c4.55-.82,9.19,1,13.7-.45,3.26-1,6.68-1,10-1.55a5.53,5.53,0,0,1,2.73.24c2.56.84,3.12,2.69,1.26,4.62a27.84,27.84,0,0,1-4.63,4,2,2,0,0,0-1.16,2.27c3.16-1.55,4.84-4.5,7.45-6.22s6-2.18,8.57-4.06a17.56,17.56,0,0,1,4.9-2.49,18.65,18.65,0,0,0,8.76-6c2-2.61,4.81-4.44,7.22-6.65,1.69-1.55,3.21-.77,3.58,1.62.29,1.91,0,3.85.24,5.86.73-3.74,2.93-6.89,3.83-10.52.33-1.33.59-2.62,2-3.18a1.69,1.69,0,0,1,1.59.92,6.19,6.19,0,0,1-.15,4.48c-1.38,4.36-2.42,8.82-5,12.73-1.51,2.26-1.15,5.15-2,7.67a15.26,15.26,0,0,0-.54,2.69c-.18,1.12-.4,2.46-1.71,2.63-1.6.2-1.79-1.37-2.28-2.44a4.78,4.78,0,0,1-.35-1.17,3,3,0,0,0-2.55-2.67,3.69,3.69,0,0,0-4.05,1.46,36.48,36.48,0,0,1-4.34,5.13c-3.3,3.17-7.69,4.18-11.53,6.25-2.13,1.14-3.17.11-2.85-2.42.08-.58.51-1.15-.08-1.9a7.15,7.15,0,0,0-5,3.93,25.09,25.09,0,0,1-1.27,2.79c-1.17,1.85-2.2,2-3.4.09a6.1,6.1,0,0,0-7.26-2.61c-5.37,1.59-10.54,3.86-14.12,8.55A.81.81,0,0,1,155.63,227.69Z"/><path class="cls-5" d="M63.24,197.49c.5-3.33,3.1-5.6,4.35-8.55a9.87,9.87,0,0,1,1.81-4.34h0a3.85,3.85,0,0,0,1.36-2c2.6-5.68,7.29-9.8,11-14.7a31.81,31.81,0,0,1,8.39-8.17c2.2-1.41,3.58-3.85,5.83-5.27,3.74-1.57,6.41-4.92,10.32-6.22,1.48-.36,2.95-.75,4.44-1.09a1.78,1.78,0,0,1,2.14.76c.44.74,0,1.33-.36,2a10.92,10.92,0,0,1-3.58,3.7c-1.36.82-2.37,2.06-1.82,3.85s2.11,1.21,3.37,1.32c3.55.3,7.09.68,10.67.71,1.91,0,3.2.78,2.73,3.57s-.22,5.91,2.47,8c1.59,1.25,3,2.66,1.32,4.88a1,1,0,0,0,.14,1.4c3.57,3.68,3.81,9,6.4,13.14a44.74,44.74,0,0,0,3.84,5.89c3.63,4.22,6.63,9,10.92,12.65,2.88,2.46,6.28,1.39,9.44,1.29,2.65-.08,5.25.32,7.88.24a3,3,0,0,1,2.66,1.8c.49,1.17-.64,1.94-1.44,2.43-3.19,1.95-6.37,4-10,4.9-.51-1.23,1.22-1.52,1.11-2.75a33.44,33.44,0,0,0-8.81-.19c-4.64.69-6.72-2.5-9-5.14a46.35,46.35,0,0,1-8.17-14.87c-1.24-3.43-2.14-7-5.38-9.38-1-.69-1.11-2.17-1.2-3.41-.11-1.58-.41-3-1.83-4a1.86,1.86,0,0,1-.47-2.5c1.14-2.46-.52-3.09-2.34-3.53a21.41,21.41,0,0,0-4.6-.21c-4.06-.12-5.72-2.55-4.3-6.3.32-.83,1.22-1.76.36-2.51-1.11-1-1.81.32-2.53.93a5.23,5.23,0,0,1-2.75,1.26,32.56,32.56,0,0,0-16.92,8.08c-2.48,2.13-5.47,3.59-8.07,5.6A1.91,1.91,0,0,1,80,181c-1-.86-.49-1.88.09-2.78,1.86-2.9,4-5.66,5.09-8.95-9.12,7.68-14.79,17.63-18.56,28.8a5.36,5.36,0,0,1-1.84,1C62.76,200,62.76,199,63.24,197.49Z"/><path class="cls-6" d="M114.86,123.73l-1.8-.66-10.46-8c-1.45-2.36-3.8-3.87-5.66-5.84C91.74,103.72,86.47,98.32,82.22,92c-5.08-7.5-8.09-15.51-6-24.76a3.34,3.34,0,0,1,1.09-2.13c2.39-.69,2.85.87,3,2.65.42,6.08,1.87,12,6.18,16.34,6.43,6.46,10.55,14.89,18,20.43a22,22,0,0,1,3.85,4.37c3.08,3.95,6.15,7.91,9,12.07.66,1,1.15,2.11.31,3.12C116.6,125.29,115.76,123.94,114.86,123.73Z"/><path class="cls-7" d="M63.24,197.49c.3.41-.36,2.4,1.12.8.78-.83,1.31-.48,2-.22,1.14,1.81,0,2.86-1.35,3.71-3.25,2.09-6.17,4.37-6.13,8.74-2.29-1.58-1.74-4-1.87-6.24.68-1.84,3-1.82,3.93-3.44.53-.91,1.71-1.42,1.67-2.7Z"/><path class="cls-8" d="M284.18,307.07c-4.2,4.53-8.32,9.13-12.63,13.54-3.36,3.43-6.94,6.64-10.48,9.88-1.84,1.68-2.75,3.44-2.22,6.11s.35,5.46,1.45,8c.73,1.34.24,3,1.21,4.3.41.95.68,2,1.72,2.5.35,1.27.67,2.56,1.08,3.82.82,2.52-.62,4.28-2.31,5.52s-3.43.5-4.89-1c-1.75-1.83-3.67-3.51-5.51-5.26-2.26-.53-2.54-3.38-4.71-4-.86.59-1.51,1.76-2.84,1a2.25,2.25,0,0,1-.44-1.24,3.08,3.08,0,0,1,.25-1.34c2.84-3.29,5-3.05,6.85.8a15,15,0,0,0,1.25,2.09c1.54,2.67,4.31,4,6.42,6.1a2,2,0,0,0,2.79,0c1.31-.91,1.71-2,.89-3.39a6.89,6.89,0,0,1-.49-.71c-.71-1.13-.79-2.49-1.36-3.68a81.51,81.51,0,0,1-3.45-12.36c-.76-4.29.35-7.85,3.91-10.55a108.84,108.84,0,0,0,16.39-15.58c3.81-3.63,6.64-8,9.7-12.26A225.58,225.58,0,0,0,301,276.73a261.31,261.31,0,0,0,12.94-27.51c2.93-7.1,5.53-14.31,8.13-21.52,4-11.16,8.09-22.32,11.31-33.76,2-7.1,4.78-13.94,7.16-20.92,4.67-13.76,10.37-27.16,15.66-40.7a215.6,215.6,0,0,1,9.37-21c4.14-8,8.11-16.09,12.42-24a14.84,14.84,0,0,1,1.85-3.18c.53-.43,1.06-.8,1.78-.42a1.48,1.48,0,0,1-.16,1.83c-1.58,2-2.18,4.63-3.47,6.78-4.79,8-8,16.67-12.46,24.78-3.13,5.69-5.37,11.89-7.81,17.94-3.15,7.84-5.71,15.95-9.26,23.6s-6.07,15.87-8.88,23.87c-3.95,11.23-7.34,22.66-11.12,34-2.17,6.47-4.65,12.84-7,19.26q-3.25,8.91-6.49,17.81A83.23,83.23,0,0,1,310.08,264c-1.44,1.4-1.58,3.44-2.51,5.11-3.12,5.64-6.14,11.33-9.2,17-.53,1.79-2,2.93-3.09,4.31a1.22,1.22,0,0,0-.61,1.21c-1,1.67-2.07,3.28-3.05,5C289.27,300.2,285.88,303,284.18,307.07Z"/><path class="cls-9" d="M310.08,264c1.36-3.64,2.5-7.38,4.91-10.53a6.77,6.77,0,0,1-1.56,5.1,16.53,16.53,0,0,0-2.68,6.42,4.48,4.48,0,0,1-1.28,2.68C309.67,266.47,309.88,265.25,310.08,264Z"/><path class="cls-10" d="M295.28,290.46c.4-1.89,1.87-3,3.09-4.31A4.08,4.08,0,0,1,295.28,290.46Z"/><path class="cls-10" d="M291.62,296.63a9.32,9.32,0,0,1,3.05-5A8.51,8.51,0,0,1,291.62,296.63Z"/><path class="cls-11" d="M381.52,83.66l-1.21.61a1.24,1.24,0,0,1-.37-1.26,40.43,40.43,0,0,0,2.5-5.91c3.91-5,3.95-10.95,4.36-16.83a6.78,6.78,0,0,1,.63-3.32c1.44-4.42.43-8.41-2.11-12.12-.91-1.33-2.24-2.41-2.48-4.14a1.86,1.86,0,0,1,.48-1.33l3.05,2.49c1,1.34,1.59,2.91,2.47,4.32l.65.56c1.38,4.72,1,9.44,0,14.15h0c.27,7.68-2.31,14.54-6.07,21.07C383,82.7,382.71,83.71,381.52,83.66Z"/><path class="cls-12" d="M381.52,83.66a43.68,43.68,0,0,0,7.31-21.16c0-.62.05-1.23.64-1.62.23.67.46,1.34.7,2,1.06,2.91,1.79,5.5-.54,8.53-2.19,2.84-3.49,6.43-4.93,9.79a10.51,10.51,0,0,1-3.24,4.29Z"/><path class="cls-12" d="M389.47,60.88c-.09-4.72.8-9.43,0-14.15A17.8,17.8,0,0,1,389.47,60.88Z"/><path class="cls-13" d="M388.84,46.17c-2.06-1.83-2.33-2.29-2.47-4.32l.65,0c.92.86,1,2.2,1.82,3.12Z"/><path class="cls-14" d="M388.84,44.93A4.14,4.14,0,0,1,387,41.81l0-1.22C388.31,41.74,388.46,43.38,388.84,44.93Z"/><path class="cls-15" d="M114.86,123.73c.79-.4,1.82,1.1,2.43-.2.45-1-.3-1.69-.87-2.45-3.7-4.84-7.31-9.77-11.06-14.57-.93-1.18-2.35-2-3.45-3-2.65-2.56-5.47-5-7.15-8.36-1.78-3.59-5.15-5.72-7.61-8.67-4.66-5.59-7.66-11.83-7.5-19.32,0-1.33-1.13-1.83-2.33-2-.06-.8-.08-1.61-.2-2.4-.53-3.63,1.17-5,4.79-3.81-.22.75-1.23.48-1.57,1.2,1.82.32,3.92-.29,5.16,1.66a7.24,7.24,0,0,0,3.3,2.67,103.83,103.83,0,0,1,17.07,9c6.72,4.28,13.76,8,20.38,12.46,5.35,3.59,7.28,9.29,8.94,14.94a14.76,14.76,0,0,0,3,6.2,23.9,23.9,0,0,0,10.69,6.32c1.74.55,2.9-.26,4.2-1.65,3.42-3.67,3.89-7.3,1.64-11.84-1.22-2.46-2.94-4.59-4-7.15-.47-1.18-1.87-1.47-3.17-1.55-1.09-.07-2.28.14-3.18-.78.56-2,2.38-1.58,3.53-1.34,4.34.87,7.92-1.29,11.74-2.54.57-.19,1.35-.39,1.32-1.09-.15-3.5,2.46-3,4.58-3.28,3.77,1.83,5.35,4.79,4.88,9A20.17,20.17,0,0,0,171.52,99c1.16,4.06,1.41,8.22,2.14,12.32a26.22,26.22,0,0,0,2.32,6c.45,1,1.2,1.94.76,3.16-.69.79-1.43.46-2.17.09-1.75-1.13-3.59-2.07-5.44-3h0c-5.48-3.89-6-5.22-4.46-11.93a3.26,3.26,0,0,0,.14-.6c-.21-4.62-.53-9.25,1.58-13.63a1.34,1.34,0,0,0-.57-1.86c-.81-.29-1.31.48-1.7,1-3.37,4.82-6,9.76-3.8,16,1.27,3.58,1,3.92-2.29,6.2a2.88,2.88,0,0,0-.93.79c-2,3.78-5.1,3.81-8.67,2.58a31.78,31.78,0,0,1-4.64-1.61c-9.39-5-19.79-7.5-29.28-12.23-1.4-.7-3.26-1.89-4.52-.35s.16,3.47,1.28,4.59c3.27,3.3,5.3,7.54,8.56,10.83,2.18,2.2,2.72,5.26,3.59,8.06.63,2.05-.44,2.84-3,2.61C118.21,127.08,116.55,125.38,114.86,123.73Z"/><path class="cls-6" d="M84.81,62.12c-.83-1.85-2.44-.8-3.71-1.06-.9-.18-2.52.25-2.54-1S80.1,59.2,81,59c.3-.06.61-.06.91-.09a9.13,9.13,0,0,1,4.85,2.14A30.61,30.61,0,0,0,97.08,66a13.78,13.78,0,0,1,6.75,3.07,18.4,18.4,0,0,0,3.84,2.39,13.6,13.6,0,0,1,3.43,1.91c6.52,4.34,13.16,8.42,20.57,11.22,2.71,1,4.8,3.37,7.47,4.66a13.31,13.31,0,0,0,2.78,1.37c4,2.91,7.66,13.62,6.25,18.08-.54,1.7-1.68,2.17-3.34,1.73-4.69-1.26-8.88-7.94-7.8-12.61a4.28,4.28,0,0,0-.66-3.77,21.59,21.59,0,0,0-6.91-6.44c-8.52-4.65-16.8-9.67-25.1-14.69A94.91,94.91,0,0,0,89.47,65,17.78,17.78,0,0,1,84.81,62.12Z"/><path class="cls-16" d="M210,100.35c.35-.2.69-.41,1-.62,3.93-1.25,7.17-3.78,10.71-5.74,4.34-2.41,8.48-5.17,12.71-7.79,5.34-3.43,10.23-7.54,15.93-10.43a1.83,1.83,0,0,1,1.26.35c.35,1.75-1.17,2.25-2.15,3C245.07,82.3,240.31,85,235.81,88c-6.45,4.32-12.71,8.94-20.11,11.62,6.49-1.12,12.14-4.18,17.48-7.76,4.93-3.31,10-6.46,15-9.59a116.41,116.41,0,0,0,17.19-12.88c1.57-1.43,3.21-3,3.11-5.41.48-2,2.21-3.07,3.57-4.4a3.9,3.9,0,0,1,.74-.48c1.87-.88,3.37-2.48,5.89-1.91,1.39.32,2.47-1.28,3.39-2.37a48.21,48.21,0,0,1,4.09-4.59c.83-.77,1.65-1.76,2.76-1.88A19.65,19.65,0,0,0,297.07,45c1.79-1.13,3.07-.27,3.13,2.1,0,1.82.37,2.78,2.44,3s1.92,1.88,1.1,3.3a33.82,33.82,0,0,1-6.15,8c-.52.49-1.36.84-1.53,1.47-1.57,5.79-7.23,8.15-10.66,12.37a153.09,153.09,0,0,1-10.89,12.4,7.34,7.34,0,0,1-.56.69c-.68.46-1.21,1.48-2.26.63-.46-1.92,1-3,1.92-4.29,6.46-8.88,14.08-16.74,21.69-24.61.61-.63,1.5-1.12,1.55-2.44-2.28.56-3.83.21-4.35-2.56-.38-2.05-2.08-1.23-3.1-.33-1.84,1.62-3.79,3.13-5.59,4.8a6.54,6.54,0,0,1-2.42,1.86c-5.17,1.37-8.66,5.32-12.31,8.66a220.6,220.6,0,0,1-17.93,14.82,9.14,9.14,0,0,0-2,2.29,5.15,5.15,0,0,1-1.47,1.54c-6.88,4.32-12.59,10.29-19.9,14-2.58,1.31-5.74,1.8-7.34,4.69-2,1.46-4,2.75-5.33,4.93-.8,1.34-2,1.51-3.46,1-3.91-1.49-7.81-1.9-11.87-.32a6.11,6.11,0,0,1-5.33-.27c-.25-1.71,1.07-1.22,1.89-1.5-5.1,1.26-10.34,1.83-15.52,2.78a3.1,3.1,0,0,1-2.34-2.14c-.48-2.28.83-3.29,2.71-4.09,4.2-1.8,8.58-1.2,12.92-1.22,4.49,0,8.81,1.61,13.8,1.37-1.63-.65-2.86-1.18-1.62-2.66-2.42,0-4.36,3.33-7,.7.45-2.23,2.64-2.26,4.11-2.9C205.51,102.15,207.75,101.27,210,100.35Z"/><path class="cls-17" d="M250.33,76.23c-4.4,2.88-8.81,5.75-13.2,8.65a6.48,6.48,0,0,1-2.71,1.32c3.44-3.83,8-6.23,12.14-9.06,5.78-3.94,11.47-8,17.19-12,9.53-6.7,17.07-15.77,26.69-22.26,4.7-3.17,10.31-4.23,16-1.66,2.07,2.88,2.48,6,2.17,9.55-.42,4.87-3,8-6.47,10.76-.3,2.52-2.34,3.83-4,5.22a215.37,215.37,0,0,0-26.2,27c-.27.34-.52.69-.77,1-.84,1.15-1.66,2.32-2.53,3.45-.73.95-1.45,2-3,1.49-.65-1.52.49-2.43,1.27-3.38,1-1.16,1.75-2.42,2.68-3.59,1.29-1.66,2.89-3.06,4.2-4.72h0c4.41-4.77,8.35-10,13.18-14.35,3.42-3.07,6.56-6.4,9.81-9.62,3.59-3.56,7.86-6.63,9-12a14,14,0,0,0,.36-4.86c-.36-2.72-2-3.72-4.68-4.23-6-1.16-10.41,1.84-14.73,5.25-4,3.16-7.84,6.54-11.67,9.93a8,8,0,0,1-2.57,1.56h0a113.78,113.78,0,0,1-14.7,11.83A64.37,64.37,0,0,1,250.33,76.23Z"/><path class="cls-18" d="M316.9,65.78a13,13,0,0,0-8.4,6.58c-1.27,2.34-.74,3.4,1.22,4.72,2.37,1.6,5.17,2.2,7.55,3.89a23.21,23.21,0,0,1,8.3,11.39,22.36,22.36,0,0,0,1.23,3.13c2,3.6,4.14,3.65,6.7.51s6.19-4.56,9.13-7a.47.47,0,0,1,.28-.12c1.78-.08,3.72.89,4.88-1.68,1.62-3.59,3.06-7.12,2.12-11.14-.51-2.18-1.11-4.34-1.67-6.5,1.17.62,1.89.49,1.85-1.07,0-1.9,0-3.8,0-5.7,1.62-.17,1.8,1.09,2,2.15.49,3.63,1.33,7.21,1.33,10.89a16.31,16.31,0,0,0,.75,4.8c1,3.2.94,3.21,3.78,1.71,1.15,1,.32,2,.11,3.07a11.39,11.39,0,0,1-1.4,2.41c-.45.55-.82,1.17-1.22,1.76-1.62,2.36-2.13,2.47-4.06.29-1-1.08-1.47-.75-2.12.11-.5.65-.8,1.43-1.26,2.11-2.6,3.82-5.27,7.45-10,9.12a33.25,33.25,0,0,0-8,4.57c-2.37,1.69-3.28,1.28-4.09-1.44s-1.12-5.38-2.21-7.91c-2.28-4.7-4.76-9.24-9.22-12.3a19.65,19.65,0,0,0-7-3,6.71,6.71,0,0,1-4.8-3.48c-1.1-2-2.68-2.32-3.74-.46-2.44,4.29-7,7-8.47,12-1.15,3.92,2.84,11.29,6.89,11.81a6.16,6.16,0,0,0,2.95-.69c2.89-1,5.76-2.13,8.92-2a5.35,5.35,0,0,1,4.18,1.54,14.32,14.32,0,0,1,2.14,4c.29,1.1,1.7,2,.56,3.36a2.67,2.67,0,0,1-2.35-1.23c-2-2.57-4.46-2.45-7.16-1.62a28,28,0,0,1-4.09,1.26c-2.36.35-4.57,2-7.11.76-4.06-2-8.21-3.75-10.36-8.13-.45-.92-1.08-1.74-1.56-2.64-1.07-2-2.61-2.61-4.84-2-2.43.7-4.93,1.39-7.36-.13A178.59,178.59,0,0,1,296.81,67a67.32,67.32,0,0,0,5.29-5.51c1,0,2.24-1.09,2.85,0,2.19,3.93,6.24,2.68,9.48,3.67C315.46,64.53,316.4,64.26,316.9,65.78Z"/><path class="cls-13" d="M390.72,16.58c1.87.67,3.18-.69,3.8-1.8,4-7,9-13.52,10.88-21.61a11.11,11.11,0,0,0,.09-1.83c.46-.6,1-1.16,1.78-.76s.09,1.08.06,1.64c-.06,1.42-2.56,4.71,2.06,2.59,1.19-.54,1.12,1,.94,1.59a44.61,44.61,0,0,1-2,5.77c-2,4.67-4.1,9.34-6.34,13.92-2.05,4.2-4.28,8.47-7.94,11.41-3,2.45-6.72,4.12-10.19,6-2,1.09-3.08,2.34-1.8,4.62-.84.69-1.6.22-2.16-.34-3-3-6-6-10.75-5.83a3.41,3.41,0,0,1,2.68-1.22c6.22-.15,11.23-3.09,15.6-7.14C389.36,21.82,390,19.1,390.72,16.58Z"/><path class="cls-19" d="M356.24,87.35l1.21-1.89c1.92-5.18,5-9.8,7.41-14.73.52-.88.74-2,1.81-2.47,1.09-3,3.85-4.88,5.42-7.61.87-1.51,3.11-1.26,4.72-1.81a.92.92,0,0,1,.7.5c1.72,5.44-2.36,7.69-5.87,9.75a16.8,16.8,0,0,0-6.81,6.79c-3.87,7.39-7.44,14.93-11.37,22.29a7.86,7.86,0,0,0-.4,1.48c-1.34,4.46-4.52,7.94-6.34,12.18C341.94,123,335.46,133.27,329.81,144a11.32,11.32,0,0,0-2.57,4.74,5.77,5.77,0,0,1-.34.81c-4.9,7.52-8.88,15.6-13.84,23.1-2.14,3.23-3.49,6.93-5.9,10-.73.94-1.1,2.27-2.7,2a1.82,1.82,0,0,1-.44-1.26c.68-4.52,4.38-7.38,6.2-11.26,3.44-7.86,8.9-14.56,12.65-22.24.12-.25.26-.5.4-.75.78-1.8,2.25-3.2,2.92-5.07,4.16-9.06,9.43-17.54,13.62-26.59a6.24,6.24,0,0,1,.58-.69c2.91-2.76,3.71-6.72,5.65-10C349.72,100.46,352.76,93.79,356.24,87.35Z"/><path class="cls-20" d="M358.09-4.35l3.08-4.93c.92-1.16,1.59-2.5,2.45-3.7l1.21-1.86c.93-.53,1.08-2,2.63-2.17.1,2.17-1.11,3.78-1.84,5.44a147.2,147.2,0,0,1-15.81,27.85c-2.83,3.86-6.36,7.19-9.57,10.76-.76-.2-1.65,1-2.22,0-.68-1.12,0-2.29.77-3.06,3.76-3.9,6.78-8.39,10-12.7,2.53-3.39,5.15-6.79,6.84-10.75C355.74-1.43,357.79-2.46,358.09-4.35Z"/><path class="cls-11" d="M377.16,59c-.94.56-1.75,1.41-3,1.27a1.88,1.88,0,0,0-2,1.14c-1,2.93-3.79,4.43-5.46,6.82a15,15,0,0,1,6.4-9.19c4.14-3,6.75-8.68,5-13.38A13.57,13.57,0,0,0,369.77,37c-1.43-.5-3.61-.55-3.86-1.92-.33-1.81,2.15-2.05,3.26-3.15,4.18-1.35,6.92.95,9.56,3.68,1,1,1.71,2.37,3.35,2.49l.68,1.2c-1.2.87-1.34,1.82-1,3.37A18.16,18.16,0,0,1,377.16,59Z"/><path class="cls-21" d="M345.79,65.18a20.88,20.88,0,0,0-6.15-5.54c0-1.08-.79-1.56-1.59-2.06a1.8,1.8,0,0,1-.68-2.43c.44-1,1.37-1.09,2.35-.93,3.25.54,8,5.66,8.39,9C348.3,65,347.15,65.2,345.79,65.18Z"/><path class="cls-22" d="M317.3,54a17.32,17.32,0,0,0-2.17-.4c-1.11-.06-2.66,1.54-3.13-.76-.27-1.29,2.9-4.48,4.22-4.11a25,25,0,0,0,5.43.45,2.38,2.38,0,0,1,2.5,2.19c.15,1.66-1.21,2-2.44,2.06A14.24,14.24,0,0,0,317.3,54Z"/><path class="cls-17" d="M316.9,65.78c-.68-.82-1.63-.51-2.47-.61-1.31-1.65-3.6-1.83-5-3.37-.71-.79-1.65-1.63-1-2.65.82-1.34,1.55.19,2.26.45,3.79,1.38,7.52,2.93,11.31,4.31,1.42.51,1.82,1.18,1,2.48Z"/><path class="cls-19" d="M377.16,59c1-3.64,3.95-6.5,4-10.65,0-2.23.51-4.34-.51-6.5s-.32-3.14,2.12-2.56a5.09,5.09,0,0,1,.56,0v1.23c-.69,3.42.48,6.9-.45,10.34-.64,2.38-1.05,4.82-2.86,6.66-.76.78-1.48,1.77-2.83,1.46Z"/><path class="cls-23" d="M364.86,70.73c-1.76,5.27-4.78,9.9-7.41,14.73.21-1,.42-2,.64-3l6.15-11.7Z"/><path class="cls-24" d="M358.09-4.35C358.3-2.2,356.61-1,355.63.56l-1.85.62Z"/><path class="cls-25" d="M58.89,210.52c-.57-3.59-.26-6.43,4-7.87,1.38-.47,3.92-1.86,3.45-4.58,0-.62-.23-1.36,0-1.83,2.64-4.66,3.75-10,6.72-14.55,2.73-4.21,6.7-7.32,9.41-11.49a7.44,7.44,0,0,1,1.87-1.53c.69-.54,1.42-1.77,2.27-1,1.08.92-.52,1.42-.82,2.16a41.06,41.06,0,0,1-5.63,9.39,1,1,0,0,0,0,1.39,1,1,0,0,0,1.39,0c2.6-2.33,5.88-3.73,8.49-6,5.13-4.45,10.77-7.59,17.64-8.25a3.65,3.65,0,0,0,2.63-1.86c.61-.86,1.6-1.74,2.86-.89s1.13,1.95.48,3.21c-2.25,4.36-1.14,6.11,3.77,6.12a24.11,24.11,0,0,1,4,.09c3.19.52,3.92,1.85,2.76,4.75-.23.57-.63,1.35.12,1.59,2.53.79,2.13,2.82,2.36,4.74.2,1.7.68,3.39,2.51,4.3a5.47,5.47,0,0,1,2.79,4.23c.67,4.47,2.81,8.55,4.83,12.22A34.21,34.21,0,0,0,146,215.77c1.3,1,2.58-.17,3.81,0,2.76.39,5.52.08,8.27.24.83.05,2.05-.47,2.3.84.19,1.05-1,1.11-1.6,1.59s-.87.83-1.3,1.24a46.25,46.25,0,0,1-10.79,3.78,4.57,4.57,0,0,0-2.74,1.14c-5.33,2.92-11.26,2.33-17,2.77a53,53,0,0,1-6.4-.27c-4.3-.26-8.61-.8-12.91.08-2.62-.66-5.4.51-8-.76-.7-.78-2.42.67-2.62-1.2,1.82-1.33,3.81-1.32,6-1.43,7.89-.38,15.77.63,23.63-.12,1.64-.16,3.28,0,4.9-.25,1.26-.18,2.63-.21,3.81-1.51a24.42,24.42,0,0,0-5.92-2c-2.42-.35-3.46-1.85-4.15-4s.67-3,2.1-3.88a2,2,0,0,0,.56-3.18c-2.26-3.07-2.2-6.74-2.67-10.24-.56-4.2-2-5.49-6.15-5.29-5.22.25-9.38,3.42-14.16,4.87-6.88,2.08-13,5.91-19.86,8.12a6.12,6.12,0,0,1-1.79.4c-1.17,0-2.44-.12-2.79-1.4s.71-2,1.65-2.29c4.54-1.64,8.44-4.52,12.91-6.39a111.32,111.32,0,0,0,19.71-10.42c-3,1-5.9,2.37-8.88,3.45-1.54.55-3.54,2.22-4.54,0-.84-1.85,1.53-2.53,2.9-3.29,3.84-2.12,8-3.64,12-6.85-5.17.49-9.85.89-13.86,3.19-5.6,3.2-11.69,4.93-17.72,6.84a16.21,16.21,0,0,0-6.9,3.86A40.23,40.23,0,0,1,70,200c-3.49,2.1-4.61,6.26-8,8.4-1,.61-.21,1.44.45,2a20.12,20.12,0,0,0,2.66,1.53c.91.53,2.23.85,1.74,2.41A22,22,0,0,1,59,211.06,3.41,3.41,0,0,0,58.89,210.52Z"/><path class="cls-26" d="M155.63,227.69c1.82-3.86,5.49-5.52,8.93-7.39,1.32-.71,2.87-1,4.22-1.76,2.89-1.7,7.74-.4,9.6,2.42.31.49.38,1.36,1.07,1.32s1.16-.8,1.33-1.52a9.54,9.54,0,0,1,5.3-6.66c1-.49,2-.94,2.84-.26s-.25,1.43-.4,2.17-1,1.77-.28,2.56,1.79,0,2.44-.48c3.25-2.27,7.43-2.66,10.4-5.63a31.62,31.62,0,0,0,4.5-5.33c1.39-2.19,3.31-2,5.62-1.7s2,1.76,2.42,3.22c.34,1.16.27,3.29,1.74,3.15s1-2.13,1.22-3.39a3.49,3.49,0,0,1,.55-1c1.47,1.8.67,3.92.84,5.9.12,1.32-.05,2.66.18,4a29.71,29.71,0,0,0,.61,6.37,2.35,2.35,0,0,1-1,2.7c-1.22.52-1.76-.72-2.25-1.58a46.94,46.94,0,0,1-2.81-5.8c-.67-1.67-1.64-1.73-3.4-1.35-6.1,1.29-10.9,5.84-17.23,6.6-2.1.25-3.89,1.8-5.65,3-1.91,1.31-2.67,5.95-1.73,8.86,1.49,4.6,4.49,8.26,7.44,11.92,2.6,3.23,2.79,4.35.6,7.93a18.63,18.63,0,0,1-4.27,4.8,7.08,7.08,0,0,0-2.94,4.88c-.22,3.28-1.38,6.36-1.63,9.61a14.82,14.82,0,0,1-2.07,6.06c-1,1.71-.78,2.81.93,3.69-4,2.17-6.39,1.19-9.18-3.83a1.27,1.27,0,0,1,.42-1.37c1.16-1.13,2.56-2.11,1.63-4.13-1.14-2.49-2.34-4.93-5.48-5.14a35.88,35.88,0,0,1-8.41-1.45c-1.94-.61-3.26.67-4.51,2s-2.45,2.35-4.12.62c-1.18-2.1-1-4.39-.76-6.61.48-5.09,1.23-10.16,1.17-15.29a3.22,3.22,0,0,1,1-2.8l.56-1.35a.58.58,0,0,1,.83.1c.89,1.64.51,3.39.45,5.12,0,.58-.16,1.62.62,1.39,2.48-.76,3.81,1.18,5.47,2.15,4.32,2.54,7.23,0,8.15-3.37,1.67-6.09,4.14-12.06,4-18.55a17.11,17.11,0,0,1,.94-4.18c.69-3-.11-4.09-3-4.88-4.27-1.15-11.69,1.43-13.72,6.93-.46,1.27-.65,3.16-2.83,2.92-1-1.77-.67-3.6-.27-5.44Z"/><path class="cls-27" d="M182.71,284.94c-3.62-.13-3.54-.19-2-3.35a33.5,33.5,0,0,0,2.44-7.63c.77-3.48.55-7.21,2.08-10.51a7.12,7.12,0,0,1,2.59-3.31,12.73,12.73,0,0,0,2.7-2.49c3.76-4.35,3.71-5.52.14-10a67.71,67.71,0,0,1-4.74-6.76c-2.23-3.68-3.37-7.66-1.9-11.93,1.19-3.44,4.8-3.82,7.4-5.43,1-.61,2.4-.44,3.54-.84,2.54-.9,5.39-1.13,7.23-3.6a2.89,2.89,0,0,1,3-1.12,4,4,0,0,0,3.7-1c2.45-1.84,3.57-.75,4.52,1.63,1,2.55,2.28,5,3.45,7.5,1.78-1.12,1.23-2.5.86-3.79a6.37,6.37,0,0,1,0-4.45l.45-.06c1.3.93.69,2.57,1.39,3.72,1.57,6.46,4.93,12.07,8.48,17.57,3.21,5,8.16,7.87,13,11a41,41,0,0,0,14.19,5.51c3.26.68,5.7,2,6.9,5.18,0,1.74-1.61,1.78-2.56,2.48a24.66,24.66,0,0,0-2.69,1.85c-1.79,1.84-4.15,2.23-6.52,2.57-4.26,1.21-8.42,2.92-13,2.54a19.22,19.22,0,0,1-6.68,0c-2.42.17-4.69-.8-6.72-1.68-8.06-3.47-16.08-7.11-23.19-12.33-2.32-1.7-3.34-1.5-4.09,1.31a50.68,50.68,0,0,1-2.34,5.93c-1.46-.63-2.17.35-2.6,1.4-2.31,5.57-5.23,10.92-6.07,17l-1.08,1.85Z"/><path class="cls-28" d="M155.67,279.26a12.63,12.63,0,0,1-1.9-7.26c1.56.16,2.26-.88,3.16-1.93,1.5-1.74,3.25-2.92,5.83-1.64a15.23,15.23,0,0,0,6.82,1.15c3.44,0,7.61,4.31,7.45,7.59-.1,2.15-2.56,2.41-3.5,3.94-3.61,1-7.42.38-11.07,1.71C159.37,283.94,157.54,281.24,155.67,279.26Z"/><path class="cls-4" d="M155.61,227.73c.13,1.85-.42,3.77.62,5.52a1.6,1.6,0,0,1,.66,1.31c-.51,3.65.41,7.47-1.31,11H155c-.1-2,.17-4-.54-6,1.27-2.79.13-5.77.66-8.62C155.3,229.86,154.72,228.68,155.61,227.73Z"/><path class="cls-29" d="M185.71,281.84c-1.35-1.87.08-3.54.51-5.19,1.19-4.55,3.39-8.74,5.33-13,.38-.85,1.09-1.91,2.26-1.78.75.08.44,1,.57,1.56q-1.5,4-3,8C189.57,274.92,188.23,278.7,185.71,281.84Z"/><path class="cls-30" d="M66.91,214.29c-.71-2.13-3-1.81-4.46-2.92-2.35-1.83-2.58-2.72-.23-4.32a7.39,7.39,0,0,0,3.23-3.9c.5-1.51,2-2.24,3.28-3.1,3.62-2.47,6.65-5.64,10-8.37,4.17-3.37,9.68-3.57,14.42-5.64,3.16-1.39,6.32-2.7,9.42-4.24,2.71-1.35,5.83-2.87,9.22-2.25,1.22.23,2.07-.82,3.17-1,.89-.15,2.09-.46,2.5.53s-.76,1.43-1.49,1.91a119.5,119.5,0,0,1-12.36,6.65c-.93.47-2.31.91-1.8,2s1.84.32,2.69-.15c2.94-1.64,6.39-2.17,9.13-4.22.81-.61,1.93-.83,2.48.06.67,1.11-.28,1.92-1.23,2.35-4.74,2.13-9.25,4.72-13.89,7s-9.45,3.66-13.64,6.61a34.17,34.17,0,0,1-4.69,2.22c-.78.38-2,.76-1.55,1.81a2,2,0,0,0,2.48.67c3.14-1.23,6.4-2.08,9.41-3.65,7.27-3.8,15.18-6.07,22.69-9.3,2-.84,4-.25,6-.89,1.43-.46,4.08,3,4.29,5.23.38,4.06.47,8.17,3,11.7,1.15,1.6.66,2.95-1.12,3.69-1.16.48-2.74.93-2.1,2.36s.73,4,3.52,3.92c2.21-.1,4,1.42,6,1.92.49.12,1.41.31,1.23,1.06a2.08,2.08,0,0,1-1.25,1.23,20,20,0,0,1-4.7,1.2c-8.88.66-17.77-.2-26.67.17-2.38.1-4.67.43-7,.66-2.94,1.57-5.28-.54-7.85-1.25C81.27,221.83,74.1,218,66.91,214.29Z"/><path class="cls-31" d="M174.67,120l1.87.56a2.13,2.13,0,0,1,2.48.76c2.22,2.84,5.25,4.84,7.61,7.52.7.81,1.6,1.69.79,3a1.67,1.67,0,0,1-2.11-.76c-2.34-3-5.68-5-8.3-7.71a5.19,5.19,0,0,0-5.37-1.44c-7.2,2.1-13.08,6.53-18.89,11a3.73,3.73,0,0,0-1.28,3.62c.71,4.9-1.36,9.69-.54,14.59a3.2,3.2,0,0,1-1.41,2.91c-1,.87-2.14,1.57-3.07,2.53-4,1.73-6.55,5.36-10.27,7.42-1.76,1.23-.2,3-.66,4.4a8.53,8.53,0,0,0,2.91,5.79c2.78,2.47,3,5.54,1.29,9.44a8.16,8.16,0,0,0-.42,1.17c0,.7.22,1.37.22,2.07,0,3.14.56,4.21,3.82,4.85a68.31,68.31,0,0,1,10.83,3.17,8.57,8.57,0,0,1,2.25.94,9.75,9.75,0,0,0,8.63,1.92c2.09.94,3.72.53,4.87-1.56a6,6,0,0,1,4-3.05c3.61-.29,6.95-2.12,10.69-1.79a35.87,35.87,0,0,1,5.37.7c1.61.85,1.65,2.53,2.11,4-2.39,2.73-.66,4.88,1,7a2.39,2.39,0,0,1-1.84,1.5c-5.08,1.05-8.79,4.14-12.13,7.86a3.39,3.39,0,0,1-2.89,1.47c-.63-.09-.89-.77-.94-1.43-.11-1.45,1-1.91,2-2.4,2.09-1,3.27-3.07,5.13-4.36a1.35,1.35,0,0,0,.47-1.9,3.12,3.12,0,0,0-2.67-1.3,65,65,0,0,0-8.49.88c-3.58.72-7,2-10.8,1a6.91,6.91,0,0,0-4.24.27,4.05,4.05,0,0,1-4.29-.91,64.41,64.41,0,0,0-11-8.31c-5.22-3.36-6-8.66-6.14-14.13-.07-2.41-.65-4.59-2.44-6s-.48-3.45-1.58-5c-.74-1.07-.58-2.68-1.35-4-.65-1.1-.19-2.35.82-3.33a17.22,17.22,0,0,0,2.63-3c1.73-2.69,1.29-3.35-1.41-4.94-3-1.74-5.57-4-9.35-4a2.34,2.34,0,0,1-2-2.42,4.53,4.53,0,0,1,2.67-3.45,151.65,151.65,0,0,0,20.18-10.82c1.34-.88,3.59-2,2.94-3.36-.84-1.69-2.59.45-4,.55-2.17.14-3.85,1.32-5.7,2.14-1.24.55-2.36.74-3.24-.57s-.91-2.47.4-3.5c2.54-2,5.38-3.68,7.19-6.51a1.88,1.88,0,0,1,2-.6c5.15.77,10-.8,15-1.87,4.06-.88,8.05-2.17,12.28-1.9A6.55,6.55,0,0,1,174.67,120Z"/><path class="cls-32" d="M224.52,182.16l-1.22-.63c-2.22-5-2.27-10.42-2.68-15.75a23.29,23.29,0,0,0-.48-5.13c.11-2.8-.33-4.93-3.64-6.06-2.08-.71-4.39-2.2-5.07-4.86,2-.51,3.46-1.42,4.11-3.66.51-1.7,2.08-2.43,4-1.88a3.69,3.69,0,0,1,1.09.7c.15.13.36.26.42.43,1.43,4.72,5.72,5,9.48,6.16a5.28,5.28,0,0,1,.84.38c2.93,2.14,6.29,1.83,9.63,1.7,3.69-.22,7.32.47,11,.69,6.62.41,13-.78,19.43-1.85,1.25.09,2.55.16,2.85,1.75a3.33,3.33,0,0,1-1.47,3.19,16,16,0,0,1-8.8,4.08c-3.33.31-5.51,1.91-6.52,4.76-2,5.51-6.59,6.41-11.34,6.73a13.29,13.29,0,0,1-9-2.57c-2.13-1.61-4.5-2.86-6.49-4.66-1-.93-2.06-2.4-3.66-1.55-1.81,1-3.37,2.24-3.48,4.67a33.48,33.48,0,0,0,1.13,8.81c.19.9.24,1.82.44,2.73A2,2,0,0,1,224.52,182.16Z"/><path class="cls-33" d="M120.46,128c2,0,3.1-.93,2.23-2.85-1.46-3.19-2.67-6.38-5-9.28-3-3.66-6.43-7.13-8.61-11.44-.49-1-1.28-1.94-.3-3.1a2.93,2.93,0,0,1,3.62-.77c2.38.93,4.73,1.93,7.08,2.93,4.51,1.92,8.86,4.69,13.56,5.6,6.37,1.23,11.14,6,17.51,6.89,2.38.35,4.25.42,5.19-2.23a2.75,2.75,0,0,1,2-1.83c3.72-.73,2.55-3.28,1.91-5.36-1.61-5.27.87-14.61,4.92-17.92a2.07,2.07,0,0,1,2-.53c.91.28.77,1.09.81,1.79a2.57,2.57,0,0,1,0,.92c-1.83,4.6-1.16,9.54-1.94,14.22-.85,5.18-.27,9.16,3.79,12.48-3.11-1.18-6.28-.13-9.31.16-5.82.55-11.24-.73-16.72-2.13s-10.69-3.89-16.54-3.59c-3.16.16-3.76,1-2,3.55,1,1.51,1.58,3.33,3.09,4.52.3.25.72.67.69,1-.4,3.77-.22,7.59-1,11.32A24,24,0,0,1,120.46,128Z"/><path class="cls-34" d="M220.81,160c1.33,3.08.66,6.41.91,9.6.31,4,1.81,7.88,1.58,11.95-1.29,4-3.39,7.72-4.32,11.86a15.49,15.49,0,0,1-.66,2.33c-.23.57-.67,1.14-1.38.94a1.23,1.23,0,0,1-.87-1.7c.75-2,.49-4.05.39-6.07-.09-1.69-1.14-2.33-2.36-.88-2.43,2.9-5.86,4.69-8.09,7.86-1.71,2.42-4.59,3.72-7.35,4.75a40.3,40.3,0,0,0-5.54,2.44c-2.13-.9-3.54-2.21-3.08-4.83.21-1.19.7-1.85,1.9-1.95a11.31,11.31,0,0,1,2.52-2.21c1.44-2.8,1.57-5.91,2.09-8.92.18-1,.13-2.23,1.16-2.72,3.77-1.83,6-5.5,9.5-7.7,1.48-.93,2.8-1.77,4.77-1.58,2.8.27,7-4.86,7.39-8.72.11-.91,0-1.85.16-2.75C219.67,160.93,219.57,159.93,220.81,160Z"/><path class="cls-27" d="M224.52,182.16V180.3c.3-1.26.52-2.59,2.12-2.91a1.3,1.3,0,0,1,1.24.69c-2,5.87-2.32,12.13-4,18.08-.64,2.27-1.17,4.55-1.6,6.87-.21,1.11-.17,2.46-.86,3.23-2.7,3-3,6.53-3,10.25a1.9,1.9,0,0,1-.69,1.33h0c-1.34-3.42-.26-7-.62-10.47a31.61,31.61,0,0,1,3.27-10.84C222.72,192.23,224.64,187.37,224.52,182.16Z"/><path class="cls-33" d="M174.67,120l-4.32-1.26-1.22-1.21A8.68,8.68,0,0,1,174.67,120Z"/><path class="cls-35" d="M69.4,184.6c-.6,1.45-1.21,2.89-1.81,4.34C67.43,187.17,67.47,185.49,69.4,184.6Z"/><path class="cls-36" d="M380.27,83.08c0,.4,0,.8,0,1.19-4.58,8.93-9.1,17.88-13.75,26.77-2.9,5.53-4.79,11.5-7.6,17.06-4.18,8.28-6.61,17.23-10.08,25.78-2.18,5.37-4.73,10.59-6.57,16.12-2.28,6.89-4.83,13.7-7.08,20.6-2.73,8.33-5.14,16.77-7.94,25.07-1.29,3.79-2.87,7.47-4.07,11.32-1.81,5.82-4,11.52-6.29,17.18-5.32,13.2-10.9,26.3-18.36,38.48a280.6,280.6,0,0,1-15.95,23.81c-1.5,2-2.93,4.18-5.14,5.57-.81-1.13,0-1.93.6-2.74a45.62,45.62,0,0,1,3.53-4.66c5.68-6.28,8.59-13.87,10.4-22,.11-.5,0-1.15.32-1.48,2.87-3,3.84-7.13,6.54-10.19.33-.38,1-.64,1.05-1.09.53-4.14,3.6-7.29,4.45-11.27a22.36,22.36,0,0,1,3.8-9.28c3.45-4.53,5.49-9.82,7.2-15.2a144.64,144.64,0,0,1,5.73-13.88,12.18,12.18,0,0,0,1.17-4.41c1.82-8.91,6.17-16.93,8.9-25.5,1.76-5.55,3.87-11,5.39-16.61,1.2-4.45,2.24-8.92,4.44-13.05,3.16-5.92,4.35-12.57,6.72-18.78,3.95-10.31,7.55-20.76,12.16-30.81,2.14-4.66,3.69-9.55,5.77-14.23.49-1.1.65-2.43,2-2.89.77.48,1.44,1.94,2.33,0a47.85,47.85,0,0,0,2.62-5.5c1.21-4,3.74-7.2,6.14-10.48.53-.72,1.25-1.51,2.3-.93s1,1.4.66,2.39A20.79,20.79,0,0,1,380.27,83.08Z"/><path class="cls-37" d="M323,216c.28,2.29-1,4.11-1.9,6-3.07,6.42-5.21,13.21-7.81,19.81a33.37,33.37,0,0,1-4.66,8.22,17.72,17.72,0,0,0-3.45,9.3,6,6,0,0,1-1.24,3.07c-.37.48-1.09.93-1.11,1.42-.2,5-5,7.79-5.77,12.46a.89.89,0,0,1-.26.54c-5.32,3.82-4.73,10.32-6.79,15.55-2.31,5.86-6.19,10.44-9.77,15.34-1,1.37-2.45,2.48-2.76,4.3-4.65,6.13-10.38,11.15-16.43,15.8-3.24,2.49-4.11,5.61-3.6,9.38.61,4.45,2.35,8.62,3.4,13a.83.83,0,0,1-.91,0c-2.59-3.4-3.26-7.5-4.22-11.51a22.13,22.13,0,0,1,.35-10.9c1-3.33,2.45-6.23,5.45-8.23,2.5-1.67,3.43-4.54,4.88-7,2.45-4.15,5-8.19,8.73-11.36a9.67,9.67,0,0,0,3.05-4.85,19.63,19.63,0,0,1,3.91-6.9c5.94-7.1,9.83-15.53,15.13-23,.47-.66.78-1.44,1.31-2.07,3-2.3,3.6-5.86,4.69-9.16a5.33,5.33,0,0,1,1.46-2.84,70.62,70.62,0,0,0,10.31-21,36.63,36.63,0,0,1,4.8-10.53C320.87,219.22,320.65,216.71,323,216Z"/><path class="cls-38" d="M260.2,350.19l.65,0c.91,1,.77,2.45,1.27,3.62.78,1.21.77,2.37-.48,3.18s-2.1-.1-2.88-.92c-.56-.58-1-1.31-1.83-1.56-3.91-1.24-6-4.24-7.7-7.72-.07-1.84-1.35-3.42-1.12-5.32a1.27,1.27,0,0,1,.55-.66c1.59.07,2.2,1.37,2.87,2.46a60.57,60.57,0,0,0,4.6,5.72A3.35,3.35,0,0,0,260.2,350.19Z"/><path class="cls-39" d="M249.75,346.49c1.7,3.18,3.54,6.19,7.42,7.14a3.56,3.56,0,0,1,1.66,1.24c.63.77,1,2.06,2.19,1.78,1.45-.35.92-1.82,1.1-2.86l.56.11c.42,1.29.76,2.66-.46,3.63s-2.75.65-4-.2c-2.33-1.61-5.05-2.75-6.63-5.3-.5-.48-1.2-.88-1.46-1.47-1.85-4.15-2.54-4.36-5.89-1.59l-1.3.5c-.81-1.66.88-2.32,1.38-3.46.15-.25.29-.52.44-.78.69-1.2,1.36-2.74,3-2.48,1.37.22,1.27,1.85,1.66,2.94A2.58,2.58,0,0,0,249.75,346.49Z"/><path class="cls-40" d="M251.6,352a34.85,34.85,0,0,0,6.57,4.39c1.15.67,2.27,1.61,3.65.83s.73-2.19.86-3.35c1.23,1.83.95,3.18-.92,4.56s-3.34,1-4.65-.65C255.46,355.69,252.32,355,251.6,352Z"/><path class="cls-41" d="M380.27,83.08c-.09-1.48.65-2.75,1.05-4.11.19-.63.16-1.29-.5-1.6s-1.14.33-1.44.8C377,81.94,374,85.4,373,89.87c-.45,1.86-1.82,3.18-2.58,4.85-.39.85-.59,2.4-1.8,2.1s-.44-1.77-.63-2.7c-1.14-2.09.09-3.64,1.16-5.24a7.08,7.08,0,0,0,2.45-5.42,16.74,16.74,0,0,1,1.15-4.28c.55-.9,1.26-1.76.91-3.06-1.71.7-2.12,2.25-2.67,3.69-4.67,10-8.37,20.5-13,30.54s-7.21,20.54-11.92,30.3c-5.82,12.07-10.53,24.68-17.43,36.23a10.11,10.11,0,0,1-3.09,3.77c-2,1.27-3.63.45-3.82-2a3.71,3.71,0,0,1,.21-1.82c2.27-4.7,3.52-9.81,6-14.43,2.81-5.13,4.57-10.74,6.83-16.12,3-7.17,6.35-14.21,9.12-21.49,1.46-3.82,2.33-7.88,4.48-11.44-6.76,12-13.17,24.22-19.36,36.54-1.33,2.65-2.95,5.16-4.45,7.72-.63,1.08-1.23,2.43-2.88,2.4-.47-2.82,1.21-4.91,2.62-7a18.24,18.24,0,0,0,2.4-4.14v0a45,45,0,0,1,2.44-4.92c4.85-9,10-17.92,14.44-27.14,2.81-5.83,5.84-11.51,8.92-17.19,1.47-2.94,2.11-3,4.25-.55,5.19-8.16,9.45-16.86,13.8-25.51a14.43,14.43,0,0,1,4.42-5,2,2,0,0,1,3.16,2.15c-.33,1.56-1.15,3-.78,5.35,2.78-3.22,5.85-5.65,5.27-10.11a11.2,11.2,0,0,1,0-3.37c.74-4.43,1.62-8.84,1.18-13.39-.13-1.29,0-3,1.71-3.12,1.5-.1,1.82,1.44,2.06,2.65.55,2.77,1.35,5.53.65,8.4-1,.87-.43,2.06-.64,3.09-1.32,3.23-.52,6.82-1.74,10.1a37.5,37.5,0,0,1-3.12,7.18C382.36,79.58,382.13,81.69,380.27,83.08Z"/><path class="cls-42" d="M388.24,57.17a53.18,53.18,0,0,0-1.3-9.06c-.16-.81-.64-1.65-1.6-1.53-.67.08-.85.89-.76,1.51.84,5.64-1.57,11.18-1,16.63.48,4.81-2.15,7.58-4.34,10.85-.55.82-1.74,2-2.74,1.53-1.22-.53-.12-1.77,0-2.71a8.36,8.36,0,0,1,.94-3.53c.37-.65.56-1.32-.21-1.9s-1.41,0-2.11.45c-3.67,2.53-5.06,6.67-6.82,10.33a115.21,115.21,0,0,1-7.83,14.52c-1.28,1.91-1.79,4.12-3,6-.28.45-.55.92-1.12.92s-.66-.43-.67-.86c-.12-4.38-1.72-2.17-3.15-.71-.51-2.33,1.44-3.73,2.28-5.48,3.47-7.25,7.2-14.37,11-21.44a9.25,9.25,0,0,1,4.08-3.61c4.11-2.1,8.14-4.34,7.27-10.07,5.17-3.56,5.38-8.91,5.11-14.39-.07-1.5-.76-3.07,1-4.07,2,3.25,5,5.94,5.32,10.07C388.8,52.85,389.42,55.06,388.24,57.17Z"/><path class="cls-42" d="M382.74,77.54c1.07-3.07,2.34-6.09,3.15-9.22a30.15,30.15,0,0,0,.62-6.6c0-.89.2-1.36,1.09-1.46-.43,5.61-.27,11.36-3.79,16.24A8.12,8.12,0,0,1,382.74,77.54Z"/><path class="cls-43" d="M187.62,131.65a6,6,0,0,0-1-1.85c-3.51-2.91-6.21-6.7-10-9.25-.12-1.4-1.18-2.34-1.73-3.52A33.92,33.92,0,0,1,172,103.58c-.06-2.1-1.49-3.91-1.67-6.12-.23-2.89-1-5.7-.6-8.68.41-3.15-2.65-4.27-4.17-6.29,4.87-1.86,7.93-.28,8.65,4.57.28,1.92.66,3.84.79,5.78a48.83,48.83,0,0,0,.09,6.4c.17,2.44,1.36,3.61,3.86,3.83,5.79.5,11.6,1,17.36,1.82,1,.15,2.07,0,2.88.83a3.07,3.07,0,0,0,3.94-.16,4.48,4.48,0,0,1,4.3-.77c-2.63,4.58,2.81.3,2.26,2.83a5.58,5.58,0,0,1-4.84,1.24A69.75,69.75,0,0,0,194,107.45c-4.48-.1-9-.55-13.32,1.35-1.66.73-1.66,1.82-1.66,3.16-1,3.09,1.27,5.06,2.58,7.32a6,6,0,0,0,2.57,2.09,28.61,28.61,0,0,1,11.09,11.19c1.15,2.19,3.58,3,5,4.95,1.24,2,3.39,2.79,5.12,4.13.71.35,1.38.49,1.76-.43a13.34,13.34,0,0,0,.67-2.34c.33-1.46.47-3.42,2.51-3.17a3,3,0,0,1,2.6,3.49,3.66,3.66,0,0,0-2.67,3c-1,4-1.9,4.32-5.52,2.24a5.53,5.53,0,0,0-2.26-.89,24.73,24.73,0,0,1-8.94-6.39c-1.57-2-4-3.16-5.66-5.08Z"/><path class="cls-44" d="M84.81,62.12c4.48,2.57,9.23,4.63,13.82,7,8.54,4.37,16.15,10.23,24.83,14.35,5.15,2.44,10.48,5,13.74,10.29a4.32,4.32,0,0,1,.62,4.19c-1.36,4,3.5,11.47,7.78,12.06,1.14.16,1.89-.37,1.91-1.44.12-6.57-1-12.74-6.08-17.51.68-2,1.89-1.24,3.08-.61,2.35.26,5.12-1,6.81,1.62a42.2,42.2,0,0,1,6.06,13.78A2.48,2.48,0,0,1,156.1,109a4.51,4.51,0,0,0-2.24,2.82c-1,3-3.21,3.16-5.67,2.31-5.21-1.81-9.78-4.58-12.94-9.28a2.55,2.55,0,0,1-.52-1.09c-.73-11.91-8.78-18-18.24-22.94-7.3-3.82-13.89-8.85-21.35-12.42-1.83-.88-3.56-2-5.5-2.68S85.85,64.08,84.81,62.12Z"/><path class="cls-33" d="M144.51,90.43c-1,.17-2.21-.39-3.08.61A3.35,3.35,0,0,1,139,89.88c5.05,0,9.32-2.54,13.79-4.39,5.45-2.25,11-4.18,17-4.27,1.74.62,4,.28,4.87,2.52l0-.06c.25,2.68.22,5.38.56,8a1,1,0,0,1-1,1.21c-.22-1.69-.45-3.39-.66-5.09-.57-4.72-1.4-5.46-6.1-5.43-.6,0-1.21,0-1.82.07L161.18,84c2,1.69,1.7,2.48-.7,3.15a22,22,0,0,0-6.8,2.69c-1.21.84-2.35,0-3.52,0C148.28,89.92,146.29,89.22,144.51,90.43Z"/><path class="cls-45" d="M270.09,92.92c-.92,2.58-3.54,4-4.41,6.66-.88,4-3.37,7.18-5.4,10.51-5.22,8.53-10.49,17-14.26,26.28-1,2.46-2.64,4.61-3.3,7.23a1.51,1.51,0,0,1-1.58,1.2c-2-1-2.17-2.63-1.4-4.41a17.14,17.14,0,0,1,2.73-5.11c2.29-2.47,2.85-5.89,4.44-8-1.28,3.47-4.66,6.39-6.24,10.5-.63,1.63-2.43,4.13-4.57,3.25-2.32-1-.87-3.54-.33-5.2a40.7,40.7,0,0,1,3.95-8,287.63,287.63,0,0,1,17.79-26.5,44.57,44.57,0,0,0,5.12-7.93A15.46,15.46,0,0,1,267.69,87a6.1,6.1,0,0,0,2.86-5.19c0-1.89,1.3-3.35,2-5.43-2.37.51-4,1.31-5,3.17-1.74,3.67-5.5,4.29-8.71,5.73a1.19,1.19,0,0,1-1.19-.05c-2.4-2.4-4.16-.57-6.07.79-.86.61-1.74,1.59-3,.76,2.06-3.33,5.62-5.1,8.55-7.3,4.35-3.26,7.86-7.42,12.2-10.54,3.74-2.7,6.5-6.65,11.4-8.06,2.6-.74,4.6-3.57,6.88-5.46a14.76,14.76,0,0,1,2.36-1.93c1.9-1,3.49-.93,3.51,1.79,0,2,.65,2.68,2.57,1.63.71-.39,1.67-.67,2.16.29s-.38,1.49-.93,2.07c-4.64,4.87-9.44,9.59-13.9,14.62-3.78,4.26-7.18,8.86-10.7,13.35a6.8,6.8,0,0,0-.71,2C271.9,90.73,270.72,91.69,270.09,92.92Z"/><path class="cls-46" d="M248.54,86.76c2.2-.46,3.49-2.38,5.38-3.34,1.21-.61,2.39-1.46,3.13.57a1.12,1.12,0,0,0,1.74.65c2.81-1.66,6.47-2,8.22-5.3a3.66,3.66,0,0,1,1.74-1.67c.56-.2,1.18-.54,1.76-.17.79.49.52,1.28.29,1.94-1.18,3.36-1.93,7-5.89,8.48a2.34,2.34,0,0,0-1.41,1.51c-1.87,5.06-5.07,9.23-8.52,13.34a115.44,115.44,0,0,0-9.93,14.31c-.57.93-.72,2.2-2,2.58a3.33,3.33,0,0,1-3-3.17c.91-3.33,3.42-5.67,5-8.33-1.57,1.33-3.67,2.33-5.55,3.68a4,4,0,0,1-2.28.8c-1.29,0-2.85.45-3.59-1-.82-1.56.65-2.32,1.55-3.25,1.42-1.45,3.75-2.41,2.78-5.2-.79-2.29-1.33-2.52-3.1-.91-1.29,1.17-2.42,2.5-4.2,2.94-3,.88-5.53,3.32-9,2.34a2.63,2.63,0,0,1-1.38-.55c0-1.94,1.71-2.69,3-3.11C229,102,234,98.53,238.42,94.75,241.7,91.94,245.75,90.12,248.54,86.76Z"/><path class="cls-47" d="M240.53,116.29c.15,1.56,1.32,2.3,2.46,3.07.35.93-.23,1.6-.72,2.22-4.31,5.45-5.85,12.06-7.8,18.49-.66,2.17-1.5,4.25-2.29,6.35A2.35,2.35,0,0,1,229,148a12.72,12.72,0,0,1-2.33-.77,66.43,66.43,0,0,1-14.74-10.12c-1.06-.92-1.43-2.41-2.48-3.78-1,2.23-1.08,4.51-1.86,6.54-.46,1.18-.55,3.09-2.75,2.28-1.56-1.53-4.27-1.74-4.93-4.3,4.23.26,4.09.21,5.69-4.19,1.45-4,.51-8.13,1.24-12.15.24-1.35-.74-2.27-2.18-2.47a8.21,8.21,0,0,0-2.75,0c-5.25,1-10.59.07-15.87.75-1.62.21-2.12.68-2.15,2.09-4.3-1.45-4.84-5.67-6.47-9-.41-.85.91-.73,1.55-.84l1.86,1.85h.48c2.65-.42,5.38.21,8-.65,1.66-.47,3.2-2,5.07-.58a18.59,18.59,0,0,0,7.84-1c3.32-1.33,6.54,0,9.59,1.09,1.41.53,2.07.43,2.69-.75a10.35,10.35,0,0,1,5.74-4.83c3.87.79,7-1.57,10.45-2.46-.57,2.87-3,4-5.25,4.41-11.3,2.16-11.45,8.74-12.39,16.94-.51,4.51.54,8.36,5.18,10.38a2.37,2.37,0,0,1,1.5,1.46c.58,2.91,3.47,3.22,5.28,4.7,1.32,1.09,2.46,0,3.24-1.24a28.46,28.46,0,0,0,3.36-8.85,14.26,14.26,0,0,1,2-5.1c2.23-3.16,2.43-7.41,5.51-10.1C239.56,116.81,239.73,116.08,240.53,116.29Z"/><path class="cls-48" d="M272.51,59.62C278.3,54.34,284,49,290.45,44.46a12,12,0,0,1,9.66-2.31c1.41.31,2.81-1,4.11.27,1.51,1.43,2.76,2.88,2.82,5.2.16,5.59-2.26,9.86-6.2,13.61-6.49,6.17-12.8,12.54-19.28,18.71A53.73,53.73,0,0,0,277,85.31,8.07,8.07,0,0,1,273.78,88c3-3.4,5-7.58,8.57-10.46,1.58-1.28,3.25-2.44,3.92-4.54a2.71,2.71,0,0,1,1.14-1.4c5.58-3.17,7.68-9.46,12.22-13.58a22,22,0,0,0,3.55-5c.8-1.31,1.19-2.67-1.3-2.24-2.28.38-2.56-1-2.37-2.76.11-1,.41-2.14-.66-2.79s-1.68.49-2.37.93a13.71,13.71,0,0,1-6.37,2.56c-3,.28-4.64,3.12-6.43,5.31-1.24,1.51-2.51,3.9-4.18,3.75C276.77,57.58,274.88,59.27,272.51,59.62Z"/><path class="cls-45" d="M268.82,64c1.43,3.1-1.39,4.58-2.88,5.93-8.56,7.7-18.39,13.62-28.17,19.65-4.66,2.88-9,6.17-14.09,8.41a41.83,41.83,0,0,1-9.64,2.9c1.17-1.64,1.11-1.78,3.25-2.77,11.88-5.47,22.12-13.57,33.06-20.54a2.48,2.48,0,0,0,1.22-1.31c1.32-2.29,3.81-3.21,5.83-4.53C261.25,69.17,264.24,65.37,268.82,64Z"/><path class="cls-48" d="M268.82,64c-5.91,3.86-11.15,8.68-17.25,12.27h-1.24c2-2.77,5.31-4,7.93-6,4.3-3.31,8.91-6.22,12.89-10a4.84,4.84,0,0,1,1.36-.62Z"/><path class="cls-49" d="M194.37,112.59c-1.8-.18-3.29.81-4.92,1.28a27.39,27.39,0,0,1-8.62-.06h0c3.48-1.9,7.48-1.43,11.15-2.46a34.72,34.72,0,0,1,4.89-.68C196.53,112.17,194.88,111.61,194.37,112.59Z"/><path class="cls-48" d="M270.09,92.92c0-1.54,1.17-2.5,1.84-3.71L273.79,88A11.05,11.05,0,0,1,270.09,92.92Z"/><path class="cls-50" d="M230,328l0-4.92c-.39-2.29,1-4,1.91-5.88s1.58-3.47,2.41-5.18c1.85-5.47,3.77-10.93,5.73-16.34,2.75-7.61,6.33-14.92,9.56-22.35.56-1.31,1.11-2.63,1.68-3.94.43-1,0-1.53-1-1.77,1.82-1.48,4.48-1.27,6.17-3,1-.52,2.06-1.79,3.17-.44.89,1.08.29,2.37-.39,3.38a7.93,7.93,0,0,0-1.64,3.18c-5.84,12.74-11,25.78-16.25,38.76-2.58,6.35-5.31,12.63-7.2,19.23s-3.09,13.34-4.48,20c-.52,2.51.07,5.09.31,7.63l0,2.38c-.55,1.23-1.53,1.34-2.68,1a7.78,7.78,0,0,1-2.72-7.37c.29-1.92.11-3.87.51-5.78.71-1.86.59-4,1.84-5.7Q228.52,334.49,230,328Z"/><path class="cls-50" d="M230.72,270.19c2.23-.54,4.45.07,6.68,0C235.17,271.38,233,271,230.72,270.19Z"/><path class="cls-23" d="M313.15,100.29c-4.23-2.84-8.3-.73-12.24.66s-6.8.75-8.9-3c-1-1.86-3-3.54-2.74-5.71.51-3.79.88-7.88,5-10A3.38,3.38,0,0,0,296,79.9a9,9,0,0,1,2.78-4c1.6-1.6,3.87-1.07,4.45,1,.68,2.43,2.71,3.18,4.61,3.48A15.77,15.77,0,0,1,315,83.66c-1.18,1-2.33.21-3.5-.06a5.28,5.28,0,0,1-.84-.38c-4.27-2-8.59-1.21-12.9-.22a6.56,6.56,0,0,0-2.15,1.17,2.08,2.08,0,0,0-1,2.35c.25,1,1.09,1.16,1.91,1.24a25,25,0,0,1,10.08,3.43A16,16,0,0,1,313,98C313.35,98.75,313.8,99.48,313.15,100.29Z"/><path class="cls-23" d="M340.83,117.47a4.85,4.85,0,0,1,1.41-3.9c1.87-2.31,2.23-5.23,3.39-7.82a2.59,2.59,0,0,0-.49-3.14c-1-.82-1.93.19-2.76.64-2.95,1.6-5.7,4.2-8.82,4.76-5.2.93-6.18,3.68-5.82,8.18.1,1.2-.42,2.58-.47,3.9a1.5,1.5,0,0,1-1.19,1.58,1.22,1.22,0,0,1-1.51-1.16c-.64-5.83-5.3-9.14-8.33-13.46L315,104c3.54.72,5,3.77,7,6.23,1.25,1.55,1.88,3.55,3.64,5.62a17.22,17.22,0,0,0,0-9c-.66-2.35-1.29-4.72-1.86-7.09-.3-1.28-.66-2.62.44-3.76,1.6,2.54,1.46,5.6,2.43,8.33.24.66.13,1.48.88,1.83s1.28-.38,1.81-.82a29.24,29.24,0,0,1,8.71-5c4.68-1.64,7-5.41,9.48-9.11a17,17,0,0,1,1.84-2.81c1-1,1.59-1,2.29.33,1.52,2.86,1.56,2.82,3.32,0a8.43,8.43,0,0,1,1.24-1.3c-.95,4.22-3.22,7.9-5.11,11.68-2.34,4.68-5.13,9.16-7.31,13.93A14.67,14.67,0,0,1,340.83,117.47Z"/><path class="cls-51" d="M324.24,96c-.39,3.24.78,6.29,1.75,9.18s.53,5.56,1.19,8.26c.13.52-.29,1.16-.42,1.75-.2.84-.54,1.6-1.53,1.63s-.94-.92-1.21-1.52A28.42,28.42,0,0,0,315,104c-.61-1.24-1.23-2.47-1.84-3.7-2.93-7.57-9.09-10.57-16.56-11.67-1.29-.19-2.79.19-3.09-1.7a3.12,3.12,0,0,1,1.94-3.69c4.91-2.47,9.94-2.47,15.09-1.08.31.09.51.6.77.91-1.27,1.13-2.72.66-4.1.38-3.51-.7-6.55.5-10.36,2.33A26,26,0,0,1,307,90.15a23.68,23.68,0,0,1,6.74,7,27.38,27.38,0,0,0,5,6.21c2.16,2,4.35,4,5.59,7.3,1-2.13-.09-3.6-.31-5.07-.73-4.85-1.5-9.71-4.38-13.93A23.67,23.67,0,0,0,314,86.11c-1.07-.8-2.65-1.28-2.68-3l3.7.6a21.71,21.71,0,0,1,7.62,9.06C323.13,93.82,323.7,94.89,324.24,96Z"/><path class="cls-52" d="M328.4,103.49c0-2,1.38-2.11,2.27-2.71C330.46,102.05,329.57,102.64,328.4,103.49Z"/><path class="cls-53" d="M257.2,270.77a3.21,3.21,0,0,1,1.21-3.23,2.52,2.52,0,0,0,.91-3c-.71-1.22-1.82.28-2.77.08,1.36-1.92,3.79-2.28,5.49-3.71,1.55-2.72,2.65-5.54,1.82-8.76a9.91,9.91,0,0,0,4.14-4.76c3.48-7.86,8.33-15,12.3-22.58,5.15-9.85,11.91-18.74,17-28.6a96.19,96.19,0,0,1,7.23-11.54,29.77,29.77,0,0,0,5.09-7.42c3-6.23,7.24-11.73,10.5-17.81,1.95-3.64,3.75-7.4,6.55-10.52,0,3.32-3.27,5-4,7.92-.27,1-1,2-.91,3.14a1.74,1.74,0,0,1,.11,2.27c-1.48,2.57-2.43,5.47-4.31,7.78a43.51,43.51,0,0,0-5.24,8.63c-2.79,3.83-4.5,8.26-6.72,12.4-3.82,7.11-7.47,14.31-11.58,21.26-.84,1.41-1.17,3.13-2,4.44-2.79,4.71-4.53,9.94-7.54,14.52a74.09,74.09,0,0,0-7.62,14.61c-.66,1.75-1.21,3.55-2.75,4.69a8.32,8.32,0,0,0-3.11,4.77,34.34,34.34,0,0,0-10.26,12.56C260.17,269.22,259.6,271.36,257.2,270.77Z"/><path class="cls-54" d="M304.57,184.67q-5.22,9.75-10.9,19.24c-5.36,8.92-10.82,17.79-15.86,26.92-3.55,6.44-7,12.92-10.46,19.4a3.46,3.46,0,0,1-3.46,2.11c-2.06-.07-2.6-1.39-2.59-3.16a19.2,19.2,0,0,0,2.69-4,167.61,167.61,0,0,1,15.34-23c3.88-6.55,8.65-12.5,12.72-18.94,4.17-6.6,7.52-13.74,12.49-19.84Z"/><path class="cls-53" d="M329.16,144a8.71,8.71,0,0,1-2.44,4.92A6.32,6.32,0,0,1,329.16,144Z"/><path class="cls-55" d="M323.63,149.51c0-2.28,1.26-3.74,3-4.9C326.12,146.53,324.62,147.87,323.63,149.51Z"/><path class="cls-56" d="M155.58,245.54a91.77,91.77,0,0,1,.65-12.29c2-2.29,2.21-5.64,4.8-7.73A14.75,14.75,0,0,1,174.8,223c2.16.74,2.17,2.95,1.61,4.45-1.68,4.48-.71,9.32-2.29,13.81-1.14,3.24-1.72,6.67-2.55,10-1.23,4.91-7.61,6.35-11.66,2.51-.93-.88-1.33-1.43-2.68-.57s-2.53.55-1.93-1.53S155.46,247.58,155.58,245.54Z"/><path class="cls-29" d="M238.17,269c-9.87-1.35-19.63-2.93-28.11-9-2.6-1.85-5.88-2.82-8.5-4.74-5.08-3.75-10.34-7.35-13.06-13.43-1.22-2.72.9-7.38,3.88-7.91a12.77,12.77,0,0,0,3.93-1.53c1.41-.77,3-.75,4.68-.89,3.28-.28,6.57.39,9.79-.23a1.92,1.92,0,0,1,2.07.82,183.32,183.32,0,0,0,15.08,15.2c6.22,5.65,13,10.48,21.47,12.48a15.8,15.8,0,0,1,4.18,1.87c1.73,1,1.7,3.07-.12,3.74C248.53,267.18,243.63,269.27,238.17,269Z"/><path class="cls-29" d="M261.49,249.25a7,7,0,0,0,2.4,3.09c1.85,3.6,1.38,5.82-1.85,8.57-.3-.07-.82-.07-.87-.21-1.37-4.57-5.73-4.23-9-5.13-9.22-2.51-17.29-7.09-23.3-14.3-4.7-5.65-8.48-12.21-9.86-19.73-.47-2.54-1-5.07,2-6.63a2.4,2.4,0,0,0,1-2.43c-.23-6.4,1.09-12.56,2.8-18.67.44-1.58.2-3.24.55-4.85.4-1.84,1.2-1.93,2.51-.89,1.92,2.16,2.48,5,3.16,7.59,2.17,8.25,6.78,15.32,10.29,22.92,4.87,10.54,12.65,19.08,19,28.58C260.72,247.84,261.4,248.37,261.49,249.25Z"/><path class="cls-57" d="M227.73,188.87c-1.21-1-2.24-1.36-1.95.82.55,4.08-1.41,7.69-2,11.55a76.32,76.32,0,0,0-1.08,10.23c0,1.93,1,4-2.36,4.85-1.87.47-1.33,3.32-1.38,5.22-1.29-.94.07-2.76-1.22-3.7,0-1.84,0-3.68,0-5.51s.14-3.25,1.95-4.66c2.14-1.66,1.72-4.86,2.26-7.39,1.22-5.71,3.43-11.24,3.29-17.24,0-2,2.24-3.15,2.36-5.2-1-1.47.52-2.59.5-3.94-1,1.14-.72,2.82-1.73,3.93-.88.63-.56,2.14-1.84,2.47a35,35,0,0,1-1.86-12.55c.19-2.72,2.63-3.54,4.28-4.8,1.47-1.13,2.63.8,3.8,1.7,4.17,3.22,8,7,13.72,7.43,3.79.29,7.4-.43,10.31-2.84,1.75-1.45,2-4.09,3.41-6a5.51,5.51,0,0,1,4.59-2.52c3.88-.1,7-1.9,9.85-4.3,1.33-1.14,2.42-2.79-.71-3.22,0-.1-.08-.25,0-.3.85-.92,10.67-4.24,11.75-4,.74.17,1.38.46,1.53,1.29a1.79,1.79,0,0,1-.9,1.82,6.16,6.16,0,0,1-2.84,1.11c-2.87.3-4.86,2-6.66,4-.81.93-1.53,2.08-2.65,2.53-7.1,2.9-8.83,10.36-13.28,15.5-.68.78-1.49,2-.68,3.07s2.1.71,3.18.47a14.85,14.85,0,0,0,6.69-2.93c6.88-5.93,13.16-12.33,15.68-21.44.39-1.42,1.4-2.49,2-3.8s1-2.32,0-3.42-2-.61-3.15-.35c-4.58,1.09-8.83,3.14-13.41,4.33-8.78,2.27-17.59,2.34-26.5,1.57a3.63,3.63,0,0,1-3.17-2.1c-.2-1.32-.87-2.76,1-3.53-.35,2.29.62,3.19,2.95,3.52a67.49,67.49,0,0,0,25.43-1.4,42.14,42.14,0,0,0,10-3.3c.57-1.83,1.86-2.28,3.6-1.88,2.8.41,5.74.46,6,4.48.12,1.78-1.61,2.55-1.61,4.12-.77,3.94-1.46,7.91-4.51,10.9-1.53,1.9-3.14,3.74-4.56,5.71-4.1,5.69-9.78,9.4-15.69,12.86-8.2,4.58-16.81,6.78-26.18,4.43-1.1-.27-2.22-.4-3.33-.6C228.71,185.18,228.71,185.18,227.73,188.87Z"/><path class="cls-58" d="M220.81,160a1.66,1.66,0,0,0-.59,1.65c.63,4.79-1.74,8.2-5.11,11.16-1.14,1-2.1,2.3-3.89,1-.79-.6-1.48.24-2.16.68a34.7,34.7,0,0,0-6.58,5.44c-1,1.11-2.07,2.36-3.62,2.72s-1.39,1.51-1.42,2.62c-1.72-.35-1.45-1.81-1.42-2.9a24.64,24.64,0,0,0-2-9.53c-1.33-1.75-2.55.32-3.9.18-.87-.09-.53,1.13-.32,1.77.74,2.31.37,4.72.21,7-.26,3.64.58,7.24,0,10.86-5.66-1.33-11.06.62-16.56,1.25-.13-.19-.21-.46-.08-.55,3.87-2.47,5.38-6.81,8.06-10.22a23.16,23.16,0,0,0,2.34-3.93c1.41-2.78,1.37-5.28-1-7.52-1.72-2.12-3.44-1-5.16,0-2.49.14-2.63-1.48-2.48-3.31a6.7,6.7,0,0,1,4.93-4.61c1.88.09,3.55,1.32,5.5,1,6.52.08,7.64-.63,9.15-5.84,1-2.58,2.09-4.86,5.41-5,1.56-.06,2.64-1.53,4.12-2,.78-.22,1.71-.65,2.24.2.41.67-.21,1.37-.69,1.89a22.38,22.38,0,0,1-5.73,4.55c-1.29.71-2.7,1.36-3.31,3,1.34.39,1.82-.57,2.42-1.14a61.15,61.15,0,0,1,5.86-5.4,4.4,4.4,0,0,0,1.94-4.49,6.41,6.41,0,0,1,.18-3.62c2.2-.39,3.45.78,4.31,2.6,2,2.27,4.1,4.35,7.18,5.15S220.67,158,220.81,160Z"/><path class="cls-59" d="M145.76,156.26a2.88,2.88,0,0,1,1.56-1.39c2.59-1.39,2.75-3.57,2.81-6.32.12-4.71.6-9.42.64-14.15,0-1.39,1.39-2.27,2.46-3,4.11-2.83,8.12-5.89,12.53-8.17,2.71-1.41,5.72-3.16,9.21-2.08.79.25,1.61.31,2.15,1,2.68,3.49,7,5.36,9.37,9.15.16.26.75.24,1.13.35h0c.41.4,1.07.7.5,1.44-1.81.06-3.36.35-3.33,2.75,0,.68-.67,1.23-1.19,1.72a95.34,95.34,0,0,0-9.26,10.52c-1.32,1.65-3.05,1.37-4.58,2a8.07,8.07,0,0,0-2.76,1.31c-.39.32-1,1.07-.8,1.15,3.65,1.48-.39,2.45-.4,3.7,0,1-2.2,1.05-2.78.08-2.59-4.33-6.07-2.64-9.49-1.69-.69.2-1.35.49-2,.69C149.57,155.61,147.89,157.29,145.76,156.26Z"/><path class="cls-60" d="M165.31,198.16c-3.49,1.69-6.2,0-9.31-1.52-2.92-1.4-5.92-3-9.28-3.44a23,23,0,0,1-4.74-1c-3.3-1.16-3.87-2.41-3-5.77,1.11-.18,2.23,0,3.35-.13,4.36-.55,6.26-2.67,6.24-7.09.28-2.33-.94-5.19,2.29-6.48,1.94,1.69,3.08,4,4.31,6.11,2.37,4.17,8.26,5.84,12.29,3.37,1.73-1.05,1.46-3.15-.38-4.45-.76-.54-2.84,0-2-2.12,5.09-1,6.54.12,6.72,5.21a16.49,16.49,0,0,1-.09,2.44c-.18,1.43-1.29,2.24-2.11,3.28-2.59,3.28-5.56,6.47-4.05,11.25Z"/><path class="cls-61" d="M151.35,154.57c2.22-.73,4.34-1.88,6.72-1.9,2,0,4.21-.17,4.92,2.46.39,1.44,1.44,1.14,2.71,1l-1.87-1.58,3.59-.29c-1-.91-2.77.36-3-1.12-.18-1.1,1.19-1.79,2-2.49a5.4,5.4,0,0,1,3.35-1.32,16.71,16.71,0,0,1,3.24-.14c.91.36.53,1,.2,1.46-.63.93-1.3,1.83-1.91,2.78-1.11,1.77-1.07,3,1.17,3.71,1.08.36,2.51.62,2.18,2.38a2.91,2.91,0,0,1-1.21.62c-2.46.91-4.92,1.4-7.42.06a3,3,0,0,0-2.94.19c-4.88,2.71-10.25,4.06-15.51,5.72-2.92,1.26-5.83,2.62-9.1,2.58-1.27,0-2.7.26-3.73-.89,1-1.24-2.31-3.65,1.13-4.25.59.15,1.13.73,1.71.57,4-1.06,8.3-1.27,12.17-2.89,2.43-1,4.68-2.45,7.26-3.19.74-.21,1.7-.63,1.34-1.67-.26-.8-1.15-.71-1.87-.68-1.12.05-2.21.48-3.32.46C152.23,156.17,150.7,156.51,151.35,154.57Z"/><path class="cls-62" d="M183.32,171.06c3.09,3.95,3.23,5.36.37,10.1-1.78,3-4,5.64-5.59,8.74-1,1.87-3,2.7-4.59,3.93a8,8,0,0,0-3.55,3.63c-1.18,2-2.78,2.57-4.65.7a1.58,1.58,0,0,0,.31-.09,3,3,0,0,1,.56-2c4.19-5,5.2-12,10.14-16.64,1.68-1.58,1.48-4.44,2.91-6.35C180.23,171.72,181,169.84,183.32,171.06Z"/><path class="cls-63" d="M134.76,167.83c4.53.67,8.68-.71,12.79-2.35a7.06,7.06,0,0,1,3.84-.11c2.54.46,3.11,1.53,2.48,4.28a5.33,5.33,0,0,1-.94,1.12c-3.87,3-7.79,5.86-9.87,10.6-.63,1.46-1.69,3.44-4.12,2.56,2.08-4.36,1.41-7.85-2.78-10.75C134.58,172.09,134.94,169.71,134.76,167.83Z"/><path class="cls-64" d="M151.35,154.57c.46,1.82,1.63.79,2.65.74,2-.1,4.85-2,5.57.92.66,2.62-2.7,2.23-4.25,3.26-5.18,3.43-11.36,3.64-16.95,5.67-1.64.6-2.31,0-2.48-1.58,3.39-2.31,6.05-5.6,9.87-7.32Z"/><path class="cls-65" d="M190.08,192.58c-1.68-4.43-.43-9.05-.83-13.57-.15-1.67.54-3.34-.74-4.94a1.37,1.37,0,0,1,1-2.27c1.44-.15,2.7.58,3.62-1.66.39-.93.88,1.3,1.25,2.14-.44,3.2-.5,6.44-1.48,9.6-1.25,4-1.4,8.06,1.83,11.47.41.44.73,1,.18,1.63l-3,1.3C190.32,195.55,191.18,193.57,190.08,192.58Z"/><path class="cls-66" d="M138.94,183.93a4.89,4.89,0,0,0,3.86-3.46c1.76-4.81,5.89-7.22,9.67-10a1,1,0,0,1,.84.75,2.24,2.24,0,0,1-2,1.67c-3,1.65-1.39,4.57-1.94,6.9-2.36,2.08-5.33,3.28-7.61,5.51-1,1-2.31.45-3.22-.62Z"/><path class="cls-67" d="M138.5,184.67c1.52.62,2.89.68,4-.83,1.7-2.28,4.22-3.26,6.82-4.06.79,2.91-.79,4.77-3,6s-4.7,2.44-7.31.63C138.76,185.86,138.16,185.4,138.5,184.67Z"/><path class="cls-68" d="M239.94,150.75c2.06,2.13,4.91,1.34,7.29,1.53a71.77,71.77,0,0,0,26.09-3c3.17-1,6.27-2.33,9.39-3.54a3.27,3.27,0,0,1,3.86.77,2.74,2.74,0,0,1,.26,3.69c-2,2.47-2.48,5.57-3.72,8.35a41.79,41.79,0,0,1-10.21,13.9c-2.86,2.61-5.41,5.65-9.45,6.58-.39.09-.74.43-1.13.46-1.8.18-3.94,1-5.26-.48s.43-3.07,1.17-4.37a44.28,44.28,0,0,1,4.23-6,10.7,10.7,0,0,0,2.25-4,4,4,0,0,1,2.15-2.89c4.56-1.58,7.3-5.39,10.7-8.38,1.54-1.36,3.62-.44,5.23-1.43.74-.46,2.12-.5,1.84-1.65-.33-1.36-2.08-1.1-2.57-.68-2.95,2.56-7,1.77-10.14,3.55a114.21,114.21,0,0,1-11.39,1.8,67,67,0,0,1-15.43-.46,29.09,29.09,0,0,0-4.58-.11c-3.35-.55-6.82-.6-9.84-2.45h0c-4.1-1.32-7.14-4.27-10.48-6.76l-.61-.59a.55.55,0,0,1,0-.81,2.33,2.33,0,0,1,2.55.45c2.42,1.69,5.16,2.76,7.67,4.23A15,15,0,0,0,239.94,150.75Z"/><path class="cls-69" d="M219.6,144c0,.22,0,.44,0,.66-2.23-.32-3.49.71-3.9,2.85-.49,2.49-1.67,3.52-4.12,2.05-1.45-.77-2.54-2.17-4.27-2.46s-4-2.15-4.94-4.29c1.51-.31,2.49.78,3.52,1.5,1.84,1.28,3,1.24,3.31-1.24a14.61,14.61,0,0,0,.51-2c0-2.5,1.26-2.62,3.13-1.93A17,17,0,0,1,219.6,144Z"/><path class="cls-69" d="M220.2,145.22c4,1.5,6.92,4.6,10.48,6.76-2.74.45-4.85-2.17-7.71-1.56-.76.16-.71-1.28-1-2A30.18,30.18,0,0,0,220.2,145.22Z"/><path class="cls-69" d="M230.68,152l9.84,2.45C237.07,154.31,233.38,155.15,230.68,152Z"/><path class="cls-70" d="M195,195c-4.54-4.61-4.31-9.86-2.12-15.42.91-2.32-.58-5.21,1.59-7.28a15.84,15.84,0,0,1,2.44,7.89c.08,1.69-.56,3.47.58,5C196.76,188.51,196.67,192,195,195Z"/><path class="cls-32" d="M226.37,177.83a6.66,6.66,0,0,1,2.64-6.1c.75,2.5-1.23,4.11-1.41,6.11Z"/><path class="cls-37" d="M270.68,255.4a4.81,4.81,0,0,1,2.45-4.91c1.69-.92,2.33-2.57,2.93-4.18,2.22-6,4.68-11.82,9-16.66a4.9,4.9,0,0,0,1.08-2.13c.78-3,1.55-5.9,4.08-8.05,1.57-1.34.92-3.72,1.88-5.37,2-3.43,3.88-6.93,5.82-10.38,2.14-3.81,4.15-7.69,6.21-11.54,2.22-4.13,4.35-8.3,6.56-12.43a6.9,6.9,0,0,1,1.24-1.3,1.81,1.81,0,0,1-.07,2.29c-2.15,3.37-3.36,7.2-5.34,10.69-4.19,7.38-8.17,14.92-11.95,22.5-1.85,3.7-3.41,7.66-5.29,11.46-2.7,5.46-5.94,10.7-8,16.43-2.49,7-6.61,13.14-9.64,19.85a110,110,0,0,0-4.3,10.14c-1.55,4.59-5.54,7.58-7.65,11.82a12.66,12.66,0,0,0-1.78,6.4,12.94,12.94,0,0,1-1.86,6.74,137.61,137.61,0,0,0-7.62,16.44c-4.53,7.5-7.34,15.73-9.92,24-.28.88-1.32,2.21-.09,2.67s1.75-1.16,2.12-2.14c1.56-4.12,3.41-8.11,5.16-12.14,1.93-4.44,4.84-8.31,6.83-12.7,5.62-12.44,14-23.27,20.49-35.22,3-5.48,6.12-10.86,9-16.39.89-1.72,1.65-3.83,4.05-4.22,1.21,2.46-.36,4.44-1.49,6.18a77.51,77.51,0,0,0-4,7.22c-5,9.72-11,18.81-16.67,28.15a13.73,13.73,0,0,0-2,4.71,27,27,0,0,0,3.48-4.46c4.51-6.46,8.4-13.31,12.44-20.06,3.41-5.68,7.44-11,9.79-17.28.42-1.1,1.05-2.63,2.91-2,.87,2.11-1.08,3.3-1.62,5a22,22,0,0,1-1.6,3.27c-4.47,8.77-10,16.9-15,25.36-4.37,7.41-9.17,14.57-13.81,21.8-3.27,5.08-5.77,10.65-9.64,15.33-1.19,1.45-1.14,3.26-1.76,4.86a1.33,1.33,0,0,1-.42.4c-.46.3-1.46.35-1.15,1s1-.26,1.55-.15c1.45,1.17,1.53,2.8,1.51,4.47-.15,2,1.69,3.5,1.24,5.54l-.25-.18c-1.09-.78-.51-3-1.93-3-1.62,0-1.83,2.11-2.74,3.22-1.07-1-.47-2.27-.53-3.44s-.52-1.47-1.57-1c-2.83,1.38-4.14,7-2.19,9.34l-1.31,1.81c-4.18.93-4.39.67-5.21-3.47a28.23,28.23,0,0,1,.73-12.77c2.06-7.84,4.51-15.73,8.66-22.59,3.68-6.08,5.35-12.8,8.36-19a4.09,4.09,0,0,0,.49-1.45c.74-9,6.15-16.05,9.87-23.85C264.61,264.9,268.69,260.78,270.68,255.4Z"/><path class="cls-39" d="M270.68,255.4c-.94,3.94-2.29,7.66-5.65,10.28a2.25,2.25,0,0,0-.78.93c-2.28,7-6.75,12.86-9.58,19.56a11.42,11.42,0,0,0-1.23,5.32,3.6,3.6,0,0,1-.08,1.83c-3.42,6.34-3.59,14.06-8.54,19.81-1.42,1.64-2.16,3.94-2.92,6-2.81,7.82-6.42,15.39-7.47,23.77-.38,3,.31,5.92.72,8.82.33,2.36,2.62,1.21,4.09,1.48-2.67,2.17-6,2.53-9.17,3.16-2.21-2.6-1.61-5.79-1-8.51,2.42-11.51,4.82-23.05,9.52-34,5.63-13.11,11-26.34,16.5-39.51a8.74,8.74,0,0,1,2.14-3.65c2.26-1.13,3-3.39,4.19-5.38C263.74,261.4,266,257.25,270.68,255.4Z"/><path class="cls-38" d="M240.55,351.43c-2,0-2.7-.71-2.09-2.89.72-2.6,1.31-5.16,3.55-6.93.68-.53,1.19-1.62,2.3-.81a2.13,2.13,0,0,1,.86,2.67,14.86,14.86,0,0,0-.33,3c-.45,1.1-1.82,1.63-1.89,3Z"/><path class="cls-71" d="M247.92,313.24c.17-2.3,1.3-4.28,2.25-6.29,1.8-3.78,3.73-7.49,5.59-11.24.68-1.38,1.47-2.82,1.34-4.36-.49-5.86,2.66-10.07,6.21-14.09a16.65,16.65,0,0,0,3.66-6.69c1.61-6.1,4.93-11.44,7.72-16.89,3.57-7,6.14-14.45,10-21.17,2.37-4.16,3.51-9.12,7.13-12.59a2.64,2.64,0,0,0,.92-1.55c-.19-5.93,4.21-9.78,6.63-14.49.93-1.82,1.64-3.72,2.59-5.52,3.19-6,6.28-12.11,9.39-18.18a11.34,11.34,0,0,0,.58-1.73,23.53,23.53,0,0,1,4-7.49,35.39,35.39,0,0,0,5.84-11c3.18-3.77,5.24-8.21,7.51-12.54q8.38-16,17-31.83c.81-1.51,1-3.36,2.55-4.66,1,.91.69,2,.29,3-3.17,7.94-5.84,16.15-9.66,23.77-4.49,8.92-7.06,18.61-12,27.36-2.09,3.73-3.27,8.11-4.91,12.18-.42,1-.68,2.68.69,3.31s2.42-.47,3-1.49q3.09-5.11,5.92-10.39c3.92-7.28,6.46-15.22,10.24-22.52,4.76-9.23,7.31-19.24,11.42-28.64,2.73-6.26,5.45-12.54,8.08-18.84,2.72-6.48,5.3-13,8.46-19.31,1.87-2.1,2.14-2.1,3.08,0-1,1.26-.6,2.94-1.23,4.31a26.41,26.41,0,0,1-2.48,5.53,7.89,7.89,0,0,0-1.83,4.93c-2.27,3.9-3.48,8.24-5.22,12.36-2.81,6.66-5.79,13.24-8.28,20C351,136,347,145.21,344.41,155a28.3,28.3,0,0,1-3,6.72A29.59,29.59,0,0,0,338.4,170c-1,4.58-3,8.89-4.17,13.37-2.84,11.21-8.85,21.29-11.23,32.62-2.34,4.7-5.23,9.21-6.85,14.15a120.19,120.19,0,0,1-4.41,11.9,55.53,55.53,0,0,1-6.58,10.87,1.59,1.59,0,0,1-.49-1.25,9.51,9.51,0,0,1,2.1-4.39c4.54-6.09,5.49-13.61,8.32-20.36,1.31-3.12,2.15-6.41,4.4-9.06a3.2,3.2,0,0,0,.88-1.94c0-4.38,2-8.1,3.78-11.89a1.75,1.75,0,0,0,0-1.68c-1.36-.15-2.92,1.22-4.43-.22-.56-.53-1.11.64-1.53,1.15a30.89,30.89,0,0,0-4.76,8.91c-2.84,7.26-6.25,14.27-9.48,21.35-.7,1.52-.82,3.73-3.18,4-.93-1.36-.08-2.57.41-3.76,2.56-6.24,5.64-12.26,8.17-18.5,2.46-6,4.21-12.38,7.52-18.09a8.29,8.29,0,0,0,.81-4.43c-1.75,4.23-3.24,8.26-4.81,12.25-1.16,2.92-3.51,5-4.7,7.87-3.11,7.44-6.93,14.55-10.18,21.93-.5,1.11-.83,2.35-2.16,2.83a.75.75,0,0,1-.75-.37c-.16-2.59,1.22-4.69,2.19-6.92,4.86-11.15,9.41-22.43,14.2-33.61,2.66-6.2,3.71-13.06,7.24-18.87,3.07-5.07,4.37-10.75,6.6-16.13a25.7,25.7,0,0,1-2.45,4.07c-4.71,7.16-9.53,14.19-13.2,22.05C306.32,195,302.91,202.16,299,209c-4.16,7.27-7.17,15.05-11.16,22.36a14.1,14.1,0,0,0-3,5.17c-.29.84-.53,1.69-.79,2.53a128.82,128.82,0,0,1-10.87,23.9c-2.27,4-3.76,8.36-6.08,12.31-2.05,3.51-4.93,6.5-6.16,10.54A140.38,140.38,0,0,1,255.35,301c-1.72,4-4.41,7.37-6,11.39A1.18,1.18,0,0,1,247.92,313.24Z"/><path class="cls-38" d="M305.16,251.69v1.23a3.44,3.44,0,0,0-1.24,2.47c-1.92,2.92-2,6.82-4.92,9.23-5.29,8.58-10.07,17.48-16.39,25.42-1.75,2.19-3.46,4.57-4,7.51a6.39,6.39,0,0,1-2.51,3.76c-5,4.13-8,9.71-11.07,15.23a8.23,8.23,0,0,1-2.18,2.94c-6.85,4.76-7.68,11.52-6.37,19-2.18,0-1.79-1.78-2-3.07-.24-1.6-.11-3.45-2.32-3.68-1.54-.16-3.14,2.08-3.17,4.21,0,1.67.8,3.43-.49,5l0,0c-1.27-1.16-.72-3.09-1.83-4.32a.83.83,0,0,1,0-1.22c-.39-2.64.93-4.56,2.33-6.69,4.46-6.8,8.59-13.83,12.92-20.73,4.22-6.72,8.6-13.35,12.76-20.11s8-13.45,12-20.19c1.17,1.33.58,2.69,0,4a28.59,28.59,0,0,1-2.74,4.43c-1.57,2.37-3.32,4.68-3.08,7.81.12,1.5-1.17,2-2.26,2.59a5.56,5.56,0,0,0-3.09,5.41,9.84,9.84,0,0,0,4.75-4.38c4.91-7.72,9.14-15.89,15.26-22.81,1.65-1.87,2.33-4.3,3.5-6.45C300.51,255.63,301.52,252.41,305.16,251.69Z"/><path class="cls-72" d="M248.56,340.92a30.71,30.71,0,0,0-.38-4.56c-.56-2.31,1.84-5.76,4-5.7,2.62.07,3.23,2,3.14,4.32,0,.62,0,1.23,0,1.85a2,2,0,0,0,1.19,1.66c.51,4.12,2.25,7.86,3.68,11.7-1.17,2.43-2.65,1.25-3.76.12a38.09,38.09,0,0,1-5.71-6.94A5.67,5.67,0,0,0,248.56,340.92Z"/><path class="cls-71" d="M299,264.62c2.22-2.77,2.35-6.65,4.92-9.23C302.73,258.7,302.59,262.58,299,264.62Z"/><path class="cls-36" d="M373.48,79.35c-1-2.13-2.05-.47-3.08,0a7.43,7.43,0,0,1,.44-1.43c.78-1.4,2.17-3.62,3.22-3C375.73,75.94,374.25,77.89,373.48,79.35Z"/><path class="cls-36" d="M369.77,89.19c0-2.23,1.61-3.7,2.48-5.53A6.32,6.32,0,0,1,369.77,89.19Z"/><path class="cls-73" d="M202.36,142.78l4.94,4.28c1.29,5.56.22,7.77-3.12,9.69-1.88,1.07-3.19,3.1-4.79,4.66-1,1-2.26,2.65-3.44,1.05-.89-1.19.57-2.51,1.87-3.33,2.68-1.66,5.63-3,7.6-5.58.29-.39.61-.75,1.08-1.31a7,7,0,0,0-4.11,1.57c-.67.44-1.52,1.24-2.1,1.1-3.42-.83-3.54,2.11-4.7,3.88-3.24,1.23-5.15.55-6.79-2.32-.53-.93-.62-2.2-1.9-2.57-1.45,0-1.65,1.35-2.25,2.21a28.25,28.25,0,0,0-4.47,8.19c-2.08.46-3.06,2.21-4.29,3.67a4.28,4.28,0,0,1-2,.43c-1.27.08-2.74.7-3.67-.59s-.4-2.92.2-4.32a12.51,12.51,0,0,1,3.07-4.08l1.18-.08c.7-1.68,2.25-2.81,2.81-4.63,1-3.12.55-4-2.61-4.72a3.47,3.47,0,0,1-1.43-.42l-3.6-.2c4.27-.55,5.76-4.49,8.38-7,1.72-1.65,2.85-3.88,4.9-5.29.72-.5,1.64-1.2,1.32-2.23-1.1-3.61,1.07-2.57,2.88-2.1.29.08.59.14.88.21,2.28.61,3.69,2.54,5.63,3.64C196.4,139,199,141.34,202.36,142.78Z"/><path class="cls-74" d="M219.6,144a26.66,26.66,0,0,1-6.77-4.91c-.05-.09-.07-.21-.14-.27-1-.83-1.36-2.94-3-2.52-1.42.38-.86,2.3-1.37,3.43-.61,1.39,0,5.11-3.51,2.44,2.8-.68,2-3.44,3-5.19.22-.4,0-1,.1-1.51.18-1.36-.07-3.34,1.58-3.51,1.42-.14,1.31,1.74,1.6,2.89.13.48.31,1.21.65,1.34,3.74,1.44,5.42,5.58,9.37,6.86,2.76.89,4.69,3.47,7.71,4.21,1.76.43,2.27.05,2.85-1.48,2.29-6.08,3.83-12.4,6.24-18.45,1.21-3,3.32-5.33,5.07-7.94,4-7.62,9.25-14.39,14.57-21.13,2.27-2.86,5-5.72,5.17-9.78a1.05,1.05,0,0,1,.95-1c3.66-.55,4.85-3.31,5.75-6.38.29-1,.72-1.89,1.1-2.88-1.53-.57-2.42.61-3.52,1.19.69-3,3.44-3.36,5.63-4.07,1.41-.46,1.18,1.09.65,1.83a11.53,11.53,0,0,0-2.15,6.56c-.06,1.57-1.41,2.72-2.61,3.67-3.29,2.59-4.82,6.22-6.77,9.79s-5,6.63-7.45,10a210.14,210.14,0,0,0-11.83,17.73c-1.73,3-3.23,6.11-5.12,9-1.14,1.74-1.06,3.7-1.66,5.52-.27.82.18,1.94,1.28,1.24,1.25-.8,2.91-1.88,3.2-3.12,1.14-4.91,5.66-7.61,7.47-12-1.25,3.74-2,7.66-4.89,10.68-2.54,2.66-3.13,6.06-1.64,8.44.09.92-1.54,1.35-.72,2.49-1,1.13-.4,2.46-.47,3.7-2.08,1.64-6.49.9-10-1.27C226.67,147.4,223.41,145.15,219.6,144Z"/><path class="cls-75" d="M183.89,121.82c-.14-1-1.94-1.34-1.26-2.49.59-1,1.89-.27,2.81-.45,4.47-.92,9,.42,13.48-.47a27.25,27.25,0,0,1,6.39-.23,2.65,2.65,0,0,1,2.49,3.49c-1,4.45-.06,9-1.68,13.52-1.78,4.91-1.55,5.12-6.21,2.65-4.76-2.05-5.88-7.39-9.5-10.51C188.25,125.48,186.39,123.27,183.89,121.82Z"/><path class="cls-31" d="M193.78,136.58c-2.33-.51-3.78-2.37-5.63-3.64l-.54-1.3A18.07,18.07,0,0,1,193.78,136.58Z"/><path class="cls-76" d="M240.53,116.29c-3.09,3.27-3.9,7.8-6.34,11.42-1.71,2.55-1.66,5.65-2.83,8.36-.52,1.22-.78,2.56-1.38,3.73-2.45,4.78-3.59,5.67-7.5,1.84a2.72,2.72,0,0,0-1.95-.75c-.62,0-1.6-.17-1.38-.81,1-2.94-1.48-3.09-3-4a7.49,7.49,0,0,1-3.91-6.21,35.55,35.55,0,0,1,1.65-13.27c1.44-4.53,4.72-7,9.29-7.73a12.85,12.85,0,0,0,7.5-4.31c2.2-.62,3.1-2.88,4.94-4,1.23-.72,1.64-1.13,2.65.88,2.13,4.28-.7,5.85-3.12,7.88-.63.53-1.53.88-1.21,1.86s1.36.68,2.12.7c3.48.12,5.44-2.84,8.23-4.15.78-.36,1.2-1.43,2.64-1.25Z"/><path class="cls-16" d="M180.83,113.81l8.62.06A12.41,12.41,0,0,1,180.83,113.81Z"/><path class="cls-77" d="M311.3,83.06c3.56,3.08,7.58,5.49,10,10,2.1,3.94,2.45,8.12,3.49,12.21a14,14,0,0,0,.93,3.51,1.84,1.84,0,0,1-1,2.79c-1.52.63-1.58-.7-1.76-1.71a6.93,6.93,0,0,0-2.7-4c-3.22-2.71-5.54-6.1-8-9.49-3.31-4.57-7.71-8.07-13.55-9.3-.87-.18-2.69.26-2.58-1.41.07-1.24,1.64-1.32,2.59-1.83,4.06-2.17,8.33-1.15,12.56-.79Z"/><path class="cls-78" d="M173.44,159.41c0,2.1-2.08,3.12-2.63,5-.9,3.11-.62,3.6,2.47,3.06a4,4,0,0,1,2.61.49c0,1.58-.4,3.5,2.3,3.05-1.79,4-3.07,8.24-5.49,12-.37.57-.81,1.22-1.7,1,0-.61,0-1.22,0-1.83,0-6-.15-6.11-6.14-6.18-3.6,2-5.23,1.46-6.53-2,1.54-2.38,4.08-3.83,5.75-6.09a9.61,9.61,0,0,0-8.52,1.72c-.66.53-1.58,1.06-2.43.12,1.15-1.84.67-3-1.45-3.51-1.36-.3-2.75-.49-4.12-.72,5.46-2.08,11.29-3.21,16.29-6.46a1.26,1.26,0,0,1,1.45,0C167.93,160.81,170.67,160.38,173.44,159.41Z"/><path class="cls-79" d="M171,184a23.4,23.4,0,0,0,4.27-8.22,9.35,9.35,0,0,1,2.92-4.76c1.74-2.85,3.43-1.49,5.13,0-2.55-.25-3.74,1.88-4,3.49-.85,4.4-4.17,7.15-6.31,10.66A13.38,13.38,0,0,0,171,189c-.86,3.62-3.48,6.14-5.42,9.1-2.2-1.46-1.33-3.45-.79-5.27C165.9,189.2,168.63,186.72,171,184Z"/><path class="cls-80" d="M187,153.17c1.48-1.08,1.54.56,1.69,1.11,1,3.65,3.41,4.89,7,4.51-.89,5.37-3.05,6.84-9.85,6.71-.48-.57-1.26-.63-1.82-1.06-1.53-1.19-1.77-2.78-.27-3.84C186.33,158.7,187,156.13,187,153.17Z"/><path class="cls-81" d="M187,153.17c1,1.83.42,6.2-1.37,7-3.53,1.6-2.72,2.9-.12,4.47.2.12.19.56.28.85-2,.45-3.7-.82-5.56-1.21a2.39,2.39,0,0,1,0-2.84q2.59-3.94,4.94-8.06C185.76,152.33,186.34,153.11,187,153.17Z"/><path class="cls-82" d="M158.62,173.56c.84,4,3.82,2.48,6.23,2.43.69,1,1.9.53,2.78,1,1.33.79,2.42,1.64,2,3.36s-.78,3.12-3.09,3c-2.83-.12-5.62,1.48-8.51-.59-3.55-2.54-5.31-6.08-6.73-10l1.89-1.77a1.06,1.06,0,0,1,.76-.3c1.54.16,3.12.25,4.23,1.59A1.72,1.72,0,0,1,158.62,173.56Z"/><path class="cls-83" d="M173.39,149.56a3.83,3.83,0,0,1,5.08,1.36c1,2-.22,4.32-1.38,6.22a4.87,4.87,0,0,1-2.47,2.19c-.25-.31-.44-.73-.76-.91-1.52-.85-4.45-.59-4.31-2.61a7.93,7.93,0,0,1,3.32-5.52A2.67,2.67,0,0,0,173.39,149.56Z"/><path class="cls-84" d="M153.7,171.12h-.27l-.27,0-.69-.65.65-.75a3.25,3.25,0,0,0,2.72-1.11,6.53,6.53,0,0,1,5.88-1.72,11.73,11.73,0,0,0,3.95-.09c-2.1,2.58-3.76,5.48-7,6.77l-.58-.62C157.3,170.65,155.14,171.74,153.7,171.12Z"/><path class="cls-85" d="M305.16,251.69a16.88,16.88,0,0,0-5.66,7.44c-1.23,3-2.59,6.07-5.32,8.13-2.15,1.63-3.16,4.13-4.23,6.32-2.57,5.21-7,9.18-9.12,14.69-.68,1.75-2.72,3-4.2,4.4A1.33,1.33,0,0,1,275,293a1.46,1.46,0,0,1-.52-1.66c.67-2.39,1.45-4.81,4.13-5.67,1.45-.46,1.69-1,1.55-2.6-.24-2.87,1.68-5.14,3.22-7.41,1.67-2.44,3.73-4.69,3.35-8l3.69-8c-.61-1.54.26-2.79.88-4,2.62-5.3,5.09-10.67,7.59-16,.43-.94.85-1.87,2-2.09,3.33-5.64,5.76-11.72,8.44-17.67,1.75-3.9,3.34-7.87,5-11.78a22.66,22.66,0,0,1,5.34-7.65c.81,1.32,1.67,3,3.46,1,.4-.47.94-.86,1.6-.41a1.59,1.59,0,0,1,.61,1.91c-.34,1.06-.87,2.06-1.26,3.1-1.09,2.89-3.21,5.41-2.62,8.89.18,1-.56,2.42-1.25,3.38-4.17,5.85-5.93,12.62-7.76,19.4a16,16,0,0,1-2.43,5.57C308,245.87,307,249,305.16,251.69Z"/><path class="cls-38" d="M247.92,313.24c4-7.42,8.24-14.67,10.64-22.85,1.37-4.67,2.93-9.3,6.3-13.16a16.77,16.77,0,0,0,4.1-8.46c.38-2.5,2.56-3.87,3.61-6,4-7.88,7.77-15.83,11-24,1.06,1.13.5,2.32.06,3.44a23.94,23.94,0,0,0-1.2,8.48c0,1.34.33,2.59,1.62,3,1.55.53,1.74-1.05,2.29-1.93,2.49-4,4.08-8.5,6.81-12.36.55-.78.72-2,2.1-1.89h0c1,1.4.4,2.86-.22,4-2.44,4.57-4.48,9.34-7.11,13.8a3.33,3.33,0,0,1-1.93,1.84c-3.1,2.46-4.21,6.19-5.92,9.49-4.23,8.13-9.07,15.9-13.79,23.74-5,8.25-10,16.44-14.45,25-3.82,7.45-7.87,14.76-10.65,22.69a7.33,7.33,0,0,1-.69,1.37c-.63,1.06-1.29,2.41-2.77,1.73s-.92-2-.48-3.2c2.57-7.06,4.43-14.39,8.12-21A18.5,18.5,0,0,1,247.92,313.24Z"/><path class="cls-86" d="M286.08,257.23c2.71-5.09,5.49-10.15,8.09-15.3a20.91,20.91,0,0,0,1.17-4.38c2.16-1.54,2.43-4.19,3.51-6.31,3.17-6.21,5.4-12.94,8.93-18.92a106.66,106.66,0,0,0,9.05-19.93c.23-.67.4-1.59,1.35-1.25s.53,1.25.49,1.91a16.83,16.83,0,0,1-3,8.51c-2.08,2.95-2.76,6.34-3.86,9.56-2.82,8.2-7.15,15.72-10.24,23.78a5.31,5.31,0,0,0-.66,2.64q-5.24,11.09-10.49,22.16c-2.27.6-2.79,2.85-3.26,4.46-1.89,6.46-6.77,11.1-9.81,16.84a228.48,228.48,0,0,1-13.93,22.23c-.56.82-1.07,2.22-2.17,1.69-1.42-.69-.33-2,.06-2.91,2-4.69,5.09-8.77,7.7-13.12,4.39-7.29,9.07-14.4,12.6-22.17,1.14-2.49,3.4-4.32,4-7.13A8.9,8.9,0,0,0,286.08,257.23Z"/><path class="cls-39" d="M246.68,335.41c0,.41,0,.81,0,1.22-.16.93-.36,2-1.63,1.5-.89-.32-1-1.26-.73-2.07C244.73,334.65,245.68,334.85,246.68,335.41Z"/><path class="cls-87" d="M295.29,237.54c-3.4,4.82-5.71,10.25-8.6,15.35-.56,1-.95,3-2.29,2.22s-2.87-1.54-2.87-3.83c0-4.33,1.25-8.37,2.08-12.51a4.21,4.21,0,0,1,.62-2.47c1.11-1.58,1.77-3.45,3.07-4.92,1.45-3.46,2.38-7.16,4.77-10.2a8.78,8.78,0,0,0,2-4.73c.33-3.95,3.89-6.07,5.24-9.53,3.39-8.64,8.31-16.57,12.26-25,2.71-5.74,6.78-10.84,10.31-16.19.95-1.43,2.21-2.63,2.47-4.48.13-.94.87-1.56,2.09-1.75.15,2.24-1,4-1.54,5.87-2.05,7.2-6.76,13.31-8.83,20.42-3.15,10.82-8.2,20.85-12.23,31.29C301.2,224,297.78,230.57,295.29,237.54Z"/><path class="cls-38" d="M287.3,231.38a11,11,0,0,1-3.07,4.92C284.78,234.36,285.4,232.48,287.3,231.38Z"/><path class="cls-85" d="M267.09,304.26a18.59,18.59,0,0,1,2.39-6.42,3.3,3.3,0,0,1,2.81-2.08c1.16,0,1.74,1,2,2.05a3.15,3.15,0,0,1-1.38,3.47C271.21,302.33,269.36,303.12,267.09,304.26Z"/><path class="cls-88" d="M321.74,97.87c.09,2.45-.55,3.18-2.58,2.48a8.19,8.19,0,0,1-5.07-3.91c-1.8-3.18-5-5.36-7.7-7.82-.75-.68-1.41-1.25-1.11-2.29s1.26-1.25,2.18-1.41c2.85-.5,9.39,2.74,10.91,5.74C319.65,93.16,321.3,95.54,321.74,97.87Z"/><path class="cls-66" d="M153.7,171.12c1.52.44,4-1.53,4.34,1.82C156.86,171.69,155.12,171.8,153.7,171.12Z"/><path class="cls-89" d="M395,214.15l-12.47,67.16a1.52,1.52,0,0,1-2.91.31l-26.38-63.48,1.86-.77,25.75,61.95L393,213.78Z"/><path class="cls-89" d="M390.47,206.88l-8.65,69.46a1.75,1.75,0,0,1-3.45.24l-16.11-53.07,1.93-.59,15.77,52,8.5-68.24Zm-10.15,69.17Zm-.51.11v0S379.8,276.15,379.81,276.16Z"/><polygon class="cls-89" points="381.8 276.02 379.82 276.4 365.91 204.29 367.89 203.91 381.8 276.02"/><rect class="cls-89" x="357.64" y="246.01" width="74.03" height="2.02" transform="translate(15.75 517.58) rotate(-67.57)"/><rect class="cls-89" x="376.37" y="186.34" width="5.38" height="94.38" transform="translate(-1.82 2.98) rotate(-0.45)"/><path class="cls-89" d="M370.6,186.81a8.1,8.1,0,1,1,8.16,8A8.1,8.1,0,0,1,370.6,186.81Z"/><circle class="cls-89" cx="380.69" cy="281.65" r="7.39"/><path class="cls-89" d="M74.09,73.57,61.62,140.74a1.53,1.53,0,0,1-2.92.31L32.32,77.57l1.87-.78,25.74,62L72.1,73.2Z"/><path class="cls-89" d="M69.57,66.3l-8.65,69.47a1.75,1.75,0,0,1-3.44.23L41.37,82.94l1.93-.59,15.77,52,8.5-68.25ZM59.43,135.47h0Zm-.52.12v0Z"/><polygon class="cls-89" points="60.91 135.45 58.93 135.83 45.01 63.72 47 63.34 60.91 135.45"/><rect class="cls-89" x="36.74" y="105.44" width="74.03" height="2.02" transform="translate(-52.78 134.01) rotate(-67.57)"/><rect class="cls-89" x="55.48" y="45.77" width="5.38" height="94.38" transform="matrix(1, -0.01, 0.01, 1, -0.73, 0.46)"/><path class="cls-89" d="M49.71,46.23a8.1,8.1,0,1,1,8.16,8A8.1,8.1,0,0,1,49.71,46.23Z"/><circle class="cls-89" cx="59.79" cy="141.07" r="7.39"/></g><g class="cls-90"><g class="cls-91"><path class="cls-92" d="M418.1,458.24l-11.66-6c1.29-3,2.56-6,5.79-7.57,2.58-1.24,3.27-4.28,5.33-5.94,3.86-3.09,6.21-7.55,10.07-10.61a4.35,4.35,0,0,0,1.44-1.78c2.32-6.58,8.71-9.19,13.23-13.62.62-.6,1.75-.82,2-1.7,1.81-6.27,8.43-9.2,10.53-15.28.38-1.12,1.61-1.58,2.61-2.16,2.48-1.43,4.74-3.07,5.56-6a3.7,3.7,0,0,1,2-2.23,4.85,4.85,0,0,0,2.55-3.65,4.1,4.1,0,0,1,3.3-3.9c2.68-.87,3.17-4.41,5.1-6.47,3.72-4,6.37-8.7,9.22-13.3,2.35-.2,1.42-2.06,1.67-3.33,2.38-2.57,5.05-4.93,6.31-8.35a29.75,29.75,0,0,0,7.41-9.19,2.28,2.28,0,0,1,2.4-1.44c1.29,2,.19,3.71-.8,5.28-1.88,3-3.31,6.32-5.66,9.05-.56.65-1.34,1.51-.76,2.38.7,1.06,1.83.48,2.78.2a27.83,27.83,0,0,0,4.45-2.19,2.23,2.23,0,0,1,2.15.23,3.11,3.11,0,0,1-.7,4.18c-3.86,2.8-5.22,8-9.88,10-1,.43-1.19,1.58-1.64,2.49-1.31,2.63-2.55,5.36-5.53,6.58-1.38.56-1.58,1.89-2.12,3-.94,2-2.13,3.57-4.87,2.73,1.24,2.19,1.69,4.48-1.42,4.9-2.83.38-2.68,2.19-2.88,4.07a4.15,4.15,0,0,1-.62,1.81c-4.2,4.64-7.19,10.46-12.94,13.59-1.14.61-1.87,1.24-1.85,2.58.05,3-1.62,4.76-4.2,5.82-2.14.88-3.28,2.16-3,4.69.29,2.2-.86,3.94-2.62,5.26-5.59,4.16-9.74,9.58-14.13,14.93-3.48,4.26-6.51,8.77-9.83,13.06A37.8,37.8,0,0,1,418.1,458.24Z"/><path class="cls-93" d="M403.68,450.8c.83-3,3.91-3.85,5.77-5.9,5.81-6.37,11.63-12.77,17.2-19.31,3.89-4.56,8.78-8.47,11.33-14.14,0-1.86,1.37-2.77,2.58-3.81a17.16,17.16,0,0,0,5-6.38,47.45,47.45,0,0,1,4.42-5.08c4.08-1.48,5.09-5.54,7.27-8.62,7.52-8.31,14.17-17.32,21-26.2,1.1-1.43.46-3.63,2.23-4.7,4-1.78,6.05-5.58,9-8.46,1.52-1.5,2.38-3.6,4.23-4.82a1.08,1.08,0,0,1,1.12.15c.64,1.29-1.12,2.07-.71,3.31a18.32,18.32,0,0,1-7,8.52c-.2,1.05-.3,2.16-1.37,2.78-.77,1.58-2,3-1.63,5a1.32,1.32,0,0,1-1.13,1.7c-1.49.24-2.48.66-1.83,2.48.13.37-.13,1.23-.41,1.33-4.17,1.52-5,5.69-7.24,8.81-1,1.38-2,3.62-4.54,1.2-.09,3.83-.21,7-4.42,8.13-1.28.34.31,3-1.45,4-2.07,1.18-3.15,3.74-5.82,4.16a2.42,2.42,0,0,0-1.86,1.77A18,18,0,0,1,448.1,406a2.05,2.05,0,0,0-.9,1.2c-.49,5-5.18,6.3-8,9.3-1.77,1.9-4,3.49-5.05,6-1,2.31-2-.52-3.39,0,2,3.47-1.12,6.18-2.8,7.28-3.05,2-4.11,5.51-7.09,7.31a13.68,13.68,0,0,0-5,5.69A2.56,2.56,0,0,1,415,444c-3.83,1.75-5.47,5.77-8.58,8.25Z"/></g></g></g></svg>