<svg id="底層" xmlns="http://www.w3.org/2000/svg" viewBox="0 0 332.9 327.23"><defs><style>.cls-1,.cls-2,.cls-3{fill:#c9caca;}.cls-2,.cls-3{stroke:#c9caca;stroke-miterlimit:10;}.cls-2{stroke-width:1.5px;}</style></defs><title>2-icon</title><path class="cls-1" d="M46.16,190.44a14.16,14.16,0,0,1-2.83-.29,13.8,13.8,0,0,1,2.8-27.3,13.46,13.46,0,0,1,2.83.29,13.79,13.79,0,0,1,10.69,16.32A13.84,13.84,0,0,1,46.16,190.44Z"/><path class="cls-1" d="M46.13,163.34h0a13.31,13.31,0,1,1-13,10.59,13.26,13.26,0,0,1,13-10.59m0-1a14.3,14.3,0,0,0-2.91,28.3,14.82,14.82,0,0,0,2.94.3,14.3,14.3,0,0,0,2.91-28.29,14.13,14.13,0,0,0-2.94-.31Z"/><path class="cls-1" d="M138,223.43a14.33,14.33,0,0,1-2.84-.29A13.8,13.8,0,0,1,138,195.83a14.23,14.23,0,0,1,2.83.29,13.8,13.8,0,0,1-2.8,27.31Z"/><path class="cls-1" d="M138,196.33h0a14,14,0,0,1,2.73.28,13.3,13.3,0,0,1-2.7,26.32,14,14,0,0,1-2.73-.28,13.3,13.3,0,0,1,2.7-26.32m0-1a14.3,14.3,0,0,0-2.91,28.29,14.13,14.13,0,0,0,2.94.31,14.3,14.3,0,0,0,2.9-28.3,14.64,14.64,0,0,0-2.93-.3Z"/><path class="cls-1" d="M115,122.42a13.78,13.78,0,0,1-11.55-6.24A13.79,13.79,0,0,1,115,94.83a14.33,14.33,0,0,1,2.84.29,13.8,13.8,0,0,1-2.81,27.3Z"/><path class="cls-1" d="M115,95.33h0a13.29,13.29,0,0,1,13,16,13.3,13.3,0,1,1-13-16m0-1a14.3,14.3,0,0,0-2.9,28.29,14,14,0,0,0,2.93.3,14.3,14.3,0,0,0,2.91-28.29,14.82,14.82,0,0,0-2.94-.3Z"/><polygon class="cls-2" points="163.06 315.22 51.95 187.07 53.19 185.99 160 309.19 114.22 108.81 115.82 108.44 163.06 315.22"/><path class="cls-1" d="M286.74,188.72a13.8,13.8,0,0,1-2.81-27.31,14.26,14.26,0,0,1,2.84-.29,13.79,13.79,0,0,1,2.8,27.3,13.47,13.47,0,0,1-2.83.3Z"/><path class="cls-1" d="M286.77,161.62a13.3,13.3,0,1,1-13,16,13.29,13.29,0,0,1,13-16m0-1a14.74,14.74,0,0,0-2.94.3,14.3,14.3,0,0,0,2.91,28.29,14.11,14.11,0,0,0,2.94-.3,14.3,14.3,0,0,0-2.91-28.29Z"/><path class="cls-1" d="M192.73,221.74a13.85,13.85,0,0,1-13.49-11,13.81,13.81,0,0,1,10.68-16.33,14.23,14.23,0,0,1,2.83-.29,13.85,13.85,0,0,1,13.49,11,13.83,13.83,0,0,1-13.51,16.62Z"/><path class="cls-1" d="M192.75,194.64a13.29,13.29,0,1,1-2.73.28,14,14,0,0,1,2.73-.28m0-1a14.13,14.13,0,0,0-2.94.31,14.3,14.3,0,0,0,2.92,28.29,14.13,14.13,0,0,0,2.94-.31,14.3,14.3,0,0,0-2.92-28.29Z"/><path class="cls-1" d="M215.65,120.72a13.8,13.8,0,0,1-2.81-27.3,14.33,14.33,0,0,1,2.84-.29,13.8,13.8,0,0,1,2.81,27.3,13.62,13.62,0,0,1-2.84.29Z"/><path class="cls-1" d="M215.68,93.63a13.29,13.29,0,0,1,11.11,20.57,13.29,13.29,0,0,1-11.14,6,13.3,13.3,0,1,1,0-26.59m0-1a14.74,14.74,0,0,0-2.94.3,14.3,14.3,0,0,0,2.91,28.29,14.11,14.11,0,0,0,2.94-.3,14.3,14.3,0,0,0-2.91-28.29Z"/><polygon class="cls-2" points="168.15 314.87 215.31 108.07 216.91 108.43 171.21 308.83 277.98 185.59 279.22 186.66 168.15 314.87"/><circle class="cls-3" cx="164.61" cy="22.12" r="16.4"/><rect class="cls-3" x="161.71" y="22.12" width="6.56" height="297.79" transform="translate(-0.44 0.42) rotate(-0.15)"/></svg>