<svg id="底層" xmlns="http://www.w3.org/2000/svg" viewBox="0 0 332.9 327.23"><defs><style>.cls-1{fill:#c9caca;stroke:#c9caca;stroke-miterlimit:10;}</style></defs><title>icon</title><polygon class="cls-1" points="171.02 125.27 197.17 58.01 201.31 59.62 183.63 105.11 226.2 59.11 229.46 62.13 171.02 125.27"/><polygon class="cls-1" points="173.56 123.09 108.23 71.94 110.98 68.44 162.73 108.98 142.16 60.52 146.25 58.78 173.56 123.09"/><ellipse class="cls-1" cx="120.58" cy="78.45" rx="8.09" ry="26.41" transform="translate(-16.45 122.21) rotate(-50.76)"/><ellipse class="cls-1" cx="213.99" cy="76.25" rx="26.41" ry="8.09" transform="translate(9.44 175.06) rotate(-45.4)"/><circle class="cls-1" cx="171.02" cy="40.88" r="13.44"/><ellipse class="cls-1" cx="159.35" cy="243.96" rx="8.37" ry="54.5" transform="translate(-89.15 91.8) rotate(-25.37)"/><ellipse class="cls-1" cx="150.36" cy="255.17" rx="8.37" ry="54.5" transform="translate(-119.46 133.03) rotate(-35.14)"/><ellipse class="cls-1" cx="204.9" cy="273.49" rx="30.32" ry="4.86" transform="translate(-113.83 150.23) rotate(-32.02)"/><ellipse class="cls-1" cx="198.12" cy="268.45" rx="28.6" ry="5.15" transform="translate(-133.64 233.07) rotate(-47.49)"/><rect class="cls-1" x="166.02" y="43.05" width="11.85" height="234.95" transform="translate(-1.96 2.13) rotate(-0.7)"/></svg>