<svg id="底層" xmlns="http://www.w3.org/2000/svg" viewBox="0 0 332.9 327.23"><defs><style>.cls-1{fill:#c9caca;stroke:#c9caca;stroke-miterlimit:10;}</style></defs><title>icon</title><path class="cls-1" d="M162.89,249.67a9.86,9.86,0,0,1-9.79-8.73L136.91,103.37a9.87,9.87,0,0,1,19.61-2.31L172.7,238.64a9.87,9.87,0,0,1-8.65,11A9.14,9.14,0,0,1,162.89,249.67Z"/><path class="cls-1" d="M162.91,249.67a9.89,9.89,0,0,1-8.86-5.49L92.16,119.35a9.87,9.87,0,1,1,17.69-8.77l61.89,124.83a9.86,9.86,0,0,1-4.46,13.23A9.76,9.76,0,0,1,162.91,249.67Z"/><path class="cls-1" d="M162.9,249.67a9.86,9.86,0,0,1-7-2.9L55.06,145.72a9.87,9.87,0,0,1,14-13.95l100.86,101a9.88,9.88,0,0,1-7,16.85Z"/><path class="cls-1" d="M161.24,249.66a9.81,9.81,0,0,1-4.72-1.21L35,182.08a9.87,9.87,0,0,1,9.46-17.33L166,231.12a9.87,9.87,0,0,1-4.74,18.54Z"/><path class="cls-1" d="M166,244.56a2.19,2.19,0,0,1-.71-.11,2.45,2.45,0,0,1-1.65-3.07l32.74-108a2.49,2.49,0,0,1,3.08-1.64,2.46,2.46,0,0,1,1.64,3.08l-32.74,108A2.47,2.47,0,0,1,166,244.56Z"/><path class="cls-1" d="M166,244.56a2.4,2.4,0,0,1-1.31-.38,2.46,2.46,0,0,1-.78-3.4l60.47-96.12a2.47,2.47,0,1,1,4.18,2.63l-60.47,96.12A2.47,2.47,0,0,1,166,244.56Z"/><path class="cls-1" d="M166,244.56a2.45,2.45,0,0,1-1.81-.79,2.48,2.48,0,0,1,.13-3.49l84.07-77.67a2.47,2.47,0,1,1,3.35,3.62l-84.06,77.68A2.52,2.52,0,0,1,166,244.56Z"/><path class="cls-1" d="M166,244.56a2.46,2.46,0,0,1-1.16-4.64L266.77,186a2.47,2.47,0,1,1,2.32,4.36L167.15,244.27A2.46,2.46,0,0,1,166,244.56Z"/><ellipse class="cls-1" cx="279.87" cy="188.09" rx="38.08" ry="5.55"/><ellipse class="cls-1" cx="269.75" cy="162.61" rx="38.08" ry="5.55" transform="translate(-17.81 34.09) rotate(-7)"/><ellipse class="cls-1" cx="241.78" cy="142.05" rx="38.08" ry="5.55" transform="translate(-27.18 62.71) rotate(-14)"/><ellipse class="cls-1" cx="211.74" cy="131.37" rx="38.08" ry="5.55" transform="translate(-33.02 84.61) rotate(-21)"/></svg>