<svg id="底層" xmlns="http://www.w3.org/2000/svg" viewBox="0 0 332.9 327.23"><defs><style>.cls-1{fill:#c9caca;stroke:#c9caca;stroke-miterlimit:10;}</style></defs><title>icon</title><rect class="cls-1" x="66.69" y="160.64" width="199.51" height="5.95"/><circle class="cls-1" cx="67.14" cy="163.62" r="8.95"/><circle class="cls-1" cx="265.76" cy="163.62" r="8.95"/><rect class="cls-1" x="66.69" y="160.64" width="199.51" height="5.95" transform="translate(-64.35 128.86) rotate(-35.95)"/><path class="cls-1" d="M91.37,229.23a8.95,8.95,0,1,1,2-12.5A9,9,0,0,1,91.37,229.23Z"/><path class="cls-1" d="M252.05,112.49a9,9,0,1,0-12.5-2A9,9,0,0,0,252.05,112.49Z"/><rect class="cls-1" x="66.69" y="160.64" width="199.51" height="5.95" transform="translate(-40.7 271.15) rotate(-71.94)"/><path class="cls-1" d="M144.28,260.83a9,9,0,1,1-5.75-11.28A9,9,0,0,1,144.28,260.83Z"/><path class="cls-1" d="M205.65,71.93a9,9,0,1,0-11.28,5.75A8.95,8.95,0,0,0,205.65,71.93Z"/><rect class="cls-1" x="163.47" y="63.86" width="5.95" height="199.51" transform="matrix(0.95, -0.31, 0.31, 0.95, -42.41, 59.44)"/><path class="cls-1" d="M205.65,255.3a9,9,0,1,1-11.28-5.75A8.95,8.95,0,0,1,205.65,255.3Z"/><path class="cls-1" d="M144.28,66.4a9,9,0,1,0-5.75,11.28A9,9,0,0,0,144.28,66.4Z"/><rect class="cls-1" x="163.47" y="63.86" width="5.95" height="199.51" transform="translate(-63.76 202.11) rotate(-54)"/><path class="cls-1" d="M252.05,214.75a8.95,8.95,0,1,1-12.5,2A8.94,8.94,0,0,1,252.05,214.75Z"/><path class="cls-1" d="M91.37,98a9,9,0,1,0,2,12.51A9,9,0,0,0,91.37,98Z"/><path class="cls-1" d="M155.42,99c-4.13,6.94-6.79,17.89-6.79,30.21,0,21,7.73,34.52,17.28,34.52s17.27-13.52,17.27-34.52c0-12.32-2.66-23.27-6.79-30.21h0L168,84.2a2.4,2.4,0,0,0-4.17,0l-8.37,14.85"/><path class="cls-1" d="M100.61,155c5.33,6.08,14.92,12,26.64,15.8,20,6.49,35.22,3.31,38.16-5.77s-7.52-20.61-27.48-27.1c-11.72-3.8-23-4.65-30.84-2.87v0l-16.71,3.37a2.39,2.39,0,0,0-1.29,4L100.62,155"/><path class="cls-1" d="M131.67,220.32c7.42-3.19,16-10.48,23.26-20.45,12.34-17,14-32.47,6.31-38.08s-21.93.78-34.27,17.77c-7.24,10-11.52,20.39-12.26,28.44h0l-2,16.93a2.39,2.39,0,0,0,3.37,2.45l15.5-7.09"/><path class="cls-1" d="M227.13,155c-5.34,6.08-14.93,12-26.64,15.8-20,6.49-35.22,3.31-38.17-5.77s7.52-20.61,27.49-27.1c11.71-3.8,22.95-4.65,30.83-2.87v0l16.71,3.37a2.39,2.39,0,0,1,1.28,4L227.11,155"/><path class="cls-1" d="M196.06,220.32c-7.42-3.19-16-10.48-23.25-20.45-12.34-17-14-32.47-6.31-38.08s21.92.78,34.26,17.77C208,189.52,212.29,200,213,208h0L215,224.94a2.39,2.39,0,0,1-3.37,2.45l-15.5-7.09"/></svg>