<svg id="底層" xmlns="http://www.w3.org/2000/svg" viewBox="0 0 332.9 327.23"><defs><style>.cls-1{fill:#c9caca;stroke:#c9caca;stroke-miterlimit:10;}</style></defs><title>icon</title><ellipse class="cls-1" cx="137.62" cy="184.61" rx="14.28" ry="79.43" transform="translate(-53.69 56.47) rotate(-19.48)"/><ellipse class="cls-1" cx="189.82" cy="186.98" rx="79.43" ry="14.28" transform="translate(-51.59 299.74) rotate(-69.61)"/><ellipse class="cls-1" cx="209.9" cy="199.07" rx="79.43" ry="14.28" transform="translate(-76.01 243.18) rotate(-52.25)"/><ellipse class="cls-1" cx="164.13" cy="176.68" rx="73.63" ry="14.28" transform="translate(-19.81 332.64) rotate(-87.4)"/><ellipse class="cls-1" cx="118.56" cy="200.66" rx="14.28" ry="73.63" transform="translate(-96.44 110.67) rotate(-36.71)"/><path class="cls-1" d="M246.91,30.86a4.57,4.57,0,0,1,7.8,4.57l-40,98.48a4.56,4.56,0,1,1-8.46-3.43l40-98.48A4.89,4.89,0,0,1,246.91,30.86Z"/></svg>