<svg id="底層" xmlns="http://www.w3.org/2000/svg" viewBox="0 0 332.9 327.23"><defs><style>.cls-1{fill:#c9caca;stroke:#c9caca;stroke-miterlimit:10;}</style></defs><title>icon</title><path class="cls-1" d="M201,128.59l-27.85,150a3.41,3.41,0,0,1-6.5.69L107.76,137.52l4.17-1.73,57.49,138.35,27.17-146.37Z"/><path class="cls-1" d="M191,112.36,171.63,267.48a3.83,3.83,0,0,1-3.54,3.51,3.87,3.87,0,0,1-4.15-3L128,149.5l4.31-1.3,35.22,116,19-152.41ZM168.29,266.83h0Zm-1.15.25v0Z"/><polygon class="cls-1" points="171.6 266.77 167.17 267.62 136.1 106.59 140.53 105.74 171.6 266.77"/><rect class="cls-1" x="117.64" y="199.75" width="165.31" height="4.5" transform="translate(-62.85 310.08) rotate(-67.57)"/><rect class="cls-1" x="159.48" y="66.5" width="12.02" height="210.77" transform="translate(-1.34 1.3) rotate(-0.45)"/><path class="cls-1" d="M146.58,67.54a18.09,18.09,0,1,1,18.23,17.94A18.09,18.09,0,0,1,146.58,67.54Z"/><circle class="cls-1" cx="169.11" cy="279.33" r="16.51"/></svg>