<svg xmlns="http://www.w3.org/2000/svg" xmlns:xlink="http://www.w3.org/1999/xlink" viewBox="0 0 411.02 368.5"><defs><style>.cls-1{fill:none;}.cls-2{clip-path:url(#clip-path);}.cls-3{opacity:0.71;}.cls-4{fill:#4f430a;}.cls-5{fill:#2b2208;}.cls-6{fill:#242404;}.cls-7{fill:#636e0a;}.cls-8{fill:#4a3f14;}.cls-9{fill:#716e17;}.cls-10{fill:#433b02;}.cls-11{fill:#899233;}.cls-12{fill:#494d04;}.cls-13{fill:#586c19;}.cls-14{fill:#73831c;}.cls-15{fill:#666f14;}.cls-16{fill:#4b4e0a;}.cls-17{fill:#9aa536;}.cls-18{fill:#393c03;}.cls-19{fill:#555d08;}.cls-20{fill:#808418;}.cls-21{fill:#8c9428;}.cls-22{fill:#627018;}.cls-23{fill:#2f3000;}.cls-24{fill:#3b4806;}.cls-25{fill:#5d5b00;}.cls-26{fill:#b3b266;}.cls-27{fill:#313a00;}.cls-28{fill:#a5ad53;}.cls-29{fill:#707f30;}.cls-30{fill:#526400;}.cls-31{fill:#979932;}.cls-32{fill:#3d4303;}.cls-33{fill:#727c06;}.cls-34{fill:#687823;}.cls-35{fill:#aeac55;}.cls-36{fill:#4c560a;}.cls-37{fill:#5850e2;}.cls-38{fill:#d7e5fe;}.cls-39{fill:#2e3202;}.cls-40{fill:#262c02;}.cls-41{fill:#363c02;}.cls-42{fill:#384300;}.cls-43{fill:#586602;}.cls-44{fill:#404c01;}.cls-45{fill:#858a15;}.cls-46{fill:#6d6fe9;}.cls-47{fill:#7481f5;}.cls-48{fill:#5c6bdd;}.cls-49{fill:#91930d;}.cls-50{fill:#959227;}.cls-51{fill:#b8c7fc;}.cls-52{fill:#acc0fa;}.cls-53{fill:#b6ccfe;}.cls-54{fill:#5b5fbf;}.cls-55{fill:#d0d2fe;}.cls-56{fill:#1c1e01;}.cls-57{fill:#302b05;}.cls-58{fill:#272e01;}.cls-59{fill:#9f9638;}.cls-60{fill:#8b921d;}.cls-61{fill:#344201;}.cls-62{fill:#a8ac38;}.cls-63{fill:#889bfb;}.cls-64{fill:#767bfc;}.cls-65{fill:#85939a;}.cls-66{fill:#7d80e5;}.cls-67{fill:#949bec;}.cls-68{fill:#89a1f8;}.cls-69{fill:#93a7f7;}.cls-70{fill:#c2d4fe;}.cls-71{fill:#c7d7fe;}.cls-72{fill:#b9c8fa;}.cls-73{fill:#a5bbfe;}.cls-74{fill:#afc1fc;}.cls-75{fill:#a5b6fb;}.cls-76{fill:#b0befb;}.cls-77{fill:#8a90d4;}.cls-78{fill:#bbc8f2;}.cls-79{fill:#a1b1f6;}.cls-80{fill:#333204;}.cls-81{fill:#3f3e04;}.cls-82{fill:#141500;}.cls-83{fill:#212603;}.cls-84{fill:#b2a816;}.cls-85{fill:#908311;}.cls-86{fill:#8f7d09;}.cls-87{fill:#4c5103;}.cls-88{fill:#463803;}.cls-89{fill:#acb6fc;}.cls-90{fill:#696df3;}.cls-91{fill:#7c83e5;}.cls-92{fill:#b8c7fd;}.cls-93{fill:#adc1fd;}.cls-94{fill:#98a1ed;}.cls-95{fill:#2930a8;}.cls-96{fill:#7686f9;}.cls-97{fill:#858ff2;}.cls-98{fill:#727ff9;}.cls-99{fill:#afbff9;}.cls-100{fill:#6362f9;}.cls-101{fill:#c6d7fe;}.cls-102{fill:#9e971d;}.cls-103{fill:#aebefc;}.cls-104{fill:#aab7fd;}.cls-105{fill:#5b5bea;}.cls-106{fill:#c2cffc;}.cls-107{fill:#c7cefd;}.cls-108{fill:#bbcafc;}.cls-109{fill:#a0aefb;}.cls-110{fill:#a7b1ed;}.cls-111{fill:#9ba3f0;}.cls-112{fill:#a8bafd;}.cls-113{fill:#bacafb;}.cls-114{fill:#abbbfc;}.cls-115{fill:#a3b1f8;}.cls-116{fill:#8c9642;}.cls-117{fill:#8b9637;}.cls-118{fill:#462c03;}.cls-119{fill:#504403;}.cls-120{fill:#3d3803;}.cls-121{fill:#494303;}.cls-122{fill:#5e631d;}.cls-123{fill:#85843b;}.cls-124{fill:#979ff5;}.cls-125{fill:#9299fa;}.cls-126{fill:#5b4608;}.cls-127{fill:#7b7a0c;}.cls-128{fill:#baae41;}.cls-129{fill:#6b68fa;}.cls-130{fill:#413ab9;}.cls-131{fill:#98a5f3;}.cls-132{fill:#3031a4;}.cls-133{fill:#aabbfc;}.cls-134{fill:#c0cffe;}.cls-135{fill:#434ab8;}.cls-136{fill:#91a5fc;}.cls-137{fill:#92a4fc;}.cls-138{fill:#7e8bfc;}.cls-139{fill:#6d7eeb;}.cls-140{fill:#99a9fc;}.cls-141{fill:#a6b9fc;}.cls-142{fill:#798bf9;}.cls-143{fill:#8a98fa;}.cls-144{fill:#a5b9fb;}.cls-145{fill:#b8ccfd;}.cls-146{fill:#c4cafa;}.cls-147{fill:#9d92a2;}.cls-148{fill:#2c28a9;}.cls-149{fill:#847fd2;}.cls-150{fill:#fef4fe;}.cls-151{fill:#b3c5fd;}.cls-152{fill:#a1b4f6;}.cls-153{fill:#adbafb;}.cls-154{fill:#a7b7f3;}.cls-155{fill:#bccafb;}.cls-156{fill:#bdcdfc;}.cls-157{fill:#7a7ffd;}.cls-158{fill:#aebdfe;}.cls-159{fill:#aebaf8;}.cls-160{fill:#8d8ce3;}.cls-161{fill:#9ba3e2;}.cls-162{fill:#838d34;}.cls-163{fill:#77782d;}.cls-164{fill:#7a7b31;}.cls-165{fill:#412307;}.cls-166{fill:#270f13;}.cls-167{fill:#5a450a;}.cls-168{fill:#4b3806;}.cls-169{fill:#8d7371;}.cls-170{fill:#8a6f4c;}.cls-171{fill:#4b3a01;}.cls-172{fill:#523d0c;}.cls-173{fill:#453100;}.cls-174{fill:#2c1a00;}.cls-175{fill:#3f3300;}.cls-176{fill:#8280f4;}.cls-177{fill:#9facfb;}.cls-178{fill:#a7a9fe;}.cls-179{fill:#6f70e6;}.cls-180{fill:#b4bcfe;}.cls-181{fill:#a9b5fc;}.cls-182{fill:#8583fa;}.cls-183{fill:#8c8bfc;}.cls-184{fill:#8c92fb;}.cls-185{fill:#987818;}.cls-186{fill:#3b2320;}.cls-187{fill:#240c00;}.cls-188{fill:#422a01;}.cls-189{fill:#6e5129;}.cls-190{fill:#4f4ddf;}.cls-191{fill:#7375fd;}.cls-192{fill:#6061f9;}.cls-193{fill:#7d7ff8;}.cls-194{fill:#3724d7;}.cls-195{fill:#7378f4;}.cls-196{fill:#2a1db4;}.cls-197{fill:#3a2adf;}.cls-198{fill:#6264e5;}.cls-199{fill:#b2c0fe;}.cls-200{fill:#7f84f5;}.cls-201{fill:#747dd6;}.cls-202{fill:#3236cd;}.cls-203{fill:#93a1f3;}.cls-204{fill:#353dbb;}.cls-205{fill:#2f36bf;}.cls-206{fill:#3837ba;}.cls-207{fill:#3a3bc6;}.cls-208{fill:#6972f3;}.cls-209{fill:#a4b5fd;}.cls-210{fill:#7b7ff1;}.cls-211{fill:#666cf1;}.cls-212{fill:#717cfb;}.cls-213{fill:#787efc;}.cls-214{fill:#6576f1;}.cls-215{fill:#6a72ed;}.cls-216{fill:#5455ca;}.cls-217{fill:#a7b0ee;}.cls-218{fill:#d1d5f5;}.cls-219{fill:#b5aacf;}.cls-220{fill:#d6d7e8;}.cls-221{fill:#e3dad9;}.cls-222{fill:#dedddd;}.cls-223{fill:#e5eaf4;}.cls-224{fill:#f9e4f0;}.cls-225{fill:#635ca3;}.cls-226{fill:#d5cbca;}.cls-227{fill:#e7dcf3;}.cls-228{fill:#a9b3fa;}.cls-229{fill:#c4d1fe;}.cls-230{fill:#8f9aea;}.cls-231{fill:#858bea;}.cls-232{fill:#aebdfb;}.cls-233{fill:#c2cefe;}.cls-234{fill:#99a7f7;}.cls-235{fill:#8696e1;}.cls-236{fill:#979eec;}.cls-237{fill:#d5e1fe;}.cls-238{fill:#c8d2fe;}.cls-239{fill:#c7d6fd;}.cls-240{fill:#b6c7fc;}.cls-241{fill:#aab7fb;}.cls-242{fill:#6d6fdd;}.cls-243{fill:#5954eb;}.cls-244{fill:#aabdfd;}.cls-245{fill:#a4bbfb;}.cls-246{fill:#9195f9;}.cls-247{fill:#5c52ef;}.cls-248{fill:#b1b7fe;}.cls-249{fill:#60370f;}.cls-250{fill:#4b3b00;}.cls-251{fill:#44314f;}.cls-252{fill:#7b7efb;}.cls-253{fill:#4c386a;}.cls-254{fill:#978693;}.cls-255{fill:#39210a;}.cls-256{fill:#5d4212;}.cls-257{fill:#4d3511;}.cls-258{fill:#a9b7fd;}.cls-259{fill:#8086f3;}.cls-260{fill:#adbbfe;}.cls-261{fill:#afb3ec;}.cls-262{fill:#6d699a;}.cls-263{fill:#9ea5fd;}.cls-264{fill:#7979f4;}.cls-265{fill:#6d72a9;}.cls-266{fill:#8687fd;}.cls-267{fill:#8688fc;}.cls-268{fill:#d3c8d4;}.cls-269{fill:#b1b7ee;}.cls-270{fill:#9090a8;}.cls-271{fill:#625fe5;}.cls-272{fill:#5551a6;}.cls-273{fill:#8275ab;}.cls-274{fill:#220f0a;}.cls-275{fill:#47373f;}.cls-276{fill:#6f77f7;}.cls-277{fill:#626df9;}.cls-278{fill:#767ffd;}.cls-279{fill:#6563fb;}.cls-280{fill:#6e6afe;}.cls-281{fill:#5f63f0;}.cls-282{fill:#3731ce;}.cls-283{fill:#3f3fdb;}.cls-284{fill:#757bee;}.cls-285{fill:#767ffb;}.cls-286{fill:#6a72f5;}.cls-287{fill:#3831cd;}.cls-288{fill:#434132;}.cls-289{fill:#2a2abf;}.cls-290{fill:#818efc;}.cls-291{fill:#4140c3;}.cls-292{fill:#7270c4;}.cls-293{fill:#656eea;}.cls-294{fill:#6e75e3;}.cls-295{fill:#5256c1;}.cls-296{fill:#bda4bf;}.cls-297{fill:#dcd0eb;}.cls-298{fill:#dac9c9;}.cls-299{fill:#c9bace;}.cls-300{fill:#f4effc;}.cls-301{fill:#92838f;}.cls-302{fill:#8c7ca8;}.cls-303{fill:#d5c5a7;}.cls-304{fill:#c4b99d;}.cls-305{fill:#9f8f6e;}.cls-306{fill:#8f8a77;}.cls-307{fill:#51406a;}.cls-308{fill:#b3c3fa;}.cls-309{fill:#4d4dd0;}.cls-310{fill:#8b93de;}.cls-311{fill:#4231d9;}.cls-312{fill:#4a41ad;}.cls-313{fill:#727fdc;}.cls-314{fill:#c8c9fe;}.cls-315{fill:#747cde;}.cls-316{fill:#6f77e3;}.cls-317{fill:#746069;}.cls-318{fill:#918cb0;}.cls-319{fill:#7774f4;}.cls-320{fill:#5051db;}.cls-321{fill:#615ecf;}.cls-322{fill:#655fb4;}.cls-323{fill:#3e3686;}.cls-324{fill:#baaf9b;}.cls-325{fill:#6f649a;}.cls-326{fill:#312557;}.cls-327{fill:#595093;}.cls-328{fill:#fff;}</style><clipPath id="clip-path"><rect class="cls-1" x="-0.28" width="411.59" height="368.5"/></clipPath></defs><title>flower sketch demo</title><g id="光箱"><g class="cls-2"><g class="cls-3"><path class="cls-4" d="M212.35,362.62l-1.46.56a4.31,4.31,0,0,1-3.1-2.21c-1.33-3.74-5.32-5.83-6.17-9.88-.12-4-5.11-8.31.65-12a5.36,5.36,0,0,1,3.95.37c1.85,1.22,3,3.21,5,4.35a6,6,0,0,1,1.32,2.28c.23,3.38,1.86,7-1.48,9.83C211.48,358.14,211.91,360.38,212.35,362.62Z"/><path class="cls-5" d="M211,355.9q-.39-5.32-.79-10.64c1.95-1.63,3.7-1.24,5.31.52a16.44,16.44,0,0,0,.33,8.88l-1.7.43Z"/><path class="cls-6" d="M211.53,336c6.67-.85,3.35,5.26,5.34,7.67.12.55.25,1.11.37,1.67l-1.68.43-5.31-.52-.22.06C207.42,341.71,207.71,338.57,211.53,336Z"/><path class="cls-7" d="M203.32,339.72c-3.63,3.71.87,7,.52,10.58-1.79,2.87-3.66,5.35-7,1.62-1.63-4.8-3.54-9.53-3-14.76a4.69,4.69,0,0,1,2.9-2.74,5.2,5.2,0,0,1,4.91,1.23,5.84,5.84,0,0,1,1.8,1.7A3,3,0,0,1,203.32,339.72Z"/><path class="cls-8" d="M211.53,336l-1.5,9.31c-3,.09-4-1.9-4.61-4.33-1.26-.61-1.22-2.24-2.34-3l-.34.06a2.54,2.54,0,0,1-.55-2.65c2.05-3.16,4.48-5.18,8.38-2.81Z"/><path class="cls-9" d="M199.58,353.12c1-1.51,1.73-3.57,4.26-2.82,1.57,3.43,5.8,5.14,6.07,9.41l-3,.82c-2.47-2-6.91-.95-8.06-5.08A3.21,3.21,0,0,1,199.58,353.12Z"/><path class="cls-10" d="M203.08,338l2.34,3-2.1-1.27C203.22,339.16,203.14,338.6,203.08,338Z"/><path class="cls-11" d="M193.88,359.83l-2.28-8.27c-2.59-2-3.53-4.38-1.41-7.32a3.27,3.27,0,0,1,3.68-.38c2.57,2.26,1,6.32,3.66,8.54.8.78,1.25,1.9,2.25,2.5,2.85,1.29,6.3,1.82,7.17,5.63C202.36,364.64,198.13,362.19,193.88,359.83Z"/><path class="cls-12" d="M211.52,328.79l.33,1.69-1.28,2.15-7.93,3.74c-3.62-2.62-1.85-5.26-.07-7.91a8.61,8.61,0,0,1,7-2.24C210.8,326.65,211.83,327.22,211.52,328.79Z"/><path class="cls-13" d="M198.73,335.46l-3.38.9a5,5,0,0,1-4.7,2.37,5.29,5.29,0,0,1-3.93-3.54c.52-4-.3-8.1.49-12.13a5.58,5.58,0,0,1,4.49-3.14c3.68.52,6.29,2.35,7.35,6.05a37.68,37.68,0,0,1,.95,4.18C200.14,332.05,200.18,333.93,198.73,335.46Z"/><path class="cls-14" d="M190.24,337.51l5.11-1.15,4.23,16.76c.07.59.14,1.19.2,1.78l-2.13-1.18c-2.93-2-2.82-5.37-3.66-8.3l-2.35-1.23C189.46,342.32,188.7,340.15,190.24,337.51Z"/><path class="cls-15" d="M198.73,335.46q-.6-2.58-1.19-5.17c2.34-1.41,1.92-6.69,6.66-4.78a2.54,2.54,0,0,1,.09,3.23c-.7,2.51-2.42,4.8-1.66,7.63.06.57.09,1.14.12,1.72A4,4,0,0,1,198.73,335.46Z"/><path class="cls-16" d="M190.24,337.51c.47,2.22.93,4.45,1.4,6.68-1.59,2.45-.14,4.91,0,7.37-.48.1-1,.18-1.44.27-2.17-4.88-.42-11.66-7-14.36l-.66-1c.42-2.53,2.06-3.09,4.3-2.65l.94.71Z"/><path class="cls-17" d="M194,345.42c2.7,2.11,2.93,5.31,3.66,8.3C192.47,352.7,192.64,349.32,194,345.42Z"/><path class="cls-18" d="M218.48,313.12c-.11,3-2.74,5.67-1.42,8.94-3.15,1.16-3.18,4.9-5.54,6.73l-2.13-1.28c-3.61-2.7-2.43-6.35-2-9.87,1.26-1.82,1.58-4.21,3.38-5.72a3.69,3.69,0,0,1,3.78,0Z"/><path class="cls-19" d="M210.67,318.2a19.74,19.74,0,0,0-1.28,9.31,5.46,5.46,0,0,1-5.1,1.23l-.81-3.35c-1.56-2.86-2.83-5.78-1.91-9.17,1.4-3,3.79-4.56,6.94-3.61C211.1,313.4,211.64,315.68,210.67,318.2Z"/><path class="cls-20" d="M203.57,315.92c.06,3.16,1.65,6.33-.09,9.47-1.75,1.92-1.61,6.13-5.94,4.9l-.72-3.47c2.38-3.05-.57-5.36-1.08-8-.64-3.29-2.73-6.58-.25-10a4.2,4.2,0,0,1,2.41-.81C201.41,309.5,204.23,311.46,203.57,315.92Z"/><path class="cls-21" d="M196,309.34c1.23,3.48,1.11,7.43,3.57,10.5,3.18,4,.19,5.45-2.75,7l-5.2-5.79a3,3,0,0,1-1-3.69c2.12-.07,3-2.25,3-7.3A1.84,1.84,0,0,1,196,309.34Z"/><path class="cls-22" d="M190.8,317.78l.82,3.25-2.89,2.46c.18-1.83.35-3.65.53-5.47l.69-.62Z"/><path class="cls-23" d="M214.58,311.89l-3.33.77a7.26,7.26,0,0,0-1.67-.45c-3.87-.19-8.91,1.73-10.61-3.3s4.91-3.64,6.47-6.5a8.51,8.51,0,0,1,1.63-2A4.79,4.79,0,0,1,212,300a5.28,5.28,0,0,1,1.89,1.78c.94,1.7.52,3.34-.23,5Z"/><path class="cls-24" d="M208.47,300.87c.53,5.61-3.94,6.05-8.09,7.25,2.52,4.9,8.94-.49,10.87,4.54.39,1.91.66,3.81-.57,5.54-.94-5.23-4-3.83-7.12-2.27-2-2.3-4-4.58-6-6.87-2.5-2.24-1.71-4.68-.45-7.15a7.22,7.22,0,0,1,2.42-3.12c.79-.4,1.59-.81,2.37-1.24,2-1.22,4.06-1.91,6.25-.37A3.2,3.2,0,0,1,208.47,300.87Z"/><path class="cls-25" d="M199.93,302.91c-1,2-2.66,3.68-2.41,6.15a8.83,8.83,0,0,0-1.52.28,6.36,6.36,0,0,0-1.51,0c-1.77.61-3.2-.07-4.51-1.2a11.07,11.07,0,0,1-2.66-4.16,5.71,5.71,0,0,1,.31-3.69,4.8,4.8,0,0,1,1.84-1.62,7.86,7.86,0,0,1,3.64-.14C196.23,298.66,198,301,199.93,302.91Z"/><path class="cls-26" d="M189.14,318c-.35-1.66-.69-3.32-1-5-1-3.37-.9-6.13,3.52-6.58l2.86,2.93c.57,3.1,1.13,6.2,1.71,9.4l-5.4-1A7.1,7.1,0,0,0,189.14,318Z"/><path class="cls-27" d="M215.66,293.67c-2.48,2.06-2.68,5.14-3.57,7.91l-3.62-.71c-.28-1.09-.56-2.18-.83-3.27-2-3.92-1.86-6.71,3.59-6.61l1.91-.23Z"/><path class="cls-28" d="M199.93,302.91c-3,1-5.08-1.09-7.5-2.07-2-3.15-3-6.3,0-9.47a5.24,5.24,0,0,1,2.37-1.14c2.4-.25,4.23,1,6,2.33a6,6,0,0,1,1.37,2.2,8.21,8.21,0,0,1,.35,2.52,8.39,8.39,0,0,1-1.35,3.5C200.75,301.49,200.34,302.2,199.93,302.91Z"/><path class="cls-29" d="M200.51,297.48l-.5-1.86c2.39-3.23,2.28-7.48,4.37-10.85a4.74,4.74,0,0,1,3.59-1c1.83.63,3,1.73,2.87,3.84l.39,3.41c-2.93,1.27-2.89,4.14-3.59,6.61l-4.92,2.89C201.56,299.8,201.76,298.1,200.51,297.48Z"/><path class="cls-30" d="M200.51,297.48a3.59,3.59,0,0,1,2.21,3c-.52.12-1,.22-1.57.3C200.94,299.68,200.72,298.58,200.51,297.48Z"/><path class="cls-31" d="M193.72,291.77l-1.29,9.07-2.3-.9c-3.1-3.39-5.45-7-3.74-11.91a4.91,4.91,0,0,1,5.81-2C194.36,287.52,194.68,289.48,193.72,291.77Z"/><path class="cls-32" d="M210.84,287.58l-2.62-2.91a14.18,14.18,0,0,1-5.06-11.26,5.57,5.57,0,0,1,1-2.26c5.73-2,7,4,10.6,5.86,2.31,4.14.87,7.43-2.33,10.33C211.87,287.44,211.36,287.52,210.84,287.58Z"/><path class="cls-33" d="M199.43,294.24l-4.38-2.79c-1.71-2.45-.86-5.46-1.79-8.08.14-4.28-1.3-8.34-1.68-12.53-.28-3-.16-6.25,2.72-8.41,6.85,1.52,4.89,8,6.84,12.22.32,3.94-.44,8,1.06,11.81C203.09,289.7,202.66,292.47,199.43,294.24Z"/><path class="cls-34" d="M199.43,294.24c.09-2.46.18-4.93.26-7.39a3.33,3.33,0,0,1,4.07-1.86l1,.74q2.49,7.26-4.72,9.9A8,8,0,0,1,199.43,294.24Z"/><path class="cls-35" d="M195.53,284.12c-.16,2.44-.31,4.88-.47,7.33l-1.34.32q-.81-2.52-1.64-5.06c-3.14-2.7-4.51-5.6-1-9C194.72,278.33,195.76,280.79,195.53,284.12Z"/><path class="cls-36" d="M205.26,272.88c0,4.18,3.85,7.39,3,11.79l-3.48,1.06-.09-.59c-5.27-3.09-3.47-7.37-2-11.6A2.13,2.13,0,0,1,205.26,272.88Z"/><path class="cls-37" d="M228,60.73l-4.63-3.28,13.22-5.93,2,.11c1.06,1.8.66,3.45-.46,5C234.8,58.08,233.07,63.51,228,60.73Z"/><path class="cls-38" d="M239.73,51.09c.38,1.67.75,3.33,1.13,5-.59,2.81-1.77,3.58-3.88,1.11a3.53,3.53,0,0,1,.19-2.33c.47-1.08,1-2.16,1.43-3.23A2.65,2.65,0,0,1,239.73,51.09Z"/><path class="cls-39" d="M217.15,270q-1.32,2.09-2.62,4.17c-6.57,1.6-7.36-5-10.9-7.7a5.38,5.38,0,0,1-.16-3.79c1.76-3,4.53-3.26,7.57-2.81,1.79.56,1.7,2.49,2.65,3.67l.66,1.67Z"/><path class="cls-40" d="M213.69,263.57l-2.39-2.93c-4.45-2.49-5.16-5.95-2.64-10.23,4.18-2.09,4.83,1.68,6.42,3.89.26,1.12.52,2.24.79,3.36Q214.77,260.62,213.69,263.57Z"/><path class="cls-41" d="M205.3,265.63c2.93,3,4.95,7,9.23,8.57l.3,1.63c-.49.18-1,.34-1.47.5-5.63,2.86-5.21-4.21-8.51-5.17a4,4,0,0,1-1.63-5.24A1.6,1.6,0,0,1,205.3,265.63Z"/><path class="cls-42" d="M203.62,266.12a5.29,5.29,0,0,1,1.23,5c.14.57.27,1.15.41,1.72l-1.65.42a2.86,2.86,0,0,1-3.89.83c-1.38-4.53-3.7-8.88-2.53-13.88C202.11,259.16,201.93,263.67,203.62,266.12Z"/><path class="cls-43" d="M198.5,260c-1.76,5,.94,9.4,1.68,14.06.83,1.45.28,2.09-1.26,2.13-1.71-4.36-1-9.66-5-13.1a2,2,0,0,1-2.3.4c-1.93-1.55-2.19-3.63-1.91-5.89.23-4.68-.75-9.65,3.16-13.48a5.5,5.5,0,0,1,2.62-.8,4.83,4.83,0,0,1,2.63.94c2.28,2.15,2.35,5.09,2.83,7.88C200.33,254.84,201,257.93,198.5,260Z"/><path class="cls-44" d="M198.92,276.2l1.26-2.13,3.43-.77q.51,5.93,1,11.84l-4.95,1.71C198.76,283.35,197.83,279.85,198.92,276.2Z"/><path class="cls-45" d="M192.34,263.33c.51-.09,1-.17,1.53-.23-.46,7.09,2.9,13.87,1.66,21L192,278c-.08-.61-.17-1.23-.26-1.85-1.85-3.3-3.08-6.74-2.53-10.61C189.82,264.16,190.64,263.12,192.34,263.33Z"/><path class="cls-46" d="M185.55,71.38C186,74.73,184,78.8,188.38,81c.1.6.21,1.2.31,1.8,3.64,1.41,6.47,3.58,7.28,7.68a6.44,6.44,0,0,1-.21,2.86,5.18,5.18,0,0,1-4.5,3.21c-7.83-1.79-8.94-8.92-11.72-14.74-1.11-2.76-4.51-4.9-2.37-8.56l5-1.65Z"/><path class="cls-47" d="M177.17,73.24,182,79.37c-1.94,2.48-1.29,5.19-.67,7.89a7.19,7.19,0,0,1-.13,3.71c-1.25,2.42-3.19,2.69-5.51,1.79-2.52-1.69-3.68-4.61-5.91-6.58a7.08,7.08,0,0,1-.78-2.42,6.33,6.33,0,0,1,.92-3.58c2.5-2,2.48-5.88,5.59-7.4A3.85,3.85,0,0,1,177.17,73.24Z"/><path class="cls-48" d="M175.52,72.78c.13,3.45.14,6.86-3.56,8.76-3.73-1.75-5-5-5.43-8.8a3.87,3.87,0,0,1,2.59-3l5.58.39C175,71,175.25,71.9,175.52,72.78Z"/><path class="cls-49" d="M192.34,263.33l-1.44,2.25c-2.42,3.46,1.56,7.46-.92,10.92l-2.16-1.29c-5.57-4.35-4.87-11-6.25-16.9a5.46,5.46,0,0,1,3.05-4.74c4.1-1.4,5.67,2,7.85,4.19Z"/><path class="cls-50" d="M190,276.5c-.19-3.68-3.84-7.66.92-10.92.64,3.49,2.59,6.87.83,10.55Z"/><path class="cls-51" d="M223.58,64.31l1.72-.62c3,.89,5.27-2.82,8.37-1.33a3.48,3.48,0,0,1,1.42,1.94c-.79,3.07-2.54,5.87-2.58,9.15-2.16,2.7-4.43,5.33-5.75,8.6-1.93,1.87-3.57,4.07-5.87,5.58-2.84,1.07-5.09.53-6.45-2.39C215,77.19,219.46,70.82,223.58,64.31Z"/><path class="cls-52" d="M223.58,64.31c.43,7.75-4,13.5-8,19.39a1.65,1.65,0,0,1-2.1.63c-3.15-2.54-1.8-6.16-2.23-9.35a5.85,5.85,0,0,1,.55-2.4l.87-.89Z"/><path class="cls-53" d="M234,63.15c-2.86.52-5.67,1.91-8.65.54l2.74-3c3.56-1.14,4.93-5.71,9.13-5.86l.57,2C237.58,59.61,239,63.32,234,63.15Z"/><path class="cls-54" d="M206.59,77.2c-.33-3.52,2.64-5,4.42-7.26.55.58,1.09,1.17,1.63,1.76l-.11.2a20.07,20.07,0,0,0-.59,2.77,4.89,4.89,0,0,1-.9,1.7,4.42,4.42,0,0,1-2.56,1.3A9.5,9.5,0,0,1,206.59,77.2Z"/><path class="cls-55" d="M242.33,59.35l.79,3.46L242.79,64c-1.66,2-3.6,3.5-6.38,3.39-1.28-.38-2.29-1-2.1-2.57-.11-.57-.23-1.13-.36-1.69q1.91-3.15,3.79-6.3c1.32.87,2.22,0,3.12-.76Z"/><path class="cls-56" d="M215.08,254.3a6.18,6.18,0,0,1-4.55-4.25,5,5,0,0,1-2.52-2.84,11.07,11.07,0,0,1-.17-5.21c2.38-3.9.44-8.28,1.31-12.37a16.36,16.36,0,0,1,4.07-8.18,5.12,5.12,0,0,1,5-1.25,6.8,6.8,0,0,1,3.74,3.6c1.31,3-.74,5.76-.49,8.68.52,6.71-3.48,12.43-4.11,18.89l-1,.75C215.92,252.84,215.5,253.57,215.08,254.3Z"/><path class="cls-57" d="M209.81,246.7l.72,3.35c-1.78,3.68.21,7.08.77,10.59-1.48,3.72-4.43,1.42-6.76,1.63-5.13-2.76-4.23-7.53-4-12.08a6.08,6.08,0,0,1,2.84-2.95C205.42,245.79,207.51,245,209.81,246.7Z"/><path class="cls-58" d="M201.67,250.35q1.44,6,2.87,11.92c.25,1.12.51,2.25.76,3.36l-1.68.49c-3.13-.84-4.36-3.28-5.12-6.11-.41-2.39-1.43-4.77-.07-7.18,1.27-1.08-.09-3.52,2-4.06C201.17,248.56,201.71,249.43,201.67,250.35Z"/><path class="cls-59" d="M192.47,257.76c-2.52-.51-5.05-1-6.12-3.82-5.15-3.31-3.65-7.13-.87-11.06a5.13,5.13,0,0,1,7.55-.12,2.14,2.14,0,0,1,.25,2.5Z"/><path class="cls-60" d="M196.94,244.73l-2.15,0a5.67,5.67,0,0,1-1.53-1.52,14.33,14.33,0,0,1-3.71-2.71,5.32,5.32,0,0,1-1.46-4.8c1.06-4.35,3.07-7.25,8.21-5.49a8.86,8.86,0,0,1,3.54,8.13C199.92,240.91,200.21,243.63,196.94,244.73Z"/><path class="cls-61" d="M196.94,244.73l.57-5.79c1.72-2.54,3.76-1.75,5.84-.57,3.69,3.24,1.68,7.35,1.67,11.16l-3.35.82c-2.08-.47-1.95,1.93-3.24,2.48Q197.68,248.78,196.94,244.73Z"/><path class="cls-62" d="M194.32,243.18a15.35,15.35,0,0,1,.47,1.5,6.29,6.29,0,0,1-1.51.58c-.11-.55-.23-1.11-.34-1.66Q193.28,242.25,194.32,243.18Z"/><path class="cls-63" d="M178.73,87.15c-.86-3.42-1.79-6.86,3.28-7.78,1.69,6,4,11.69,9.19,15.65,2.15,1.66,1.42,3.12-.3,4.53-4.54,1.27-7-1.32-8.83-4.87C180.59,92.35,182.62,88.44,178.73,87.15Z"/><path class="cls-64" d="M190.43,98.71c.25-1.23.51-2.47.77-3.7,1-.92,2.06-1.84,3.08-2.77a1.86,1.86,0,0,1,2.2-.62,6.07,6.07,0,0,1,3.28,5.28,8.18,8.18,0,0,1-.13,2.61c-.94,2.94-1.79,5.94-4.69,7.7A5.69,5.69,0,0,1,191,108C186.76,105.14,187.4,102,190.43,98.71Z"/><path class="cls-65" d="M195.66,92.28l-1.38,0a8.8,8.8,0,0,0-.45-1.43l5.29-1.11C199.37,92.45,197.8,92.75,195.66,92.28Z"/><path class="cls-66" d="M169.12,69.77l-1.42,2.14c-.89,1.91.61,3.79.12,5.71-.68,2-1.41,3.95-3.6,4.82-3.71.31-5.67-1.71-6.61-5l1-6.85C162.14,70.13,165.43,67.41,169.12,69.77Z"/><path class="cls-67" d="M157.61,77.41c3,.35,4.69,3,7.09,4.34,5.7,3.44,4.67,9.52,5.79,14.74A5.32,5.32,0,0,1,169.44,99c-7,3.75-7.89-3.25-11.05-6.26a1.12,1.12,0,0,0-.72-.32c-.17,0-.3.36-.43.66a5.39,5.39,0,0,1-3.39,4.32,3.87,3.87,0,0,1-2.66-.71c-2.68-4.5-3-9-.21-13.61C153,81,153.67,77.25,157.61,77.41Z"/><path class="cls-68" d="M190.43,98.71c.61,2.87-1.56,6.37,1.94,8.58l1,.91a4.34,4.34,0,0,1,0,2.62c-1.91,4.4-2.47,10.59-10,7.57-4-4.82-.54-12.08-5.46-16.6-.47-3.55-4.44-6.54-1.68-10.6,1.22.3,2.46.75,3.35-.64,3.3-2.23,2.32,2.48,4.18,2.58C186.25,94.64,187.09,98.18,190.43,98.71Z"/><path class="cls-69" d="M176.18,91.19l4,10c-3.41,1.57-4.91-1.24-6.87-3-1-1.62-2.29-3-2.89-4.86-.65-2.8-1.93-5.67.82-8.13C175.05,85.46,175.39,88.51,176.18,91.19Z"/><path class="cls-70" d="M165.65,76l2-4.09c1.82,3,3.88,6,4.26,9.63l-1.51,2.22a2.53,2.53,0,0,1-3.83.57C166,81.59,163.84,79,165.65,76Z"/><path class="cls-71" d="M167.43,84.48l3-.72q.45.7.84,1.44l1.86,8.65c.27,1.93.1,3.67-2,4.51a2.16,2.16,0,0,1-1.81-1.8C168.81,92.51,166.22,88.79,167.43,84.48Z"/><path class="cls-69" d="M183.71,93.13c-2.52,1-2.33-2.47-4.18-2.58-.27-1.13-.54-2.27-.8-3.4.47-1,.68-2.42,1.46-2.88,1.55-.91,1.49.86,1.72,1.66C182.6,88.3,183.12,90.73,183.71,93.13Z"/><path class="cls-72" d="M195.66,92.28l3.46-2.58,1.8-6.11,5.56-5.23c2.29.29,3.18,1.94,3.77,3.87a21.81,21.81,0,0,1-3.93,14.6c-2.12,3.15-4.76,5.15-8.46,2C197.13,96.61,196.39,94.45,195.66,92.28Z"/><path class="cls-73" d="M208.35,83.64c-.62-1.76-1.24-3.53-1.86-5.28a1.58,1.58,0,0,1,.1-1.17l1.68-1a9.55,9.55,0,0,0,1.41-1.63l1.54-1.15a1.61,1.61,0,0,1,1.66-.16c2.66,3.41,1.58,7.16,1,10.87C211.86,85.94,209.87,87.53,208.35,83.64Z"/><path class="cls-74" d="M208.35,83.64c1.75,1.14,3.62.92,5.51.47l1.69-.41c1.23,2.72,3.45,2.75,5.89,2.18,5.63,1,1,4.24,1.37,6.39-4.43,4.15-7.32,9.47-10.81,14.33-.66,7.88-6.25,14.58-5.47,22.82a7.27,7.27,0,0,1-3.73,5,4.9,4.9,0,0,1-2.55,0c-3.71-1.9-3.14-6.81-6.39-9a8.16,8.16,0,0,1-1.14-2.31,10.33,10.33,0,0,1,.45-6.31c4.73-5.18,4.13-11.73,4.56-18l.13-.06C206.36,97.2,204.54,88.47,208.35,83.64Z"/><path class="cls-75" d="M221,91.38c.16-1.83.32-3.67.47-5.5-1.31-4.07,1.26-4.57,4.28-4.63,2.25-3.33,5.18-1.84,8-1.13a5.53,5.53,0,0,1,3.34,1.53c1.41,6.34-.08,10.69-7.55,10.93-.84,0-1.69.09-2.53.15C224.82,93,222.62,93.42,221,91.38Z"/><path class="cls-76" d="M233.33,83l-7.61-1.75c-1.2-4.61,1.47-6.82,5.18-8.4a7.94,7.94,0,0,1,4.32,3.64C236.56,79.23,235.28,81.21,233.33,83Z"/><path class="cls-53" d="M233.5,75.91c-2.42.3-2.94-1-2.6-3.06-.88-3.53-.44-6.49,3.41-8l2.16,1.28c2.49,2.31,1.51,5,1,7.75C236.49,75.26,235.43,76.42,233.5,75.91Z"/><path class="cls-77" d="M212.88,73.24a5.45,5.45,0,0,1-1.66.16l1.31-1.5A9.11,9.11,0,0,1,212.88,73.24Z"/><path class="cls-77" d="M209.68,74.55l-1.41,1.63Z"/><path class="cls-78" d="M236.34,73.22c-2.33-2.41-.42-4.74.13-7.1l6.06-3.34.54,1.69c-2.78,2.6-1.73,5.86-1.57,9a1.72,1.72,0,0,1-1.26,1.65A3.62,3.62,0,0,1,236.34,73.22Z"/><path class="cls-79" d="M260.48,84.13c.46,1.75.62,3.47-.48,5.08-1.77,2.68-4,4.52-7.45,4.37-2.94-.69-6-1.24-7.16-4.67,3.12-4.56,9.77-1.93,13-6.37Z"/><path class="cls-80" d="M214.66,222.14c-3.87,6.42-.4,14.25-4,20.72-3.27.54-5.06-1.73-7-3.7-1.37-2.12-2.5-4.3-1.95-6.95.38-2.48.77-5,2.45-7a21.87,21.87,0,0,1,2.39-2.79,11.11,11.11,0,0,1,4.24-2.17,4.13,4.13,0,0,1,3.29.89Z"/><path class="cls-81" d="M204.25,239c3.46-.9,5.62.35,6.39,3.88-.27,1.28-.55,2.56-.83,3.84L205,249.53c-3.14-2.82-2.31-6.59-2.42-10.13A1.12,1.12,0,0,1,204.25,239Z"/><path class="cls-82" d="M218,221.33l-1.7.4-1-.73-.63-1.06a6.53,6.53,0,0,1,.7-4.85,2.77,2.77,0,0,1,3.35-1.06c1.6,1.11,1.81,2.81,1.95,4.54A6.36,6.36,0,0,1,220,221l-.59-.14Q219.32,222.88,218,221.33Z"/><path class="cls-83" d="M218,221.33l1.41-.45c.14,1.14.29,2.28.43,3.42C219.26,223.31,218.65,222.32,218,221.33Z"/><path class="cls-83" d="M215.93,220c.14.56.28,1.13.41,1.69l-.84.21-.84.2h-.1C213.82,220.66,214.4,220,215.93,220Z"/><path class="cls-84" d="M194.32,243.18a12.89,12.89,0,0,0-1.38.41l-3.89-.89a1.65,1.65,0,0,1-.35-2.15,2.45,2.45,0,0,1,3.33-.39Z"/><path class="cls-85" d="M188.8,240.61c.08.7.16,1.39.25,2.09l-.84.17-.82.22c-.16-.55-.32-1.1-.46-1.65l.76-.8Z"/><path class="cls-86" d="M194.53,230.58c-3.13,1.11-3.38,4.45-5.13,6.63a2.57,2.57,0,0,1-2.56,0c-2.11-1.38-2.76-3.47-2.88-5.83.45-3.06.14-6.33,2.34-9a7.66,7.66,0,0,1,7.43-2.44,11,11,0,0,1,3.67,1.77,5.75,5.75,0,0,1,1.61,6.24C198.06,229.86,196.36,230.33,194.53,230.58Z"/><path class="cls-87" d="M194.53,230.58l3.57-2.65c3.53-1,4.78,1.59,6.26,3.87,0,2.39-.07,4.79-.11,7.18-.55.13-1.11.27-1.65.42l-5.09-.46C196.52,236.15,195.52,233.36,194.53,230.58Z"/><path class="cls-88" d="M188.22,237.64l1.18-.43,2.63,2.95-3.23.45v.12a1.84,1.84,0,0,1-1.44-1.31l.08-1.06Z"/><path class="cls-89" d="M197.73,98.84c2.9,6.64,4,13-2.4,18.49-3.52-1.15-2.8-3.86-2.37-6.46a8.15,8.15,0,0,0,.43-3.76,2.39,2.39,0,0,1,1.05-2.11Z"/><path class="cls-90" d="M194.44,105c0,.57-.06,1.14-.12,1.7-.29,1.36-.9,1.52-1.81.47l-.14.12Z"/><path class="cls-91" d="M167.43,84.48q1.5,6.87,3,13.73a1.18,1.18,0,0,1-1.76-.07l-4-16.39c-.32-2-.64-4,1-5.75C166.24,78.83,166.84,81.65,167.43,84.48Z"/><path class="cls-92" d="M154.64,90.86c-.61-2.42-1.8-4.9.64-7.52,5.49,4.34,6,12.12,12,15.58a3.51,3.51,0,0,1,1.28,2,4.51,4.51,0,0,1-.8,2.35,5.94,5.94,0,0,1-2.21,1.29,5.41,5.41,0,0,1-4.82-1.38C157,99.94,156.91,94.87,154.64,90.86Z"/><path class="cls-93" d="M152.18,96.81l1.87-.08c4.7-.9,5.23,3,6.77,5.82.71,1.93,1.17,3.86,0,5.79a5.42,5.42,0,0,1-5.65,1.68c-5.1-3.45-6.88-7.65-3-13.15Z"/><path class="cls-94" d="M159.1,102.5a10.49,10.49,0,0,0-5-5.77c.2-2,.39-3.91.59-5.86,3.7,2.82,5.54,7,7.67,10.89A2,2,0,0,1,159.1,102.5Z"/><path class="cls-95" d="M168,100.49a2.42,2.42,0,0,1-.68-1.57,3.05,3.05,0,0,0,1.36-.78l1.76.07.25-.25c2.28,1,3.05,2.79,2.91,5.12a5.12,5.12,0,0,1-1.07,2.21,3.29,3.29,0,0,1-2.32.38,3.63,3.63,0,0,1-1.76-2.92A4.77,4.77,0,0,0,168,100.49Z"/><path class="cls-96" d="M152.17,96.87c-.26,4.31,1.47,8.1,3.16,11.89,2.49,1.59,5,3.18,3.9,6.83a5.39,5.39,0,0,1-3.37,2.66,7.76,7.76,0,0,1-2.92.18c-7-1.93-5.72-9.66-9.68-13.74-.63-3.28-.15-5.91,3.84-6.45Z"/><path class="cls-97" d="M147.1,98.24a6.55,6.55,0,0,0-2,6,1.25,1.25,0,0,1,.48,2.13c-2.49,1.19-4.41.23-6.1-1.61a7,7,0,0,1-1.15-2.44c-1-5.16.91-7.78,6.41-7.15a6.67,6.67,0,0,0,1.61,0Z"/><path class="cls-98" d="M195.08,110.24q.12,3.56.25,7.09c-.08,1.87.81,3.87-.72,5.55-2.67,3.09-4.1,7.4-8.62,8.65-2.73,0-3.7-1.68-3.85-4.12.23-2.47.57-4.93.81-7.4a4,4,0,0,1,1.64-1.79c5.52-.71,3.94-7.51,8.07-9.41C193.85,108.65,194.24,109.81,195.08,110.24Z"/><path class="cls-99" d="M184.59,118.22c0,.53,0,1,.1,1.57a4.66,4.66,0,0,1-5.33,2,6.7,6.7,0,0,1-3.1-3.33,12.22,12.22,0,0,1-2.12-7.34c2.35-4.59-2.32-10,1.58-14.41l4.51,4.45C184.65,106.1,184.25,112.26,184.59,118.22Z"/><path class="cls-100" d="M195.08,110.24l-2.42-1.43a11.36,11.36,0,0,0-.15-1.64l1.81-.46C194.57,107.88,194.82,109.06,195.08,110.24Z"/><path class="cls-101" d="M175.72,96.73c.26,4.63,3.41,8.92,1.6,13.79-4.16.25-5.79-1.79-5.27-5.79L170.67,98l2.48-4.11Z"/><path class="cls-102" d="M185.26,241.7l1.36-2.1c.31-.79.8-.87,1.44-.36a4.65,4.65,0,0,1,.75,1.49l-1.88.71Z"/><path class="cls-103" d="M204.94,129.24c-1-1.38-2.5-2.84-1.68-4.61,2.93-6.37,2.7-13.78,6.58-19.81a6.88,6.88,0,0,1,6.4,3.25c3.27,4.49,6.56,9,1.31,14.26-3.17,1.58-6.31,3.21-8.11,6.52C208,129.9,206.55,130.39,204.94,129.24Z"/><path class="cls-104" d="M214.45,109.1c-1.68-1.28-3.83-2-4.61-4.28,3.29-4.83,5.7-10.39,11.13-13.44l6.81-1.63c2.83,2.48,1.3,4.33-.68,6.45-3.73,4-6.6,8.65-10.2,12.74A2.89,2.89,0,0,1,214.45,109.1Z"/><path class="cls-105" d="M185.4,130.39c2.67-3,4.09-7.51,9.21-7.51.21.56.42,1.13.64,1.69l.24,1.17c-.16,4-1.84,7.83-.55,11.86a17,17,0,0,1-1,6.31,4.26,4.26,0,0,1-3.32,2.16,5.45,5.45,0,0,1-3.76-1.84,9.86,9.86,0,0,1-1.27-2.61C184.93,137.89,182.48,134.18,185.4,130.39Z"/><path class="cls-106" d="M204.94,129.24l3-2.43c1.85-1.53,3.25-5,6.29-1.45a29.72,29.72,0,0,1,2.84,5,4.88,4.88,0,0,1-.12,2.4,6.58,6.58,0,0,1-2.62,2.61,10.68,10.68,0,0,1-4.53,2.37c-3.47.38-6.08-.79-7.45-4.17Z"/><path class="cls-107" d="M195.25,124.57c7.51-.19,2.82,6.72,5.44,9.37a4.61,4.61,0,0,1,0,3.78c-2.83,4.59-5.29,3.77-7.52-.51-1.35-4.39,1.15-8.33,1.42-12.54Z"/><path class="cls-108" d="M199.38,136.05c.43-.71.87-1.41,1.31-2.11l1.67-.4,7.62,1.77c2.13,3.09,1.19,5.26-2,6.76C204.6,140.77,198.65,143.17,199.38,136.05Z"/><path class="cls-109" d="M216.16,108.69c-.36-5.19,3.29-8.2,6.18-11.71,1.91-2.31,5.61-3.35,5.44-7.23l1.74-.38c1.27,2.11,5,1.34,5.38,4.5-2.93,6.79-5.11,14.08-12.23,18C220.07,111.71,217.66,111.12,216.16,108.69Z"/><path class="cls-110" d="M240.25,74.1c.69,2,.05,3.86-.77,5.68-.43,1.35-.53,3.08-2.74,2.43l-3.41.8c.06-2.37.11-4.74.17-7.11l2.84-2.68Z"/><path class="cls-111" d="M236.74,82.21l2.74-2.43c.9,4.53-3,8.38-1.85,13a2.73,2.73,0,0,1-3.56.93c-1.65-1.29-3.82-2-4.56-4.3C236.5,91.6,234.33,84.59,236.74,82.21Z"/><path class="cls-112" d="M234.07,93.66l3.56-.93,4.78-1.3c3,2.13,1.84,4.5.4,6.88-3.32,3.8-5.49,8.45-9,12.09-2.6,2.85-4.76,6.33-9.26,6.47-4.39-2.23-4.84-3.34-2.45-6C227,105.81,226.53,96.93,234.07,93.66Z"/><path class="cls-113" d="M240.3,97.48c1-1.91,2.64-3.6,2.11-6a7.18,7.18,0,0,0-.23-1.45l3.21-1.07,6.11,2.32c1.61,5.73-3.14,6.56-6.51,8.47A4.77,4.77,0,0,1,240.3,97.48Z"/><path class="cls-114" d="M244.19,98.36l7.31-7.13,8.5-2c.12.57.25,1.14.37,1.71-.55,6.88,7.56,7.29,9.3,12.47a3.67,3.67,0,0,1-.21,2.44,6.27,6.27,0,0,1-4.28,2.58c-1.68.16-3.31-.34-5-.35-3.82,0-7.83,2.56-11.42-.78-1.56-3.26-5.84-2.07-7.77-4.73C240.63,100.06,241.28,98.35,244.19,98.36Z"/><path class="cls-115" d="M270.28,102.7a1.83,1.83,0,0,1-1.15,1.17c-2.29-1.7-4.4-3.72-6.9-5-4-2.06-3.28-4.81-1.86-7.93C264.39,94.25,268.05,97.87,270.28,102.7Z"/><path class="cls-116" d="M221.66,213.21c.23,1.15.45,2.31.68,3.47l.36,1.72a1.51,1.51,0,0,1-2.13.49c-1.13-1.88-1.39-4-1.81-6.11a2.22,2.22,0,0,1,1.82-1.5,1.54,1.54,0,0,1,1.09,1.08C221.8,212.89,221.79,213.18,221.66,213.21Z"/><path class="cls-117" d="M220.94,218.82l1.76-.42c.41,2.19-.63,2.9-2.66,2.62l-.37-1.71.21-1.35Z"/><path class="cls-118" d="M207.87,223.78l-1.11,2.09c-3.33.29-5-1.75-6.27-4.4a34,34,0,0,1-1-10c.27-3.93-1.88-5.57-5.3-6.27a5.38,5.38,0,0,1-1.66-1.92,6,6,0,0,1-.29-2.55,6.16,6.16,0,0,1,1.12-2.3c2.09-1.36,3.53-3.65,6.1-4.36,3.75-.1,6,1.94,6.48,5.43.3,2.3,1.12,3.66,3.24,4.34a6.12,6.12,0,0,1,2.67,3.82,14.31,14.31,0,0,1,.4,2.34c-.18,2.71-1.29,5.22-1.65,7.89a22.77,22.77,0,0,1-1.31,3.05A9.13,9.13,0,0,1,207.87,223.78Z"/><path class="cls-119" d="M203.23,219.48l3.53,6.39-2.4,5.92a12.7,12.7,0,0,1-6.26-3.86c-.33-2-.69-3.88-2.66-4.94a7.32,7.32,0,0,1-2.33-1l.1-.39c-1.91-1.8-.44-3.45.24-5.13,1.3-2,1.59-4.27,1.94-6.56a3,3,0,0,1,2.81-2.18C203.51,210.11,199.3,216.55,203.23,219.48Z"/><path class="cls-120" d="M215.93,220l-1.37,2.1-3.7-.87-1-.61a4.05,4.05,0,0,1-.45-3.34c.49-1.89.59-4.08,3.32-4.18,1.8.46,2.37,2,3.1,3.46.42,1.13.81,2.27.08,3.44Z"/><path class="cls-120" d="M207.87,223.78c-.28-1.13-.56-2.27-.83-3.41,1.7-1.62,2.62.18,3.79.88l0,0C211.19,223.7,209.82,224.09,207.87,223.78Z"/><path class="cls-121" d="M215.2,216.69l-2.59-3a4,4,0,0,1,.5-3.52c1.19-1.32,2.54-2.1,4.36-1.26a3.41,3.41,0,0,1,1.18,3.29,2.67,2.67,0,0,1-.69,2.22l-1.2,1.79Q216.54,218.15,215.2,216.69Z"/><path class="cls-122" d="M218,214.39l-.16-2.09a1.09,1.09,0,0,1,1.66-.29c.49,2.27,1,4.54,1.48,6.81-.43.15-.85.31-1.27.49Z"/><path class="cls-83" d="M215.2,216.69l1.56-.51c-.28,1.29-.56,2.57-.83,3.86Z"/><path class="cls-123" d="M238.18,193.17l-5.05,1.35-2.23-1.31a5.46,5.46,0,0,1-2.19-3.25,5.29,5.29,0,0,1,1.18-3.78c1.76-1.73,3.76-2.43,6.17-1.5,3.8,1,5.73,3.9,7.22,7.23Z"/><path class="cls-124" d="M247.08,178.38l-8.14,2.17-1.29-.31a8.64,8.64,0,0,1-3.6-6.65c.42-3.05,2.69-4.11,5.24-5a18.26,18.26,0,0,0,10.36-8.53,48.08,48.08,0,0,1-11,1.46c-5.56.13-7.43-2.2-5-7.43a5.43,5.43,0,0,1,3.14-1.78c4.59.74,9.18,1.46,13.22-1.85a10.4,10.4,0,0,1,2.11-1c6.52-1.57,3.69-9.12,7.82-12.24,3.67-2.77,7.54-3.35,11.68-1.14a5.19,5.19,0,0,1,1.49,2.17,96.41,96.41,0,0,1-1.66,12.05c-1.27,4.65-4.26,8.52-6,13a22.63,22.63,0,0,1-2,3C259.76,172.75,252.79,174.71,247.08,178.38Z"/><path class="cls-125" d="M236.06,184.68c-1.44,1-2.32,3-4.57,2.68-3.81.95-7.81,4.31-11.15-.87-1.71-4.35-.27-7.25,4.06-8.8,5.25-1.85,10.15-1.85,14.2,2.68l.34.18Z"/><path class="cls-126" d="M188.11,222.86c-3.28-3.25-2.37-7.65-3.19-11.58-2.11-4-2.93-8.44-3.68-12.87a2.39,2.39,0,0,1,2.24-1.56c4.35,1.67,3.63,6.06,5,9.32a6.63,6.63,0,0,0,5.43,5.42,4.8,4.8,0,0,1,1.86,1.48,5.14,5.14,0,0,1-.1,4.63c-.82,1.31-1.63,2.63-2.44,3.94Z"/><path class="cls-127" d="M193.11,222l2.33,1Z"/><path class="cls-128" d="M188.06,239.24q-.72.19-1.44.36l1.26-2.08A5.54,5.54,0,0,1,188.06,239.24Z"/><path class="cls-129" d="M115.83,175.67,114.75,174c-7.09-6.19-2.19-11.24,1.56-16.4a17,17,0,0,1,4.68-3.33,8.92,8.92,0,0,1,6.86.27c2.9,3.63,9.53,2.73,10.61,8.63-.93,5.68-6.59,4.53-9.81,6.82-.32,3.38,3.48,2.26,4.53,4.1a3.8,3.8,0,0,1-1.47,7c-1.71.38-3.44,0-5.16.12C122.46,180.39,118,180.33,115.83,175.67Z"/><path class="cls-130" d="M118.62,159c-4.42,4.21-5.62,9.24-3.87,15a2.42,2.42,0,0,1-.86.51c-3.56-1.79-9.14-.42-10.06-6.38,1.06-3.09,3.16-5.87,2.82-9.4a5.24,5.24,0,0,1,3.91-3.22C113.66,155.72,116.78,155.88,118.62,159Z"/><path class="cls-131" d="M135.88,88.17,140.44,91l4.3,4.15c-2,1.7-5.6,2.49-3.87,6.46-2.58,2.13-5,1.18-7.33-.44A9.22,9.22,0,0,1,130.26,97a7.4,7.4,0,0,1,0-4C131.09,90.23,133.47,89.18,135.88,88.17Z"/><path class="cls-132" d="M120.4,77.93l.63,2c.09,1.19.77,2.26.74,3.48a7.66,7.66,0,0,1-1.28,3.42,13.7,13.7,0,0,1-3.5,3.58,7.68,7.68,0,0,1-6,2.26c-2.94-.44-4.78-2.58-6.82-4.43-1.33-2.13-2-4.28,0-6.45,2.52-2.29,3.4-6.13,7-7.38,2.52.81,4.6,2.92,7.52,2.57Z"/><path class="cls-133" d="M172.05,104.73l5.27,5.79c.5,2.39,1,4.78,1.49,7.17-1.81,5.63-5.95,6.64-10.78,4.76-5.15-2-8.94-9.78-7.76-14.74l-1.17-5.21,3.22-.74,3.85,1c1.67.44,2.44,2.47,4.35,2.47A2.62,2.62,0,0,0,172.05,104.73Z"/><path class="cls-134" d="M170.52,105.21c-3.53,2.84-3.39-.77-4.34-2.47l1.84-.52.84.59c.37.94.61,2,1.67,2.42Z"/><path class="cls-135" d="M168,100.49l1.52,1.83c-.58.63-1.07.56-1.46-.2l0,.1A14.28,14.28,0,0,1,168,100.49Z"/><path class="cls-136" d="M160.27,107.71c2.35,10.49,9.47,14.33,18.54,10,.27,1,.54,2.06.82,3.08,4.32,5.39,2.72,8-3.87,8.39-5.37.72-9.67-2-14.12-4.35-2.49-2.65-5-5.3-3.26-9.4q-1.53-3.31-3-6.65Z"/><path class="cls-133" d="M168,102.12a14.62,14.62,0,0,1,1.46.2l1,2.91Z"/><path class="cls-137" d="M145.48,105.9c-.12-.56-.25-1.12-.38-1.69,5.39,2.35,4.26,9.1,8.35,12.32,3.72,9.54-1.93,18.59-12.21,19.53-4.25-.69-7.63-3.29-11.36-5.14-2.18-2.1-5.3-3-7-5.72-.46-5.62-4.91-10.51-3-16.56a3.82,3.82,0,0,1,2-1.51c4.66.22,6.94,4.11,9.39,7,4.09,4.8,6.69,4.32,7.66-1.49C139.57,108.33,142.12,107,145.48,105.9Z"/><path class="cls-138" d="M141.39,133.8c7.72-1.7,7.72-1.7,5-12.79,7.86,5.85,6.18-.92,7.07-4.48l1.68-.38c4.5,2.81,6.15,8.06,9.9,11.53a7.22,7.22,0,0,1,.51,2.48c-.69,4.46-4.26,7.94-3.75,13,.36,3.61-2.82,5.32-6.33,5.74-3.26-.07-5.76-1.72-8-3.84C146.61,140.69,139,140,141.39,133.8Z"/><path class="cls-139" d="M163.43,128.55c-3.76-3.47-5.88-8-8.3-12.4l3.25-.74,5.51,7.71a2.63,2.63,0,0,1,1.44,1.62A3.59,3.59,0,0,1,163.43,128.55Z"/><path class="cls-140" d="M145.48,105.9c-4.53,4.69-3.51,11.88-8.13,16.94-2.69,3-5.54,2.7-5.34.69.79-8-7.89-9.64-9.41-15.73,1.73-2.42,3.83-2,5.76-.48,1.78,1.38,3,.76,4.28-.61,2.36-2.46,5-4.15,8.62-3.4Z"/><path class="cls-141" d="M141.26,103.31l-7.67,5.42c-4.17.18-6.18-1.76-5.89-6,1.36-3.12,4-3.63,7-3.36l6.18,2.21Z"/><path class="cls-142" d="M164.32,124.74c-.14-.54-.28-1.09-.43-1.63,3.5,2.31,7.75,1.26,11.48,2.53,2.2,6.51,6.35-.58,9.22,1.33-.11,1.23-.54,2.54.81,3.42q1.33,5.87,2.66,11.72c-.63,1.55-1.25,3.12-3.17,3.52a3.25,3.25,0,0,1-2.92-1.87c-3.06-4.38-8.41-4.76-12.64-7.13A33.59,33.59,0,0,1,164.32,124.74Z"/><path class="cls-143" d="M184.59,127c-3.33,1.29-7.52,8.61-9.22-1.33,7.07,3.33,4.19-2,4.26-4.87l5.06-1A12.29,12.29,0,0,1,184.59,127Z"/><path class="cls-144" d="M222.06,110.87c-.78,2.66,1.16,3.63,2.93,4.69,1.35,1.47,1.1,3.1.49,4.77-3.73,2.82-3.21,9.7-9.55,10-1.43-.56-3.33-.75-2.54-3.12,1.17-1.79-.89-4.82,2.25-5.86,6.5-4.77-3.28-8-1.19-12.29l1.71-.41C218.61,108.11,220.82,108.18,222.06,110.87Z"/><path class="cls-145" d="M215.64,121.39l-2.25,5.86c-1.56-3.26-3.59-.75-5.44-.44C209.51,123.58,210.81,120,215.64,121.39Z"/><path class="cls-146" d="M199.38,136.05c1.42,4,7,1.16,8.45,5.18a5.44,5.44,0,0,1,3.59,4.32c.94,3,.72,5.86-1.69,8.2a3.77,3.77,0,0,1-2.69.65c-2.4-.9-3-3.15-3.75-5.21-1.3-5.24-6-1.85-8.8-3.46-1.2-.64-1.55-1.83-2-3-1-1.73.22-3.24.5-4.84.09-.81.49-1.07,1.24-.68C196.78,140.4,198,138,199.38,136.05Z"/><path class="cls-147" d="M192.51,142.75l2.15,1.72c2.53,1.74,2.15,4.37,2.14,6.9a7.46,7.46,0,0,1-.1,2.58c-.79,2.12-1.87,4-4.28,4.61a3.47,3.47,0,0,1-3.37-1.62,25.72,25.72,0,0,1-1.11-6.46A6.74,6.74,0,0,1,191,145Z"/><path class="cls-148" d="M194.25,137.23c-.42.21-.83.44-1.24.68-4.2-5-.77-9,1.58-13.24C197,128.93,193.19,133,194.25,137.23Z"/><path class="cls-149" d="M185.32,144.7l2.74-2.59c.3.66.59,1.32.89,2a1.81,1.81,0,0,1,.81,1.64c-.13,1-.2,2-.32,3-.09.7-.16,1.39-.21,2.1a2.11,2.11,0,0,1-1.69,1.18,4.3,4.3,0,0,1-2.09-.86A5,5,0,0,1,184,148,6,6,0,0,1,185.32,144.7Z"/><path class="cls-150" d="M188.6,151.15l-.45-3.43c.26-.74.54-1.47.87-2.18,0-.48-.06-1-.08-1.44L191,145c.92,2.15-.54,3.91-1,5.84A.85.85,0,0,1,188.6,151.15Z"/><path class="cls-151" d="M215.93,130.37c2.79-3.63,2.16-9.8,8.19-11A4,4,0,0,1,228,121.2a6.66,6.66,0,0,1,.84,2.11c.24,1.48-.26,2.93-.25,4.4a7.13,7.13,0,0,1-.42,2.09,6.91,6.91,0,0,1-1,1.79,12.34,12.34,0,0,0-1.22,1.56,7.81,7.81,0,0,0-.7,2.86,17.45,17.45,0,0,1-1,4.09c-.35,1.1-.77,2.17-1.05,3.31a5.8,5.8,0,0,1-1.36,2.12,3.56,3.56,0,0,1-2.56.55,5.21,5.21,0,0,1-2.18-1.7c-1.63-4.06-3.33-8.11-.77-12.42Z"/><path class="cls-152" d="M216.35,132q1.65,6.79,3.29,13.58a4.28,4.28,0,0,1-2.18,1.93,4.76,4.76,0,0,1-5.27-1.86c-2.43-4.43-1-8.62.81-12.79Z"/><path class="cls-153" d="M213,132.82c-.13,4.14-.24,8.27,1.11,12.27-1.31,1.85-3,2.15-5,1.23l-1.29-5.09c.72-2,1.43-3.95,2.15-5.92Z"/><path class="cls-154" d="M226.62,122.34l-2.5-3,.87-3.78,7.3-7.18a1.48,1.48,0,0,1,1.94-.73A3.89,3.89,0,0,1,235,111a25.75,25.75,0,0,0-1.75,5.7,7.92,7.92,0,0,1-.72,2.32C231.07,121,229.72,123.29,226.62,122.34Z"/><path class="cls-155" d="M234,108c-.56.12-1.13.25-1.7.36l8-10.9,3.89.88A6.07,6.07,0,0,0,242,103c.88,4.25-1.45,6.17-5.15,7.1A3.61,3.61,0,0,1,234,108Z"/><path class="cls-156" d="M260.25,105.31l3.83.87c2,3.64.2,7.45.48,11.17a5.79,5.79,0,0,1-1.42,2.22c-2.26,2-3.83,5-7.24,5.52a10.65,10.65,0,0,1-5,.39c-2.31-1-4.5-.4-6.59.65-4.73,2.4-8.26,1.33-10.62-3.47a7.43,7.43,0,0,1-.47-2.55c.14-2.41,1.62-4,3.24-5.59a9.84,9.84,0,0,1,3.39-1.74c2.93.32,5.34-.94,7.61-2.61C252,109.41,256.7,108.83,260.25,105.31Z"/><path class="cls-157" d="M240.79,115.06l-3.08,1.08a3.12,3.12,0,0,1-2.93-1,3.6,3.6,0,0,1,.15-4.1,4.21,4.21,0,0,1,1.57-1.42L242,103c2.64-.73,5.31-3,7.94-1.48,1.78,1-.4,2.94-.66,4.49a4,4,0,0,1-.66,2.23C245.72,110.15,244.53,114.06,240.79,115.06Z"/><path class="cls-158" d="M248,106.6a13.2,13.2,0,0,1,1.32-.62c3.74,1.34,7.3-.37,10.95-.67-1.15,3.54-5.37,4.2-6.83,8.06-1.14,3-3.35-3-6-1.42C245.6,110,247,108.3,248,106.6Z"/><path class="cls-159" d="M262.91,116.79c-1.16-3.71-1.48-7.32,1.17-10.61l5-1.18c1.34,3.42-1.29,6.12-1.65,9.23a9.92,9.92,0,0,1-2.7,3.24A1.7,1.7,0,0,1,262.91,116.79Z"/><path class="cls-160" d="M262.91,116.79a12.2,12.2,0,0,0,1.7-.15c1.13-.09,1.63.73,2.17,1.49l5.17-1.51a13.49,13.49,0,0,1,6.66-4.17c5.84.55,11-4.52,17.07-2.06,3.48,5.84-.94,6.9-5,8.21-6.08,2.08-13.42-.06-18.53,5.41a12.69,12.69,0,0,1-2.15,1.38c-1.5.78-3,1.69-4.78,1.47a5.94,5.94,0,0,1-4-2.67,7.9,7.9,0,0,1-.69-4.52,4.69,4.69,0,0,1,1-2A12.1,12.1,0,0,0,262.91,116.79Z"/><path class="cls-161" d="M266.78,118.13l-2.17-1.49,2.82-2.41C267.21,115.53,267,116.83,266.78,118.13Z"/><path class="cls-162" d="M227.55,194c.2,4.16-4.88,5.84-4.69,10,1.57,2.66,0,3.94-2.19,4.9-2,0-3.29-1.3-4.76-2.3a7.48,7.48,0,0,1-2.63-5,8.47,8.47,0,0,1,4.21-7.59C220.84,193,224.18,191.09,227.55,194Z"/><path class="cls-163" d="M227.55,194l-10,2.32a2.24,2.24,0,0,1-.82-2.26,5.12,5.12,0,0,1,2.73-2.61c2.8-.85,5.69-1.41,8.45-2.45a3.74,3.74,0,0,1,2.3.74c.22,1.15.43,2.3.65,3.45Z"/><path class="cls-164" d="M220.35,208.33l.69,3.37-1.58.31c-.55.12-1.1.22-1.66.29-.39-1.06-.79-2.12-1.19-3.18a2.88,2.88,0,0,1-1-3.38,1.58,1.58,0,0,1,2.13-.55C218.6,206.23,219.47,207.28,220.35,208.33Z"/><path class="cls-165" d="M208.41,203.87c-.42,1-.59,2.68-1.33,3-2.45,1.09-2.53-1.59-3-2.71-1.28-3.15.26-7.73-4.8-8.85-3.3-3.92-1-6.18,2.4-8.11a7.25,7.25,0,0,1,5.74.64,11.06,11.06,0,0,1,4,4c2.09,4.24,1.28,8-1.87,11.39Z"/><path class="cls-166" d="M203.15,188.86c-2.89,1.2-4.34,3.25-3.86,6.46a6.08,6.08,0,0,1-4.79,4.59,5.09,5.09,0,0,1-2.65-4.8c1.21-10.48,2.73-11.93,10.75-10.23A3.44,3.44,0,0,1,203.15,188.86Z"/><path class="cls-167" d="M203.23,219.48c-4-2.65-2.34-8.31-6-11.15a3.55,3.55,0,0,1-3.57-2.56,2.63,2.63,0,0,1,.66-2.16c5.83-1.71,7.82,1.31,8.12,6.52C202.65,213.25,203,216.36,203.23,219.48Z"/><path class="cls-168" d="M213.89,211.56l-1.28,2.1L210,217.87a1,1,0,0,1-1.71.4,11.12,11.12,0,0,1,1.74-7.61,4.7,4.7,0,0,1,2.1-.28A3.33,3.33,0,0,1,213.89,211.56Z"/><path class="cls-168" d="M209.71,209c-.43-1.71-.86-3.41-1.3-5.12h.07A3.22,3.22,0,0,1,212,202.5a4.53,4.53,0,0,1,2.22,3.15c.34,1.77.39,3.48-1.2,4.77C211.51,210.87,210.63,209.89,209.71,209Z"/><path class="cls-169" d="M194.13,194.6c.12,1.77.25,3.54.37,5.31a3.77,3.77,0,0,0-1.12.5l-1.06-.41c-1.54-1.6-1.76-3.27-.32-5.06A2.59,2.59,0,0,1,194.13,194.6Z"/><path class="cls-170" d="M194.34,203.61c.1.63.2,1.25.29,1.88a1.39,1.39,0,0,1,.78,1.15q0,.71-.15.75l-1,.63a3.09,3.09,0,0,1-2.19-.49,4.47,4.47,0,0,1-1.43-3.12,4.73,4.73,0,0,1,.77-2.18,1.78,1.78,0,0,1,2.1-.21C193.8,202.55,194.07,203.08,194.34,203.61Z"/><path class="cls-171" d="M208.33,218.27l1.71-.4c.26,1.12.52,2.25.79,3.38l-3.79-.88Z"/><path class="cls-172" d="M209.71,209l2.1,1.28c.7.23,1,.56.87,1s-.28.66-.48.71l-2.13-1.3Z"/><path class="cls-169" d="M193.54,202l-.7.18-.7.14a1.44,1.44,0,0,1-.93-1.42,1.58,1.58,0,0,1,1.48-.89l.69.38A7.92,7.92,0,0,1,193.54,202Z"/><path class="cls-173" d="M195.65,217.7l-1.31-5.12a1.24,1.24,0,0,1-.82-1q-.11-.66.06-.69a2.58,2.58,0,0,1,1.77-1c1.07.3,1.6,1.3,2.46,1.86A6.08,6.08,0,0,1,195.65,217.7Z"/><path class="cls-174" d="M197.81,211.83l-2.19-1.35a2.79,2.79,0,0,1-1-3.5c0-.5,0-1,0-1.49l2.62,2.84C197.44,209.5,197.63,210.66,197.81,211.83Z"/><path class="cls-175" d="M212.2,212l-.39-1.69c.29-1.27.59-2.53.88-3.8a2.58,2.58,0,0,1,3.79-.79c0,1.15.09,2.29.13,3.44l-2.72,2.44Z"/><path class="cls-176" d="M230.25,189.76a4.09,4.09,0,0,0-1.38.7c-2.73,1.83-6.48,1.06-9,3.48l-2.76,1c-3.56,1.57-5.36-.42-6.69-3.34,2.33-5.25,6.64-6.22,11.76-5.43l9.3,1.17C231.08,188.16,230.67,189,230.25,189.76Z"/><path class="cls-177" d="M234.37,154.56c-.15,4.87,2.56,5,6.25,3.92,5.6-1.61,11.28-2.78,17.61-1.49-5.56,8.71-13,14.49-22.79,17.1-1.2,4.07-4.47,3.26-7.45,3.14-2.28-.51-4-1.53-4.08-4.19.72-2.56,3.13-3,5.09-4,.5-.26,1-.55,1.48-.8-1-.67-1.74.52-2.69.44a7,7,0,0,1-2.45-.15c-2.16-1.25-5-.72-6.93-2.57a5.3,5.3,0,0,1-1-2.38c1-3.84,1.69-7.84,5.65-10,3.46-.5,6.94-2.19,10.41,0Z"/><path class="cls-178" d="M271.74,138.4c-4.34-1.88-8.24.6-12.32,1.24l-1.2-.58c-2.7-3.14-3.1-6.39-.46-9.78a8.29,8.29,0,0,1,6.61-1.59c2.79,1.2,5.44.87,8.3-.08,3.45-1.15,6.83-.89,9,2.79C281.61,137.11,277.37,138.61,271.74,138.4Z"/><path class="cls-179" d="M271.74,138.4c3-2.46,7.19-3.51,9.21-7.25,3.65-6.67,9.16-9.91,16.85-9.15,2.15,1.13,2.16,3,1.74,5a22.33,22.33,0,0,1-5.22,6.46c-3.9,1.45-6.8,4.45-10.2,6.69-2.7,1-5.58,1-8.37,1.52a4.76,4.76,0,0,1-3.88-1.58C271.84,139.54,271.79,139,271.74,138.4Z"/><path class="cls-180" d="M259.42,139.64c1.74,11.53,1.09,12.57-7.71,12.37-3.07-1.49-4.34-4-4.42-7.35,1.13-3.33,3.7-5.07,6.85-6.18a6.78,6.78,0,0,1,5.29,1.17Z"/><path class="cls-181" d="M248.48,145.83c3.62.73,3,3.69,3.23,6.18l0,.31c-4.63.59-9,3.37-13.92,1.48l-3.4.76v0a4.6,4.6,0,0,1-2-5.22C237.17,145.45,242.06,142.15,248.48,145.83Z"/><path class="cls-182" d="M228.64,175.81c2.58.64,4.62-.82,6.8-1.72,2.4,1.42,2.78,3.85,3.16,6.28-4.19.25-8.26-2.51-12.52-.49C224,176.6,224.26,176.18,228.64,175.81Z"/><path class="cls-183" d="M237.77,153.8c4.6-.87,9-3.18,13.92-1.48C247.31,155.25,243,158.74,237.77,153.8Z"/><path class="cls-184" d="M228.64,175.81c-.88,1.35-3.4,1.65-2.56,4.07-3.44.79-4.82,2.84-3.89,6.31l-11.17,6c-.26.81-.74,1-1.48.54L206.78,190a4.93,4.93,0,0,1,.59-3.56c5.68-2.71,5.1-7.41,3.89-12.32a5.06,5.06,0,0,1,2.49-2.66,21.24,21.24,0,0,1,2.37-.79,30,30,0,0,1,3.66-.72,6.4,6.4,0,0,1,2.45.36,3.85,3.85,0,0,1,2.13,2.88Z"/><path class="cls-185" d="M177.54,202.28l-3.2-6.6c4-5.33,6.16-3.37,7.45,1.91q1.56,6.85,3.13,13.69C181.38,209.17,183.35,202.53,177.54,202.28Z"/><path class="cls-186" d="M181.79,197.59c-2-2.5-4.1-4.62-7.45-1.91h0c-4.45-2.24-4.92-7.26-7.53-10.8a4.42,4.42,0,0,1,.54-2.74c1.61-2.1,4-2.48,6.35-2.94,5.28.36,10.56.7,14.14,5.46a10.17,10.17,0,0,1,1.65,5.08,5.94,5.94,0,0,1-.48,2.31c-.79,1.58-2.77,1.88-3.7,3.35a4.1,4.1,0,0,1-2,1.93C182.79,197.43,182.29,197.52,181.79,197.59Z"/><path class="cls-187" d="M183.29,197.33c-.17-1.15-.35-2.31-.53-3.47,3.54-1.27,5.6.82,7.47,3.31,1.12,1.93.34,4.19,1.06,6.19.29,1.22.59,2.44.81,3.67a3,3,0,0,1-1,2.19,3.61,3.61,0,0,1-4.59-.28Q184.93,203.14,183.29,197.33Z"/><path class="cls-188" d="M186.55,208.94l4.83-1c2,1.25,2,3,1.44,5,0,1.08.35,2.42-.16,3.17-.92,1.34-2,.27-2.54-.63C188.83,213.35,187.73,211.12,186.55,208.94Z"/><path class="cls-189" d="M192.82,212.92l-1.44-5,.12,0c.3-1.27.88-1.41,1.73-.43l0-.09a2.6,2.6,0,0,1,.9,3.56q.14.8.24,1.59l-.76.19Z"/><path class="cls-190" d="M121.26,154.44c6.5-7.36-3.22-8.71-4.84-13.07a4,4,0,0,1,1.31-3.51c6.22-3.22,11.69.5,17.42,1.87a6.83,6.83,0,0,1,2.4,1.11c1.52,1.65,2.89,3.4,3.2,5.72a6,6,0,0,1-.45,2.57c-2,3.94-7.05,4.46-9.36,8.11a5.41,5.41,0,0,1-3.68-.16l-5.77-.8A1.45,1.45,0,0,1,121.26,154.44Z"/><path class="cls-191" d="M126.25,167.93l11.48-4.54a3.37,3.37,0,0,1,3.51-.73c4.06,1.18,6.18,5.87,10.85,6,5.74,4.1,6,6.92,1.09,10.69-2.53,1.93-5.7,2.39-8.49,3.71a5.16,5.16,0,0,1-2.67-.23,7,7,0,0,1-3.08-4c-1.43-3.65-3.19-6.5-8-6.05C128.12,173,124.71,172.51,126.25,167.93Z"/><path class="cls-192" d="M139.83,164.67l-2.1-1.28c-2.87-3.13-8.32-2-10.47-6.31l3.29-1c2.48-2.73,5.69-2.43,8.5-1.29s4.09-.46,5.77-1.82a5.56,5.56,0,0,1,4.76-.62,5.18,5.18,0,0,1,1.87,1.67c1.48,3.51.65,6.68-1.44,9.67a5.8,5.8,0,0,1-4.89,1.58C143.39,164.78,141.51,165.54,139.83,164.67Z"/><path class="cls-193" d="M126.25,167.93c4.75,3.53,11.73.57,16,5.79,2.16,2.62,1.81,3.25-1.31,3.27-3.74,3.88-6.17-1.11-9.3-1.37a45,45,0,0,1-6.38-2c-1.57-.73-4.36-1.23-3.4-3.74C122.3,168.84,124.74,168.56,126.25,167.93Z"/><path class="cls-194" d="M121.26,154.44c.08.62.16,1.23.23,1.84L118.62,159a10.46,10.46,0,0,1-7.45-1.86c-.6-1.68-.57-3.22,1-4.39,2.81,0,5.66-.73,8.38.59A1.92,1.92,0,0,1,121.26,154.44Z"/><path class="cls-195" d="M131.68,175.62,141,177c.37,1.58.75,3.16,1.12,4.74a1.06,1.06,0,0,1-1.55.82l-6.32-3.78Z"/><path class="cls-196" d="M104.93,167.78a5.21,5.21,0,0,1-4.68-2.7c-1.51-1.38-1.5-2.85-.32-4.42,2.55-1.93,5.35-1.72,8.22-1C111.72,164.24,108.6,166.12,104.93,167.78Z"/><path class="cls-197" d="M108.15,159.7a6.14,6.14,0,0,1-6.75,1.55c-.51-6,1.19-7.17,10.7-7.45l-.93,3.35Z"/><path class="cls-130" d="M112.1,153.8c-4.24,1.52-9.33,1.83-10.7,7.45-.38,1.28-.76,2.55-1.15,3.83l-3.71-.74c-3-7.64-1.08-10,8.79-10.92l8.42-2.12a8.85,8.85,0,0,1,6.82,2Z"/><path class="cls-198" d="M110,138l-4.06-6.31c3.2-3.29,5.53-.52,8,1.15,1.86,1.76,4.35,3.17,3.56,6.41l-1.1,2.17Z"/><path class="cls-199" d="M135.88,88.17c.21,3-1.72,4.23-4.24,4.9-.52,1-.53,2.31-1.73,2.92a4.63,4.63,0,0,1-4.48-1.14,11.58,11.58,0,0,1-2.87-6.75,7.51,7.51,0,0,1,.1-2.5A4,4,0,0,1,125.14,83a2.8,2.8,0,0,1,2.33.44l0,0a4.61,4.61,0,0,1,1.88,1.35C131.06,86.71,134.51,85.45,135.88,88.17Z"/><path class="cls-200" d="M125.68,83.8l-1.25,2.14a1.81,1.81,0,0,1-1.87.78,4.14,4.14,0,0,1-1.62-1.46,14.69,14.69,0,0,1-.5-2.16c-.21-1.14-.59-2.32.59-3.2l2.37,1.22a2.58,2.58,0,0,1,1.7,1l.26.17c.64.22.9.52.78.89S125.87,83.76,125.68,83.8Z"/><path class="cls-201" d="M129.3,84.73l-1.88-1.35C128.47,83.24,129.17,83.59,129.3,84.73Z"/><path class="cls-201" d="M125.68,83.8c-.13-.5-.24-1-.32-1.52l2.11,1.12Z"/><path class="cls-201" d="M125.1,82.11l-1.71-1Z"/><path class="cls-202" d="M126.77,94.1l3.56.91c1.06,0,1.38,1.07,2.1,1.56l2.26,2.82c-1.48,2.09-3.76,2.88-6,3.69-2.71,2.78-5.88,2.1-9.08,1.19a5.74,5.74,0,0,1-2.31-3.4,6.86,6.86,0,0,1,1.19-5.21C120.84,93.06,123.63,92.65,126.77,94.1Z"/><path class="cls-203" d="M132.43,96.57,130.33,95c.44-.65.87-1.3,1.31-1.94C131.9,94.23,132.17,95.4,132.43,96.57Z"/><path class="cls-204" d="M126.77,94.1a6.64,6.64,0,0,1-7,1.79c-4.08-1.36-4.94-4.21-3.73-8l3-2.54a2.9,2.9,0,0,1,2.57.55,4.94,4.94,0,0,0,1.49,1,2.27,2.27,0,0,1,1.61.66C127,89.23,127.89,91.33,126.77,94.1Z"/><path class="cls-205" d="M116,87.86q1.88,4,3.73,8l-1.14,4c-3,3.11-5.74,2.13-8.45-.39a5.76,5.76,0,0,1-1-3.6,13.14,13.14,0,0,1,2.18-5.12Z"/><path class="cls-206" d="M111.38,90.79c1.19,1.62,1.36,3-.93,3.75-2.75-.47-4-1.86-2.94-4.72-.31-1.1-.61-2.21-.91-3.31Z"/><path class="cls-207" d="M121.08,86.62,119,85.32l1.44-2.22,1.62,1.66A1.88,1.88,0,0,1,121.08,86.62Z"/><path class="cls-208" d="M139.52,146.76l-3.37-4.38c-.92-3.28-4.45-4.51-5.83-7.44a11.5,11.5,0,0,1-.54-2.46,4.32,4.32,0,0,1,1.51-3.41l10.1,4.73c.26,4.91,8.11,3.41,7.58,9C146.57,145.88,142.75,145.61,139.52,146.76Z"/><path class="cls-209" d="M119.69,103c3-1.32,6,.25,9,.08l4.92,5.65c1.22,1.83,3.32,3.87.56,5.74-2.26,1.55-3.46-1-4.75-2.29-1.94-2-3.44-4.6-6.8-4.38l-1.69.37a3.87,3.87,0,0,1-1.78-1.66A3.42,3.42,0,0,1,119.69,103Z"/><path class="cls-210" d="M120.35,106.58c.18.54.36,1.06.56,1.59.52,5.81,4.59,10.73,4.22,16.77-.9,1.3-2,1.76-3.42.77-.46-1.51-.93-3-1.39-4.52-2.85-4.26-7.91-7.88-4-14.06A3.2,3.2,0,0,1,120.35,106.58Z"/><path class="cls-211" d="M121.71,125.71l3.42-.77,6.16,4.13.81,3.38a5.06,5.06,0,0,1-4.87,1.34c-2.67-1.4-6-2.26-5.54-6.36A3.05,3.05,0,0,1,121.71,125.71Z"/><path class="cls-212" d="M155.22,146.6c2.27-.7,4.15-1.6,4.1-4.56-.12-6.79.91-9.29,4.5-11.87,5.53,1.92,5.73,6.56,5.81,11.28-2.61,2.87-2.19,6.8-3.45,10.16a5.34,5.34,0,0,1-2.1,1.44c-3.76.38-6.87-.77-9.09-4A2.74,2.74,0,0,1,155.22,146.6Z"/><path class="cls-213" d="M155.22,146.6c.17.62.35,1.24.52,1.86a1.83,1.83,0,0,1,.44,2.25c-1.93,2.47-4.34,2.11-6.84,1.14-3-.74-6.18-1-9.06-2.37l-.69-.94c0-.6-.05-1.19-.07-1.78,1-6.47,5.72-4,9.45-4A12.5,12.5,0,0,0,155.22,146.6Z"/><path class="cls-214" d="M166.74,142.09c2.36-4.79-1.34-8.09-2.92-11.92-.12-.54-.25-1.09-.39-1.62.29-1.27.59-2.54.89-3.81,2.9,3.19,5.66,6.45,6.29,10.94a5.18,5.18,0,0,1,2.48,4.73,4.66,4.66,0,0,1-3.59,3.86C168,144.29,166.8,143.91,166.74,142.09Z"/><path class="cls-215" d="M171.8,140.85c-.4-1.72-.79-3.44-1.19-5.17,2.48-.25,5.2-1.69,7.07,1.2,3.59,5.55,3-1.6,4.83-1.57,2,2.61,1.33,5.42.69,8.23-.37,3.41-2.39,5.06-5.67,5.39a6.35,6.35,0,0,1-2.78-.59C171.82,146.61,172,143.65,171.8,140.85Z"/><path class="cls-216" d="M176.63,146.9l6.57-3.36,2.12,1.16c.21,1.19.42,2.38.64,3.57a8.14,8.14,0,0,1-1.15,1.71,6.34,6.34,0,0,1-2.93,1.28,6.07,6.07,0,0,1-3.33-.54C177.18,149.82,176.17,148.72,176.63,146.9Z"/><path class="cls-217" d="M209.12,146.32l5-1.23,3.79.89c3.86,7.07,2.83,11.5-3.77,16.24-5.41-.66-7.32-3.42-5.13-8.61Z"/><path class="cls-218" d="M194.36,151.68l.3-7.21c4.24-1.57,9.09-5.69,11,2.63a9.79,9.79,0,0,1-3.74,3.76C199.53,152.58,197.09,153.5,194.36,151.68Z"/><path class="cls-219" d="M209,153.61a9,9,0,0,0,5.49,7.49c1.95,1,2.32,2.67,2.25,4.61a6.19,6.19,0,0,1-3.28,4.16,5.26,5.26,0,0,1-2.6.39c-6.94-2.65-4.92-9.1-6-14.23.28-1.31.79-2.37,2.42-2.2Z"/><path class="cls-220" d="M207.27,153.83l-1,2.3-.91.85a4.53,4.53,0,0,1-5.6-1.41c-1.1-2.54,1-4.73.81-7.18l5.1-1.29C206.18,149.34,206.72,151.59,207.27,153.83Z"/><path class="cls-221" d="M190,156.39l2,1.23c2.34,3.18.57,5.87-1,8.6a6.44,6.44,0,0,1-4.78,1.72,48.08,48.08,0,0,0-7.29-.78,5.13,5.13,0,0,1-3.55-3.56,7.86,7.86,0,0,1,1.19-6.5c2.76-3.24,6.62-2,10.07-2.45a5.13,5.13,0,0,1,2.5.74C189.38,155.72,189.67,156.05,190,156.39Z"/><path class="cls-222" d="M190.18,165c-1-2.83.4-5.09,1.8-7.34l2.35-4.45c3.86.73,3.77,4.64,5.64,7a6.23,6.23,0,0,1,.54,2.63,5.61,5.61,0,0,1-1.65,3.58,6.56,6.56,0,0,1-3.57,1.53,5.89,5.89,0,0,1-3.63-1A5.24,5.24,0,0,1,190.18,165Z"/><path class="cls-223" d="M198.27,161.43c-2.9-2-2.82-5.41-3.94-8.26a4.15,4.15,0,0,1,0-1.49l6.17-3.29c2.61,2.4,1.53,4.76-.07,7.13C201,158,202.72,160.83,198.27,161.43Z"/><path class="cls-224" d="M188.6,151.15l1.43-.35c.59,1.87,1.54,3.74-.08,5.59l0-.18c-1.79-1.32-2.65-2.93-1.66-5.14Z"/><path class="cls-225" d="M184.42,148.55c.52-.08,1-.18,1.54-.28.46,1.13.93,2.25,1.4,3.38-.2.34-.4.68-.59,1a5.28,5.28,0,0,1-2.06,1.1,5.22,5.22,0,0,1-5.21-2,1.79,1.79,0,0,1,.27-2.08l3-.74A1.07,1.07,0,0,1,184.42,148.55Z"/><path class="cls-226" d="M188.27,151.07c.55,1.71,1.11,3.42,1.66,5.14l-1.58.4a3.3,3.3,0,0,1-2.12-2.71,5,5,0,0,1,.72-2.28l.41,0C187.66,151.45,188,151.25,188.27,151.07Z"/><path class="cls-227" d="M189,145.54l-.87,2.18Z"/><path class="cls-228" d="M215.64,166.24c-.38-1.71-.77-3.42-1.15-5.14,2.26-4.79,2.51-10,3.41-15.12l1.74-.44,1.66-.38a5,5,0,0,1,1.73-1.7c3.38-.4,7.78-3.41,8.42,3.26-1.07,4.52-4.41,6.88-8.29,8.74-1,3.16-2.1,6.31-4.8,8.53-.24.86-.07,1.87-1,2.46l-.91.2Z"/><path class="cls-229" d="M226.62,122.34l4.33-4.62.83-.87,1.17.28a2.67,2.67,0,0,1,.68,2.21c-.54,2.5-1.32,4.82-4.28,5.41A3.86,3.86,0,0,1,227,124C226.89,123.47,226.75,122.91,226.62,122.34Z"/><path class="cls-230" d="M221.58,139.74l1.17-3.81c.55-1.48,1-3.1,3.18-2.5a4.33,4.33,0,0,1,1.5,1.86,5.7,5.7,0,0,1-2.83,6.43,4.39,4.39,0,0,1-2.46.15,1.55,1.55,0,0,1-.76-1.32C221.38,140,221.45,139.77,221.58,139.74Z"/><path class="cls-231" d="M226.4,129.43c-.1-.51-.18-1-.25-1.55a6.66,6.66,0,0,1,1.72-2.81,4.17,4.17,0,0,1,2.24-.14,4.37,4.37,0,0,1,1.77,1.44c.1.39.19.77.29,1.15-.47,2.8-2,4.21-5,3.86a1.59,1.59,0,0,1-.87-1.16C226.27,129.72,226.29,129.46,226.4,129.43Z"/><path class="cls-232" d="M225.68,133.31c-1,.87-2,1.74-2.93,2.62-.53-1.91-.75-3.79.4-5.58A5.18,5.18,0,0,0,225,131l.82.53.3.94C226,132.72,225.82,133,225.68,133.31Z"/><path class="cls-233" d="M229,125.3l-2.84,2.58c.29-1.28.59-2.56.88-3.84l2.26-.34A1.29,1.29,0,0,1,229,125.3Z"/><path class="cls-234" d="M222,141.35l1.83-.42c.94,1.24.38,2.11-.7,2.86a2.41,2.41,0,0,1-2.19-.32l-.46-1.78A.88.88,0,0,1,222,141.35Z"/><path class="cls-235" d="M220.93,143.47l1.84-.48a1.24,1.24,0,0,1,.21,1.74c-.56.15-1.12.3-1.68.43C221.17,144.6,221,144,220.93,143.47Z"/><path class="cls-232" d="M222,141.35l-1.52.34,1.12-1.95A9,9,0,0,1,222,141.35Z"/><path class="cls-236" d="M226.4,129.43l.67,1.89-.67.66-.84-.41-.47.06c-.5-.33-.68-.7-.56-1.08s.26-.57.42-.61A10.38,10.38,0,0,0,226.4,129.43Z"/><path class="cls-233" d="M225,129.94a13.75,13.75,0,0,1,.14,1.69l-1.94-1.28Z"/><path class="cls-155" d="M236,111c-.3,1.13-.6,2.27-.91,3.4.42,2-.25,3.17-2.5,3l-.45-.07-1.55-1.17c.38-2.12.69-4.27,2.4-5.84A6.31,6.31,0,0,1,236,111Z"/><path class="cls-237" d="M236,111l-3-.72,1-2.22,2.51,1.55A3.82,3.82,0,0,1,236,111Z"/><path class="cls-238" d="M230.58,116.08l1.56,1.17c-.39.18-.79.33-1.19.47A15,15,0,0,1,230.58,116.08Z"/><path class="cls-239" d="M227.07,131.32l4.33-4.48c-.24-2.77.46-4.82,3.74-4.89,5.85,5.19,9.56,2.22,12.62-3.36,2.2,1.1,1.82,3.44,2.54,5.25-.07,7.84-7.87,9.35-11.62,14.18-4,.88-8.18,4.07-11.41-1.31-.17-.93-.36-1.86-.57-2.78a2.69,2.69,0,0,1,.4-2.66Z"/><path class="cls-240" d="M238.76,135.58c2.15-5.58,7.71-7.81,11.54-11.74l5.28-1.17a5.17,5.17,0,0,1,1.25,4.62c-1,2.76-3.2,4.8-4.38,7.46-2.11,3-5.42,3.94-8.58,5.17a6.24,6.24,0,0,1-2.54-.23A4.5,4.5,0,0,1,238.76,135.58Z"/><path class="cls-241" d="M248,106.6c-.18,1.78-.35,3.57-.52,5.35-1,3.74-3.43,4.26-6.67,3.11C242.57,111.71,244,108.07,248,106.6Z"/><path class="cls-242" d="M235.14,122l-3.74,4.89a5.27,5.27,0,0,0-.57-.68,1.15,1.15,0,0,1-1.07-.68l-.77-.18c.12-.53.22-1.06.3-1.6l3.35-5c1.2-.13,1.69.75,2.23,1.56A6.1,6.1,0,0,1,235.14,122Z"/><path class="cls-161" d="M254.83,126.54l.75-3.87,5.94-5c.1.55.21,1.09.32,1.63.05,1-.23,1.9-.24,2.86a7.14,7.14,0,0,1-.24,2,6.31,6.31,0,0,1-1.79,2.42,5.59,5.59,0,0,1-1.88.84A3.27,3.27,0,0,1,254.83,126.54Z"/><path class="cls-243" d="M234.87,120.25l-2.23-1.56-.06-1.37,2.5-3,2.63,1.78Z"/><path class="cls-244" d="M298.37,122.49c-5.8,2.9-10.74,7.52-17.42,8.66-5.34-3.32-11.83,3.82-16.91-1.86a1.68,1.68,0,0,1-.52-1.89c1.54-1.31,4.13-1.41,4.62-4l1.76-.58a69.78,69.78,0,0,1,19.08-5.6c4-.07,8.74-3.5,11.62,2.3A2.78,2.78,0,0,1,298.37,122.49Z"/><path class="cls-245" d="M288.55,118.21c-6.34,1.07-11.59,6.49-18.65,4.65,4.5-6.39,11.43-5.69,18-6.13C289.19,116.71,289.42,117.21,288.55,118.21Z"/><path class="cls-246" d="M288.55,118.21a15.27,15.27,0,0,0-.68-1.48c2.85-1.36,7.24-.18,8.12-4.85l3.27.65c1.61.78,3.28,1.48,4.25,3.14.5,3.13.19,5.63-4,5.15C296.7,116.47,292.41,118.23,288.55,118.21Z"/><path class="cls-247" d="M262.5,122.79c.77.83,1.55,1.65,2.33,2.48a2.35,2.35,0,0,1-1.63,2c-2.16.87-4.41,2.07-5.18-1.59l0,0c.61-1.29,2.17-1.35,3-2.33l-.22-.41C261.33,122.07,261.89,122,262.5,122.79Z"/><path class="cls-248" d="M263.5,126.13c.45-.28.89-.56,1.32-.86l3.32-1.83c0,2.81-1.9,3.74-4.19,4.32-.56-.24-.81-.55-.76-1S263.35,126.17,263.5,126.13Z"/><path class="cls-240" d="M262.5,122.79a13.57,13.57,0,0,0-1.69.1c.34-1.2.69-2.39,1-3.58C263.39,120.22,262.58,121.57,262.5,122.79Z"/><path class="cls-249" d="M209.54,192.74a2.29,2.29,0,0,0,1.48-.54l6.1,2.76a5.24,5.24,0,0,0,.47,1.38l-2.65,6.06a2.08,2.08,0,0,1-3.08.71l-3.38.75C208,200.07,210.84,196.6,209.54,192.74Z"/><path class="cls-250" d="M211.86,203.11l3.08-.71,2.78,2.79a9,9,0,0,1-1.25.49l-3.78.79C212.41,205.35,212.13,204.23,211.86,203.11Z"/><path class="cls-251" d="M219.88,193.94c2-3.87,5.72-3,9-3.48C226.39,192.94,223.16,193.51,219.88,193.94Z"/><path class="cls-252" d="M208.23,187.78,206.78,190l-3.63-1.15c-.37-1-.73-2.05-1.09-3.08a19.92,19.92,0,0,1-1.91-1.77c-1.36-3-5.88-4.82-3.49-9.24,2.24-2.09,4.93-2.56,7.85-2.24,2.09.46,3.09,2.36,4.63,3.55C214.7,180.4,214,184.31,208.23,187.78Z"/><path class="cls-253" d="M201.63,183.93c.14.62.29,1.23.43,1.85-7.63-1.54-6.44,4.85-7.93,8.82l-.76.37a5.65,5.65,0,0,1-2.8-3,16.5,16.5,0,0,1-1.07-5.57c.62-3.86,3-5.85,6.77-6.41C199,180,200.09,182.26,201.63,183.93Z"/><path class="cls-254" d="M192.66,191.37c.23,1.2.47,2.4.71,3.6-.22,1.69-.45,3.37-.68,5.06a3.7,3.7,0,0,1-.86.55c-1.52-.42-1.61-1.93-2.28-3-1.32-2-1.08-4.19-1-6.39C190,188.71,191.34,190.13,192.66,191.37Z"/><path class="cls-255" d="M190.54,197.51l1.29,3.07c.1.59.2,1.17.31,1.76s0,1.2,0,1.8c-.16,1.29-.65,1.43-1.47.41l-1.74-6.77.7-.77Z"/><path class="cls-256" d="M194.1,211l-.9-3.56a6.82,6.82,0,0,0,1.41-.45c.34,1.17.68,2.34,1,3.5Z"/><path class="cls-257" d="M190.68,204.55a14.7,14.7,0,0,0,1.48-.41c.35,1.13.71,2.26,1.07,3.38l-1.73.43C191.23,206.82,191,205.69,190.68,204.55Z"/><path class="cls-258" d="M224.36,173.2l-2.08-1.33c.3-2.61,2.33-3.62,4.33-4.66,1.88-1.27,3.7-2.66,5.67-3.78s4.72-3.6,6.44-.27c1.3,2.53-.75,5.19-3.11,6.27C232,171.06,228.13,172,224.36,173.2Z"/><path class="cls-259" d="M223.16,155.46c1.42-4,3.25-7.64,7.46-9.4l1,0a4,4,0,0,1,1.69,1l.46.88a3.08,3.08,0,0,1-.44,1.87l1.05,4.83C230.68,155.5,227,156.58,223.16,155.46Z"/><path class="cls-260" d="M226.61,167.21c2.17,4.91-2.48,3.49-4.33,4.66-.56.12-1.13.23-1.69.32a2.16,2.16,0,0,1-1.11-1.82,4.9,4.9,0,0,1,.9-2.05c1.84-1.07,3.1-3.37,5.76-2.66C226.29,166.18,226.45,166.7,226.61,167.21Z"/><path class="cls-261" d="M226.14,165.66l-4.28,4.45c-1.19-.76-2.56-1.33-3.1-2.81a2.19,2.19,0,0,1,.57-2C221.62,164.87,223.94,164,226.14,165.66Z"/><path class="cls-262" d="M219.33,165.35l.19,1.86-.67.57a2.33,2.33,0,0,1-1.64-.42,1.13,1.13,0,0,1,0-1.53l1.16-1.84A5.91,5.91,0,0,0,219.33,165.35Z"/><path class="cls-263" d="M242.92,138.29l7.87-5.61c1.9-1.92,3.93-3.25,6.66-1.54,2.1,2.5,1.15,5.71,2,8.51l-4.77,1.11C250.29,142.09,245.1,147.33,242.92,138.29Z"/><path class="cls-264" d="M257.45,131.14l-6.66,1.54c.15-2.84,2.7-4.09,4-6.14l3.19-.88c1.74,1.19,3.61.83,5.48.47a6.46,6.46,0,0,0,.45,1.63q0,.77.09,1.53Z"/><path class="cls-265" d="M299.53,120.82c2.72-1.24,2.75-3.53,2.3-6,5.65-.75,5.85-.35,3.31,6.58L304.3,125l-6.69,1.7c.25-1.4.51-2.81.76-4.22C298.75,121.93,299.14,121.38,299.53,120.82Z"/><path class="cls-266" d="M242.92,138.29c3.06,4.85,7.48,3.25,11.73,2.47l-6.17,5.07-15.16,3.93c-.16-.77-.31-1.55-.46-2.32a4.1,4.1,0,0,1,.26-3.11,7.64,7.64,0,0,1,1.38-1.62c1.28-1.23,2.25-2.76,3.67-3.87a3.26,3.26,0,0,1,3.08-.39C241.8,138.41,242.36,138.36,242.92,138.29Z"/><path class="cls-267" d="M208.23,187.78c7.17-6.75-3.2-9.07-3.52-13.92a2.5,2.5,0,0,1,.23-2.18c1.59-1.62,3.42-1.53,5.33-.72a4.37,4.37,0,0,1,1.95,1.16,2,2,0,0,1-.07,2.11C219.69,181.76,219.33,183,208.23,187.78Z"/><path class="cls-268" d="M212.15,174.23c-.21-.53-.44-1-.67-1.58a3,3,0,0,1-1.12-1.6,2.36,2.36,0,0,1,.76-1.76,13.54,13.54,0,0,1,1.36-.58,3.56,3.56,0,0,1,3,.82,4.21,4.21,0,0,1,.78,2,3.88,3.88,0,0,1-.9,1.92Z"/><path class="cls-269" d="M220.22,170.64c.13.52.25,1,.37,1.55l-3.28.82a1.28,1.28,0,0,1-1-.93c-.11-.48-.1-.73,0-.76a3.35,3.35,0,0,1,1.78-1.32A3,3,0,0,1,220.22,170.64Z"/><path class="cls-270" d="M217.13,171.4c0,.54.09,1.08.17,1.61l-1.92.43.18-1.76A1,1,0,0,1,217.13,171.4Z"/><path class="cls-271" d="M186.22,186.42c-3.34-3.35-7.68-4.25-12.11-4.92-4.1-1.86-8.06,2-12.15.29-3.19-4.32,2.72-6.27,2.54-9.83a6.09,6.09,0,0,1,2.71-2.65,6.32,6.32,0,0,1,2.55-.32c1.79.35,2.88,1.71,4.08,2.9,1.69,2.58,3.85,4.13,7.18,3.67a6.62,6.62,0,0,1,7.21,3.64C189.13,182.05,188.73,184.53,186.22,186.42Z"/><path class="cls-272" d="M167.44,183.19h-.62l-.56.23c-3.5-.81-6.46,1.06-9.61,1.93-2.46.69-5.08,1.52-5.05-2.63,2.93-3.21,6.21-4.39,10.16-1.78,4.15-.57,8.37-2.47,12.35.56Z"/><path class="cls-273" d="M186.22,186.42c.15-2.54.31-5.08.46-7.63l.85-.82a3.82,3.82,0,0,1,2.15.81c2.71,2,.39,5.26,1.91,7.56.36,1.68.71,3.35,1.07,5l-3.75-.66c-.49,1.22-.95,1.21-1.38,0Z"/><path class="cls-274" d="M188.94,197.78l-6.18-3.92c-1-1.62-3.71-3.88-1.73-5,3.2-1.83,4.07,3,6.61,4,2,1.13,1.93,2.93,1.62,4.82Z"/><path class="cls-275" d="M189.26,197.64l-1.62-4.82c0-.71-.07-1.43-.11-2.15a10.6,10.6,0,0,1,1.38,0c.54,2.26,1.09,4.53,1.63,6.8Z"/><path class="cls-276" d="M128.23,131.62l3.87.83c.13.57.27,1.13.4,1.7-1.45,3.28,4.73,4.69,2,8.27-5.61-1.37-11.07-3.56-17-3.22l-4.47-4c.07-2.11.47-4.07,2.51-5.25C120.07,128.36,123.72,133.24,128.23,131.62Z"/><path class="cls-277" d="M144.6,154.58c2,4.7-.6,4.89-4,4.1s-6.67-1.7-10-2.56c-.31-6.49,5-6.22,9-7.58h-.05C141.92,150,144.85,150.94,144.6,154.58Z"/><path class="cls-278" d="M134.53,142.42c.47-3-7.51-4-2-8.27,1.12,2.78,8.4,2.83,3.66,8.22C135.61,142.41,135.07,142.43,134.53,142.42Z"/><path class="cls-279" d="M168.07,170.47l-1.23,2c-1.28,5.62-6.86,5.34-10.58,7.49-2.9,1.67-6.35,2.38-9.44,3.83-1.53.08-2.76-.29-3-2.08,1.91-3.18,5.88-2.92,8.45-5.09,4.4-3.72,1.82-4.75-1.89-5.53-1.48-2.8-5.59-3.72-5.45-7.67l5.1-1.22c3.06-3,6.77-2.47,9.35-.18s6.23,2.7,8.8,4.93A3.07,3.07,0,0,1,168.07,170.47Z"/><path class="cls-280" d="M144.92,163.46c3.54,1.33,9.05,1.26,5.45,7.67-5.34.82-6.57-5-10.54-6.46Z"/><path class="cls-281" d="M167.2,167.15c-2.69,1-5.43,3.78-7.53-1-1.84-4.21-6.76-1.74-9.65-3.88-2.24-2.45.64-4.82.1-7.24,3.61-2.95,6.15.63,9.13,1.49,2.94,2.28,6.68,3.58,8.6,7.09A3.55,3.55,0,0,1,167.2,167.15Z"/><path class="cls-282" d="M158.08,158.53l-8-3.53c-.2-.47-.37-.95-.53-1.43a3.23,3.23,0,0,1-.8-4.13,10,10,0,0,0,7.35.68,44.07,44.07,0,0,1,5.07,2.95c1.49.93,2.72,2.32,1.88,4.16C162.07,159.49,160.06,159.27,158.08,158.53Z"/><path class="cls-283" d="M148.79,149.44c.27,1.37.53,2.75.8,4.13l-5,1a10.17,10.17,0,0,1-5.06-6.05C142.77,147.33,145.93,146.89,148.79,149.44Z"/><path class="cls-284" d="M117.11,107.31a38,38,0,0,0,3.21,13.88l-4.24-2.63a3.25,3.25,0,0,1-3.68-.82,7.49,7.49,0,0,1-1.27-2.38c-.61-1.76-.41-3.61-.65-5.42-.29-2.72-1.9-5.36-.55-8.2C115,100.12,117.17,102.29,117.11,107.31Z"/><path class="cls-285" d="M128.23,131.62c-4.43,4.4-8.47.67-12.62-.61-4.17.81-5.76-.75-4.54-4.91,3.69-.72,7.11.69,10.62,1.33Z"/><path class="cls-286" d="M111.07,126.1a5.87,5.87,0,0,0,4.54,4.91,3.88,3.88,0,0,1-2.56,4.19c-2.37-1.17-4-3.78-7.11-3.56C104.23,126.41,105.07,125.5,111.07,126.1Z"/><path class="cls-287" d="M104.16,97.5c.23-1.12.47-2.24.71-3.36l2.64-4.32,2.94,4.72.84,3.86a6,6,0,0,1-.74,3.27c.53,2.8,1,5.61,1.58,8.42-6.08-1.58-2.3-8.34-5.91-11.22Z"/><path class="cls-288" d="M113.6,115.34A6.33,6.33,0,0,1,109,111q-1.39-6.06-2.8-12.1c4.16,2.59,2.72,8.13,5.91,11.22Z"/><path class="cls-207" d="M124.67,87.55l-1.53.31c-.61-.34-.85-.74-.73-1.19s.27-.67.47-.71l1.55,0A2.87,2.87,0,0,1,124.67,87.55Z"/><path class="cls-289" d="M122.88,86l.27,1.9-2.07-1.24c.33-.62.66-1.24,1-1.86A3.42,3.42,0,0,1,122.88,86Z"/><path class="cls-290" d="M110.55,101.67c-.41-1.24-.58-2.43.74-3.28a12.33,12.33,0,0,0,7.33,1.51c.35,1,.71,2.07,1.07,3.1.22,1.19.45,2.39.66,3.58l-3.24.73C115.21,105.1,113.56,102.6,110.55,101.67Z"/><path class="cls-291" d="M158.08,158.53c1.91-.79,5.09-1,1.7-4.08a41.06,41.06,0,0,1-3.64-4.33c-.14-.55-.28-1.1-.4-1.66l8.08,3.16a10,10,0,0,1,2.86,2.65c.86,2.49,1.72,5,1.34,7.7a4.08,4.08,0,0,1-1.53,2.1Z"/><path class="cls-292" d="M164.59,154.92l-.78-3.3c.48-.1.95-.21,1.41-.34a12.75,12.75,0,0,1,2.26-2.55,36.22,36.22,0,0,1,7.64-1.55l1.51-.28,3.14,2.75-.61.46c0,2.31-.23,4.55-2.59,5.82a11.3,11.3,0,0,1-7.7,2.18C166.88,157.81,165.75,156.34,164.59,154.92Z"/><path class="cls-293" d="M168.74,150.52l-3.52.77c-.71-2.11-1.41-4.21-2.12-6.3-1.48-4.35,1.62-3,3.64-2.9l2.08,1.29C171.79,145.79,170.89,148.16,168.74,150.52Z"/><path class="cls-294" d="M168.74,150.52q0-3.57.08-7.14l3-2.53c2.35,1.46,2.73,4,3.33,6.33C174.3,150.79,172,151.49,168.74,150.52Z"/><path class="cls-295" d="M184.42,148.55a15.67,15.67,0,0,1-1.68.36Z"/><path class="cls-296" d="M211.12,169.29a9.26,9.26,0,0,1,.18,1.65,7.62,7.62,0,0,1-1.32,1.95l-5.19-.38-1.27-.4a5.4,5.4,0,0,1-2.06-3.29c.43-4.63-.9-9.9,4.53-12.76l.24.07C210.25,159.63,206.76,165.92,211.12,169.29Z"/><path class="cls-297" d="M215.23,170.22l-2.74-1.51,3.15-2.47h0a2.49,2.49,0,0,1,1.35,1.62A2,2,0,0,1,215.23,170.22Z"/><path class="cls-298" d="M206,156.06q-1.11,6.54-2.23,13.09c-5.52,1.28-3.49-3.81-5-5.92-.17-.6-.33-1.2-.5-1.8.89-1.91-.28-4.59,2.19-5.91Z"/><path class="cls-299" d="M179.76,166c1.37-1.24.77-4.56,3.45-4,.9.19,1.29,2.9,1.91,4.46,2.25.94,5.45-.65,6.82,2.6a3.45,3.45,0,0,1-.5,2.56c-3.82,2.07-7.25,5.66-12.25,3.1C176.54,171.63,178.1,168.82,179.76,166Z"/><path class="cls-300" d="M176.49,154.09l2.67-4,6,1.93a6.51,6.51,0,0,1,2.24,1.32c.31,1.09.63,2.17.94,3.25a25.83,25.83,0,0,1-11.11,1.18C173.65,157.23,175.69,155.54,176.49,154.09Z"/><path class="cls-301" d="M179.76,166c2.49,2.58.3,4.59-.82,6.73-2.08,3.09-4,1.67-5.92-.19-1.5-2.64-3.18-5.24-1.57-8.45a4.07,4.07,0,0,1,5.43-1.24Z"/><path class="cls-302" d="M176.88,162.86l-4.65,1.19-1.07-.07a4.49,4.49,0,0,1-2.23-2.17,21.05,21.05,0,0,1-1.43-3.91,3.44,3.44,0,0,1,.83-1.85l8.16-2c.41,1.2-1.4,2.85.74,3.7C177.81,159.53,178.32,161.26,176.88,162.86Z"/><path class="cls-303" d="M191.13,168.56l-6-2.1,5.06-1.5,2-.07a3.59,3.59,0,0,1,1.27,2.75l-.46.94A1.37,1.37,0,0,1,191.13,168.56Z"/><path class="cls-304" d="M204.79,172.51a4.07,4.07,0,0,0-.08,1.35l-7.52,2.1c-2.57,2.33-3.62,0-4.89-1.59-.82-2.13-.17-4.19.35-6.24l.12,0c.45-.73.28-1.86,1.39-2.17l3.52-.48c2.81,1.74,2.72,6.09,6.37,7.09Z"/><path class="cls-305" d="M204.05,172.53c-6.07,1.18-5.49-3.62-6.37-7.09.36-.74.72-1.47,1.09-2.21,3,.81,2.16,4.93,5,5.92C203.85,170.27,204,171.4,204.05,172.53Z"/><path class="cls-306" d="M194.16,165.92l-1.39,2.17c-.21-1.06-.42-2.13-.62-3.2Z"/><path class="cls-307" d="M187.4,153.36,185.16,152l1.79-.42Z"/><path class="cls-308" d="M241.25,138.45c-.43.79-.86,1.57-1.28,2.36-1.29,1.41-3.37,1.64-4.64,3.08A11.64,11.64,0,0,0,234,145.7c-.39.58-.77,1.17-1.15,1.74l0,.31c-.72-.43-1.46-.79-2.18-1.21l0-.48c-1.9-4.16-5.85,3.47-7.64-1.33l-.21-1.74,1-2.06c.76-2,1.53-3.93,2.29-5.9.27-1.27.82-1.4,1.65-.4,3.28,4.8,7.28,1.16,11,1Z"/><path class="cls-219" d="M216,168c-.15-.57-.29-1.15-.43-1.72.54-.13,1.07-.27,1.6-.42.15.6.31,1.21.46,1.82l-.71.7Z"/><path class="cls-232" d="M227.76,134.63l-1.65.4c-.14-.57-.29-1.15-.43-1.72l-.05.07c.4-.9,1-1,1.74-.44A16.53,16.53,0,0,1,227.76,134.63Z"/><path class="cls-309" d="M229.76,125.48a2.37,2.37,0,0,1,1.07.68A.78.78,0,0,1,229.76,125.48Z"/><path class="cls-310" d="M227.37,132.94l-1.74.44c0-.6,0-1.21-.07-1.81l1.54-.3C227.2,131.83,227.29,132.38,227.37,132.94Z"/><path class="cls-264" d="M261,123.3l-3,2.33Z"/><path class="cls-311" d="M193.78,173.34a3.92,3.92,0,0,0,3.4,2.62c2.25,2.23,4.22,4.61,4.45,8l-4.26-2.25c-3.18-.75-6.83-.08-9.29-3.05l-.51-.06c-2.24-3.91-.11-5.37,3.39-6.07A6.42,6.42,0,0,1,193.78,173.34Z"/><path class="cls-312" d="M188.08,178.63c3.65-.66,6.6.82,9.3,3.05a9.82,9.82,0,0,0-5.79,4.66C189.09,184.38,188.75,181.43,188.08,178.63Z"/><path class="cls-313" d="M230.64,146.54l2.18,1.21Z"/><path class="cls-314" d="M220.22,170.64c-.54.1-1.09.19-1.63.3a1.26,1.26,0,0,1-1.11-1.38c.38-1,1.35-1.53,2-2.31l0,0,2.34,2.9Z"/><path class="cls-261" d="M219.48,167.25l-.93,2c-1.16-.16-1.43-.73-.8-1.72l-.09.08Z"/><path class="cls-315" d="M234,144c1.16-2.63,3.66-2.76,6-3.23l-4.34,4.38A3.55,3.55,0,0,1,234,144Z"/><path class="cls-316" d="M234,144l1.65,1.16a11.7,11.7,0,0,1-1.62.51A3.15,3.15,0,0,1,234,144Z"/><path class="cls-317" d="M210,172.89l1.32-1.95a4.94,4.94,0,0,1,.18,1.71A7.81,7.81,0,0,1,210,172.89Z"/><path class="cls-318" d="M217.75,167.57c.27.57.54,1.15.8,1.72a5.71,5.71,0,0,0,0,1.65,9.86,9.86,0,0,1-1.46.46c-.53.07-1,.17-1.57.28a5.62,5.62,0,0,1-.33-1.46L216,168Z"/><path class="cls-319" d="M191.87,173.52c-2.2,1-4.34,2.11-4.3,5l-.45.12-.44.1c-3-.21-6.11-.26-9.13-.68-2.7-.38-5.92-.55-5.17-4.8l.49-1,1,.31,5,.08c4.52,2,8.13-2.12,12.4-1.84C192.71,171.53,193.33,172.32,191.87,173.52Z"/><path class="cls-320" d="M151.48,183.48l-3.29.68L146,182.58l20.87-10.06c1.89,5-3.27,5.69-5.08,8.42Z"/><path class="cls-321" d="M167.2,167.15c-.24-1-.47-2.06-.71-3.09v-.78a2.44,2.44,0,0,1,2.42-.15,5.48,5.48,0,0,1,1.76,3.37,3.87,3.87,0,0,1-.87,3.6l-1.73.37Z"/><path class="cls-322" d="M169.8,170.1c-.23-1.18-.45-2.36-.68-3.55a1.52,1.52,0,0,1,2.29-.11c.61,2.05,1.93,4,.79,6.29l.18.57Z"/><path class="cls-323" d="M168.08,163.54a9.58,9.58,0,0,1-1.59-.26c-.64-2.79-1.27-5.57-1.9-8.36l3.74,1.13c.17.48.36,1,.56,1.42,0,1.57.88,2.87,1.39,4.28C170.08,163,169.55,163.85,168.08,163.54Z"/><path class="cls-324" d="M191.87,173.52c-.18-.87-.36-1.75-.53-2.62s-.15-1.56-.22-2.34l1.53-.43c.38,1.73.75,3.47,1.13,5.21Z"/><path class="cls-325" d="M172.2,172.73l-1.47-6.51c-1.12-1.55-.4-2.05,1.18-2.05l.32-.12,1.68,8.61A4.91,4.91,0,0,1,172.2,172.73Z"/><path class="cls-326" d="M169.57,161.39c-1.69-1-1.75-2.39-.68-3.92,1.55.53,1.91,1.84,2.08,3.25C170.86,161.71,170.38,161.89,169.57,161.39Z"/><path class="cls-327" d="M169.57,161.39c.46-.24.92-.47,1.4-.67.31,1.15.63,2.3.94,3.45-.39.69-.79,1.37-1.18,2.05-.54.12-1.07.23-1.61.33-.35-1-.69-2-1-3Z"/></g><path class="cls-328" d="M347.62,178.93c-7.44-1.67-12.17-5-14.87-10.54-5-10.27-.08-20.85.5-22,1.6-3.24,3.6-6.45,5.36-9.28a59.48,59.48,0,0,0,4.71-8.49c1-2.52,5.07-15.7-9.24-27.53L336,98.79c12.29,10.16,13.28,22.61,10.11,30.87a59.68,59.68,0,0,1-5,9c-1.81,2.91-3.68,5.93-5.22,9-.51,1-4.88,10.4-.49,19.41,2.31,4.71,6.27,7.47,12.86,8.95Z"/><path class="cls-328" d="M346.74,179.34c-6.43-4.12-9.73-8.88-10.37-15-1.21-11.4,7.05-19.63,8-20.53,2.62-2.49,5.59-4.83,8.21-6.89a58.16,58.16,0,0,0,7.33-6.36c1.78-2,10.13-13,.74-29l2.55-1.5c8.07,13.75,4.78,25.76-1.05,32.47a60.67,60.67,0,0,1-7.74,6.75c-2.69,2.12-5.48,4.31-8,6.71-.84.79-8.15,8.08-7.1,18.07.56,5.21,3.34,9.16,9,12.8Z"/><path class="cls-328" d="M348.8,179.27c-7.57,1-13.15-.55-17.57-4.81-8.25-8-7.21-19.57-7.07-20.87.4-3.58,1.18-7.28,1.86-10.55a59.66,59.66,0,0,0,1.53-9.59c0-2.7-.61-16.49-18.1-22.71l1-2.79c15,5.35,20.22,16.7,20.07,25.55a60.76,60.76,0,0,1-1.59,10.15c-.7,3.35-1.43,6.83-1.81,10.27-.13,1.15-1.05,11.43,6.17,18.4,3.78,3.64,8.45,4.88,15.15,4Z"/><path class="cls-328" d="M348.22,179.06c-7.13,2.73-12.92,2.55-18.22-.55-9.88-5.8-11.6-17.33-11.77-18.63-.45-3.57-.57-7.35-.67-10.68a57.89,57.89,0,0,0-.77-9.69c-.58-2.63-4.45-15.88-22.92-17.83l.31-2.94c15.87,1.67,23.58,11.49,25.51,20.13a60.15,60.15,0,0,1,.83,10.24c.11,3.42.22,7,.65,10.4.15,1.15,1.67,11.36,10.33,16.44,4.52,2.65,9.35,2.76,15.66.35Z"/><path class="cls-328" d="M384.55,136.17a23.69,23.69,0,0,1-6.9,6,59.44,59.44,0,0,1-9.52,3.84c-3.24,1.12-6.59,2.27-9.75,3.71-1.05.48-10.36,5-12.63,14.74-1,4.49.05,7.65,4.68,13.53l-2.33,1.83c-5.17-6.57-6.5-10.62-5.23-16,2.6-11.16,13.1-16.23,14.29-16.77,3.28-1.49,6.85-2.73,10-3.81a58.81,58.81,0,0,0,9-3.61c2.34-1.34,13.85-9,10.22-27.18l2.91-.58C391.42,122.5,388.83,130.65,384.55,136.17Z"/><ellipse class="cls-328" cx="389.22" cy="114.06" rx="2.9" ry="7.35" transform="translate(7.18 250.26) rotate(-35.95)"/><ellipse class="cls-328" cx="362.34" cy="101.38" rx="2.9" ry="7.35" transform="translate(9.51 232.06) rotate(-35.95)"/><ellipse class="cls-328" cx="337.45" cy="101.27" rx="2.9" ry="7.35" transform="translate(4.83 217.42) rotate(-35.95)"/><ellipse class="cls-328" cx="311.09" cy="109.88" rx="2.9" ry="7.35" transform="translate(-5.25 203.59) rotate(-35.95)"/><ellipse class="cls-328" cx="294.53" cy="121.9" rx="2.9" ry="7.35" transform="translate(-15.46 196.15) rotate(-35.95)"/><path class="cls-328" d="M86.82,275.12c-7.45-1.67-12.18-5-14.87-10.54-5-10.28-.09-20.85.5-22,1.6-3.24,3.59-6.45,5.35-9.28a58.51,58.51,0,0,0,4.71-8.49c1-2.52,5.07-15.7-9.23-27.53L75.17,195c12.29,10.16,13.28,22.61,10.11,30.87a60.58,60.58,0,0,1-5,9c-1.81,2.91-3.68,5.92-5.22,9-.51,1-4.89,10.4-.49,19.41,2.3,4.71,6.27,7.47,12.86,8.94Z"/><path class="cls-328" d="M85.93,275.53c-6.43-4.12-9.72-8.88-10.37-15-1.2-11.39,7.06-19.62,8-20.52,2.61-2.49,5.58-4.83,8.21-6.89a59.63,59.63,0,0,0,7.33-6.36c1.77-2,10.13-13,.73-29l2.56-1.5c8.07,13.74,4.78,25.76-1.06,32.47a59.83,59.83,0,0,1-7.73,6.75c-2.7,2.12-5.49,4.31-8,6.7-.84.8-8.15,8.09-7.1,18.07.55,5.22,3.33,9.17,9,12.81Z"/><path class="cls-328" d="M88,275.46c-7.57,1-13.15-.55-17.58-4.82-8.24-7.95-7.2-19.56-7.06-20.86.4-3.58,1.17-7.28,1.86-10.55a59.83,59.83,0,0,0,1.53-9.59c0-2.7-.61-16.49-18.1-22.71l1-2.79c15,5.34,20.22,16.7,20.07,25.55a60.76,60.76,0,0,1-1.59,10.15c-.71,3.35-1.43,6.82-1.81,10.27-.13,1.15-1,11.43,6.17,18.4,3.78,3.64,8.45,4.88,15.14,4Z"/><path class="cls-328" d="M87.41,275.25c-7.12,2.73-12.91,2.55-18.22-.56-9.87-5.79-11.6-17.33-11.76-18.62-.45-3.58-.57-7.35-.67-10.69A57.86,57.86,0,0,0,56,235.7c-.59-2.63-4.46-15.88-22.92-17.83l.31-2.94c15.86,1.67,23.58,11.49,25.5,20.13a60,60,0,0,1,.84,10.23c.11,3.43.21,7,.65,10.41.14,1.15,1.67,11.36,10.32,16.44,4.53,2.65,9.36,2.76,15.66.34Z"/><path class="cls-328" d="M123.75,232.35a23.59,23.59,0,0,1-6.9,6.05,59.83,59.83,0,0,1-9.52,3.84c-3.24,1.11-6.6,2.27-9.75,3.71-1,.48-10.36,5-12.63,14.74-1,4.49,0,7.65,4.68,13.53l-2.33,1.83c-5.18-6.57-6.5-10.62-5.24-16,2.61-11.16,13.1-16.23,14.29-16.77,3.28-1.5,6.86-2.73,10-3.81a59,59,0,0,0,9-3.61c2.34-1.34,13.85-9,10.22-27.18l2.9-.58C130.62,218.69,128,226.84,123.75,232.35Z"/><ellipse class="cls-328" cx="128.42" cy="210.25" rx="2.9" ry="7.35" transform="translate(-98.98 115.46) rotate(-35.95)"/><ellipse class="cls-328" cx="101.54" cy="197.57" rx="2.9" ry="7.35" transform="translate(-96.66 97.26) rotate(-35.95)"/><ellipse class="cls-328" cx="76.65" cy="197.46" rx="2.9" ry="7.35" transform="translate(-101.33 82.62) rotate(-35.95)"/><ellipse class="cls-328" cx="50.29" cy="206.07" rx="2.9" ry="7.35" transform="translate(-111.41 68.79) rotate(-35.95)"/><ellipse class="cls-328" cx="33.72" cy="218.09" rx="2.9" ry="7.35" transform="translate(-121.62 61.35) rotate(-35.95)"/></g></g></svg>